<?xml version="1.0" standalone="no"?>
<!DOCTYPE svg PUBLIC "-//W3C//DTD SVG 1.1//EN" "http://www.w3.org/Graphics/SVG/1.1/DTD/svg11.dtd" >
<svg xmlns="http://www.w3.org/2000/svg">
<metadata></metadata>
<defs>
<font id="gooddog_newregular" horiz-adv-x="892" >
<font-face units-per-em="2048" ascent="1536" descent="-512" />
<missing-glyph horiz-adv-x="563" />
<glyph horiz-adv-x="2048" />
<glyph horiz-adv-x="2048" />
<glyph unicode="&#xd;" horiz-adv-x="2048" />
<glyph unicode=" "  horiz-adv-x="563" />
<glyph unicode="&#x09;" horiz-adv-x="563" />
<glyph unicode="&#xa0;" horiz-adv-x="563" />
<glyph unicode="!" horiz-adv-x="512" d="M20 98q1 27 12.5 46.5t35 30.5t44 16.5t52.5 11.5q50 9 85.5 -13t41 -59.5t-20.5 -83.5q-21 -33 -64 -47t-84.5 -8t-72 34t-29.5 72zM88.5 649q5.5 41 13 70.5t20 77t17.5 80.5q2 13 21.5 128t25.5 162q4 28 6.5 72t4.5 74.5t9 67.5t18 62t32.5 47t52.5 32q27 12 78 9.5 t68 -26.5q14 -19 15.5 -51t-5 -60t-16 -64t-11.5 -52q-6 -45 -26 -216t-33 -261q-1 -10 -4.5 -34.5t-5.5 -36.5t-5.5 -32.5t-6.5 -33t-8 -27.5t-10.5 -26.5t-12.5 -20.5q-23 -31 -72.5 -52t-99 -11t-62.5 61q-9 20 -3.5 61z" />
<glyph unicode="&#x22;" horiz-adv-x="780" d="M61 803.5q0 34.5 3.5 67.5t8.5 79t7 70q17 236 41 323q10 34 38.5 51t80.5 25q17 2 30.5 -2t22.5 -15t15.5 -24t9.5 -33t4.5 -37t1 -42t-1 -41.5t-2 -42t-1.5 -37.5q0 -6 -2.5 -50.5t-3 -58.5t-3.5 -53t-5.5 -58t-7 -47.5t-10.5 -48.5t-13 -36q-16 -37 -56 -65 t-84.5 -25.5t-65.5 49.5q-7 17 -7 51.5zM449.5 834q1.5 47 4 89t8 100t7.5 85q15 179 41 233q22 49 63.5 62.5t102.5 -2.5q24 -22 33 -69.5t8 -83t-7 -100.5q-1 -12 -1 -18q-18 -216 -35 -325q-5 -38 -36 -71t-73.5 -41.5t-89.5 22.5q-14 11 -20.5 41.5t-5 77.5z" />
<glyph unicode="#" horiz-adv-x="1425" d="M33 668q-2 44 19.5 67.5t59.5 29t79 5.5t89.5 2t79.5 12q32 9 41 39.5t9 85.5q-23 21 -107.5 24.5t-89.5 4.5q-35 7 -53 52t-10 97q5 37 38.5 56.5t77 21t91.5 0t81.5 -7t46.5 1.5q14 7 59 105t62 120q23 30 58.5 36t89.5 -9q26 -8 37 -28.5t7.5 -52t-10.5 -59 t-18.5 -64.5t-15.5 -54q9 -25 70.5 -29.5t88.5 4.5q31 29 53.5 81t44 99.5t52.5 69.5q27 20 67 29t76.5 -3.5t44.5 -47.5q7 -29 -6 -63.5t-32.5 -60.5t-33 -58t-8.5 -58q6 -28 41 -37t73 -7.5t70.5 -14.5t35.5 -56q7 -119 -93 -127q-28 -2 -92.5 8t-97.5 1q-25 -7 -53 -70.5 t-2 -73.5q35 -14 78 -21t72 -9t54.5 -9t35.5 -26.5t5 -55.5q-6 -54 -28.5 -77.5t-85 -31.5t-195.5 -1q-28 1 -43.5 -29.5t-19 -70t-10.5 -80.5t-19 -54q-16 -17 -48.5 -28t-66.5 -12.5t-62.5 15t-35.5 50.5q-8 42 17 114t20 87q-7 26 -64 43t-98 -8q-7 -4 -20 -55 t-37.5 -110.5t-57.5 -82.5q-27 -19 -64 -24t-71.5 10t-48.5 49q-16 41 8 105t21 103q-24 9 -74 13.5t-85.5 9t-65 33t-31.5 82.5zM648 834q-2 -22 7 -46q18 -19 49.5 -24.5t83.5 -5.5q55 40 52 143q-29 25 -83 27.5t-79 -23.5q-28 -43 -30 -71z" />
<glyph unicode="$" horiz-adv-x="1122" d="M72 257q3 27 20 60q16 31 48.5 38.5t55 2t71.5 -22.5q11 -3 16 -5q120 -39 151 -8q8 9 13.5 69t10.5 143.5t9 118.5q-42 5 -102 21.5t-101 34.5q-81 35 -132 102.5t-44 167.5q7 166 107 262q27 32 83.5 55t120.5 40t88 30q15 13 22 74.5t26 81.5q29 29 76.5 30.5 t80.5 -28.5q22 -21 26.5 -57.5t0 -67t6.5 -62.5q3 -10 14.5 -18.5t32.5 -15.5t35.5 -10.5t44 -10t37.5 -8.5q38 -10 84 -30.5t69 -41.5q14 -12 14.5 -49.5t-18.5 -77.5q-12 -25 -52 -39t-81 -8q-19 3 -44.5 9t-48 13t-42.5 13.5t-32 10.5l-13 5q-15 -5 -19.5 -43t-6 -93.5 t-5.5 -78.5q14 -14 98 -43t109 -45q140 -85 158 -196q14 -75 7 -137t-22 -106.5t-50.5 -83t-78 -66t-104.5 -56.5q-15 -7 -69 -18.5t-70 -18.5q-18 -8 -28.5 -63t-22.5 -72q-33 -53 -148 -29q-24 5 -32.5 26.5t-7 45t-3.5 47.5t-22 33q-23 12 -73 25t-87 18q-27 4 -50.5 10 t-49 16t-42 25t-27 34.5t-7.5 46.5zM301 997q7 -45 70 -83.5t106 -26.5q9 33 17.5 120t-0.5 117q-75 10 -139.5 -29t-53.5 -98zM668 295q112 13 149 95.5t-4 159.5t-123 77q-14 -60 -20 -152q-12 -123 -2 -180z" />
<glyph unicode="%" horiz-adv-x="1611" d="M49 1026q5 73 33 123q27 48 99.5 91.5t146.5 53.5q98 15 201 -56t126 -157q13 -44 6.5 -86t-23 -83t-48 -74.5t-68.5 -60t-84.5 -40.5t-96 -15.5t-103 15t-105.5 51.5q-45 29 -67 97t-17 141zM290 975q21 -39 69 -51q53 -14 75 25q8 15 10 34q6 49 -32.5 77.5t-89.5 14.5 q-61 -46 -32 -100zM475 238q-2 34 14.5 74t44 87t35.5 64q73 148 123 264q104 227 211 422q4 6 17.5 31t17 30.5t15.5 24.5t18.5 24t19.5 17.5t24.5 17t28 10.5t35.5 9q100 19 119 -43q3 -21 3.5 -39.5t-10 -48t-20 -52.5t-25.5 -54t-28 -52t-26.5 -46.5t-20.5 -37.5 q-39 -76 -78.5 -159t-86 -186t-66.5 -146q-6 -14 -25 -58.5t-33 -72t-35 -64t-45 -60.5t-51 -36q-64 -30 -118 -7t-58 87zM940.5 340.5q0.5 72.5 30.5 144.5q32 67 121.5 124.5t177.5 68.5q40 5 92 -19t97 -66.5t69.5 -107t9.5 -131.5q-9 -44 -57.5 -99.5t-100.5 -84.5 q-66 -37 -161 -52t-172 9q-49 19 -78 80t-28.5 133.5zM1153 345q8 -19 37 -30q51 -19 91 5.5t40 78.5q1 61 -49 62q-45 1 -89 -39q-47 -42 -30 -77z" />
<glyph unicode="&#x26;" horiz-adv-x="1337" d="M70.5 331q-13.5 84 7.5 163q33 111 162 215q25 20 55.5 34t49 21.5t20.5 13.5q14 44 -8 138.5t-21 123.5q0 82 53 191q28 47 89 91t130 62q91 21 174 -2.5t121 -91.5q54 -93 15 -223q-25 -80 -136 -223q-17 -23 -45.5 -49t-46 -42t-16.5 -24q0 -10 43 -81.5t69 -98.5 l26 -25q26 -26 41 -39t40.5 -26.5t44.5 -12.5q10 1 38.5 55.5t63.5 125t52 94.5q21 31 53 41t61 0.5t49 -31.5q15 -16 19 -38.5t-5 -52.5t-15.5 -48t-24 -52.5t-19.5 -39.5q-4 -9 -16 -34t-18.5 -41t-11 -37.5t-1.5 -37.5q5 -20 22 -35.5t35.5 -24.5t36.5 -25t25 -36 q19 -54 -18.5 -101.5t-104.5 -51.5q-33 -1 -63 11.5t-48.5 29t-42.5 30t-47 13.5q-28 0 -112 -35t-103 -41q-96 -32 -184 -48t-182 -10t-158 44q-52 30 -93.5 103.5t-55 157.5zM291 418q3 -72 52 -119t126 -55q57 -6 123.5 12.5t109.5 52.5q-94 111 -122 154q-6 9 -24 40 t-31.5 51t-33 37.5t-36.5 16.5q-50 -3 -108.5 -73t-55.5 -117zM525 974q1 -52 30 -65q38 -18 95 42q58 62 73 136q17 86 -51 109q-37 12 -73 -25.5t-55.5 -91t-18.5 -105.5z" />
<glyph unicode="'" horiz-adv-x="376" d="M62 817.5q2 37.5 8 101.5t6 74q21 267 41 363q7 43 31.5 61t72.5 23q104 9 88 -369q-1 -22 -2 -71.5t-2 -81t-6 -72t-14 -68.5q-17 -52 -58 -81t-73 -29q-27 0 -56 21.5t-35 55.5q-3 35 -1 72.5z" />
<glyph unicode="(" horiz-adv-x="651" d="M63.5 493q-6.5 145 12 276.5t53.5 244.5q93 362 354 467q56 8 93 -23.5t40 -73.5q-20 -42 -58.5 -88t-72.5 -79.5t-67.5 -83t-48.5 -101.5q-43 -120 -57 -271t10 -302t88 -244q8 -11 38 -46t43.5 -62.5t10.5 -59.5q-4 -45 -53 -67t-113 -11q-28 11 -54.5 31t-43.5 37.5 t-39 51t-31.5 49.5t-30.5 56.5t-26 49.5q-41 104 -47.5 249z" />
<glyph unicode=")" horiz-adv-x="634" d="M80 1446q0 51 29.5 80t78.5 35q69 8 148.5 -60t122.5 -145q98 -178 110.5 -458.5t-65.5 -514.5q-32 -98 -102 -234.5t-123 -177.5q-29 -25 -79.5 -23.5t-78.5 29.5q-24 23 -27 55t12 66t32 61.5t37.5 55.5t23.5 33q65 110 104.5 276t34.5 352t-70 314q-14 36 -43 68.5 t-55.5 54t-53 57t-36.5 76.5z" />
<glyph unicode="*" horiz-adv-x="1175" d="M61.5 1049q-3.5 38 10 75t43 66t63.5 29q63 -2 149.5 -56t123.5 -61q21 17 17.5 77.5t-13 112t5.5 84.5q26 41 108.5 49t118.5 -32q20 -22 14 -124.5t5 -121.5q14 -2 52 35t86 82.5t79 56.5q34 13 70 -10t58.5 -60t26.5 -69q2 -35 -19 -64.5t-54.5 -50.5t-68.5 -40 t-64.5 -43t-38.5 -50q12 -26 48 -46.5t78.5 -35t83.5 -31.5t70.5 -43t32.5 -61q2 -60 -22.5 -108t-75.5 -44q-55 3 -111.5 27.5t-109 53.5t-83.5 38q-5 -30 11.5 -121.5t7.5 -134.5q-10 -51 -67.5 -70t-118.5 7q-31 14 -46 53t-16.5 79.5t-6.5 88t-17 71.5 q-22 -8 -47.5 -35.5t-50.5 -58.5t-54 -60t-68 -42.5t-82 -3.5q-36 8 -63.5 51t-20.5 92q11 34 50 69.5t80 61.5t80 62t49 71q-2 9 -49 26.5t-116 45.5t-110 59q-25 16 -28.5 54z" />
<glyph unicode="+" horiz-adv-x="909" d="M33 508q-5 51 13.5 83.5t52.5 44.5t78 17.5t90 3t89 0.5q10 35 15 104t14 101q11 40 38 58.5t81 19.5q30 0 66 -23.5t42 -54.5q10 -28 5.5 -115t-3.5 -108q30 -7 65.5 -3t73 3t68.5 -6t50.5 -29t19.5 -67q0 -91 -76 -117q-26 -10 -84 -13t-103 -1l-44 2q6 -162 -25 -234 q-14 -30 -50 -50.5t-81 -21.5q-33 0 -55.5 8.5t-33.5 26.5t-16.5 38t-4.5 50t3.5 56t6 62.5t4.5 62.5q-37 5 -79.5 2.5t-96.5 0t-84 15.5q-23 8 -29.5 25t-9.5 59z" />
<glyph unicode="," horiz-adv-x="464" d="M29 -252q2 29 23 61.5t44.5 57.5t42 60.5t17.5 70.5q4 32 1.5 72.5t-4 60.5t8.5 53q12 36 42 61t72 29q48 4 74 -31.5t28.5 -91t-6 -117.5t-24.5 -113.5t-31 -76.5q-39 -59 -93.5 -110t-102.5 -51q-33 0 -60.5 17.5t-31.5 47.5z" />
<glyph unicode="-" horiz-adv-x="1067" d="M55 557q0 88 115 100q49 7 360 7q24 0 122.5 3t157.5 0t97 -14q54 -17 77.5 -75t-1.5 -117q-8 -19 -35.5 -32t-78 -19t-83 -8t-99.5 -3.5t-79 -1.5q-47 -4 -241 -1.5t-236 18.5q-37 13 -57.5 54t-18.5 89z" />
<glyph unicode="." horiz-adv-x="454" d="M39 51q-1 28 7 65.5t27.5 77t47 70.5t70 46.5t90.5 4.5q56 -29 74 -90.5t1 -122.5t-63 -108t-105 -49q-49 -2 -97.5 28t-51.5 78z" />
<glyph unicode="/" horiz-adv-x="925" d="M33 137q261 578 469 948q12 21 46 88t58.5 110t62.5 85.5t74 50.5q53 12 106 -5t60 -54q4 -21 -7.5 -50t-36 -67.5t-29.5 -48.5q-116 -207 -302.5 -595t-261.5 -533q-27 -32 -70 -52t-84 -20t-67 36t-18 107z" />
<glyph unicode="0" horiz-adv-x="1173" d="M55.5 480q3.5 62 14.5 112q55 605 487 672q73 12 141 -9.5t119 -65t87 -89t61 -94.5q24 -45 37.5 -114t12.5 -151.5t-15 -170t-49.5 -172.5t-85.5 -156.5t-127.5 -124t-172.5 -72.5q-41 -9 -81 -10.5t-77 5t-68 14.5t-64 23t-55 26.5t-50 27.5q-48 28 -77 88t-35 129.5 t-2.5 131.5zM283 497q4 -89 26 -135q24 -48 99.5 -77t132.5 -17q67 15 120 75t81 139t39 162.5t1 150.5q-8 64 -80.5 142t-144.5 75q-54 -3 -112.5 -55.5t-92.5 -110.5q-36 -63 -54.5 -161.5t-14.5 -187.5z" />
<glyph unicode="1" horiz-adv-x="587" d="M103 109q-3 22 1 59.5t6.5 55t8.5 52.5q1 8 2 11q25 136 44.5 380.5t27.5 311.5q3 23 5 67t5 75t9.5 66t22 58t39.5 33q27 11 60 12.5t65.5 -14t46.5 -49.5q10 -14 7 -50.5t-10 -65.5t-16.5 -71t-12.5 -67q-12 -95 -29.5 -303.5t-26.5 -284.5q-3 -21 -5 -135t-21 -154 q-18 -36 -67.5 -67t-88.5 -25q-24 4 -40.5 18t-23 39.5t-9.5 47.5z" />
<glyph unicode="2" horiz-adv-x="958" d="M33 946q3 62 103.5 162.5t176.5 142.5q35 31 101 47.5t134.5 14t128.5 -35t79 -91.5q8 -44 8 -89t-6 -84.5t-19 -83.5t-26.5 -78.5t-34.5 -77t-37.5 -72t-40.5 -70.5q-18 -34 -58 -94t-72 -116.5t-50 -111.5q37 -11 105.5 -7.5t134 13.5t131 7t96.5 -27q14 -19 16.5 -52 t-5.5 -65t-27.5 -59t-45.5 -35q-148 -22 -561 -12q-60 2 -101 22t-44 53q-3 35 12.5 79t33 73t46.5 72t35 53q34 56 81.5 126.5t82.5 129t69 129.5q7 14 24 44t28 52t21 50.5t9.5 56.5t-12.5 55q-7 17 -17 26.5t-22.5 11.5t-24.5 1t-28 -9t-28 -15t-28 -20.5t-26 -21.5 t-25 -21t-20 -18q-20 -17 -58.5 -61.5t-72 -71t-68.5 -28.5q-49 -3 -74.5 28t-23.5 78z" />
<glyph unicode="3" horiz-adv-x="989" d="M45.5 1111.5q3.5 17.5 5.5 29t12.5 24.5t18.5 21t22 18t24 16t24.5 14.5t23.5 14.5q83 45 161 68.5t193 36.5q70 8 154.5 -14t151 -75t73.5 -120q14 -44 -10.5 -102t-66 -105t-82 -81.5t-60.5 -41.5q7 -3 19 -8t43.5 -23.5t58 -38.5t52 -51t34.5 -63q18 -54 15.5 -109 t-14 -100t-35 -88.5t-47 -74.5t-50.5 -58q-54 -54 -142.5 -100.5t-179.5 -59.5q-51 -9 -96.5 -12t-101.5 0t-92 27t-41 67q-4 42 18.5 77.5t61.5 49.5q10 0 49.5 -0.5t52 0t47 2t51 5t46 10t50 15.5t45.5 23.5t48 32.5q25 22 43 41t37.5 46.5t27.5 60t2 67.5q-9 51 -52.5 77 t-99.5 32.5t-111 11.5t-93.5 25.5t-40.5 62.5q-1 28 3.5 49t10 33.5t24 26.5t27.5 19t40.5 19.5t43.5 20.5q228 111 227 178q-1 3 -1 6q-6 33 -54 44t-96 5.5t-76 -16.5q-41 -13 -129.5 -65.5t-115.5 -63.5q-55 -10 -98.5 8.5t-51.5 50.5q-7 17 -3.5 34.5z" />
<glyph unicode="4" horiz-adv-x="1024" d="M38.5 611.5q-0.5 25.5 1.5 48t9 57t11.5 53t14 53.5t11.5 43q57 215 70 269q5 19 10.5 50t9.5 50.5t13 44t20.5 38.5t31.5 25t48 13q47 2 82 -18.5t41 -59.5q5 -36 -5 -95.5t-20.5 -97t-30.5 -104.5q-2 -6 -3.5 -10t-2.5 -8q-70 -240 -59 -263q13 -13 139.5 -13.5 t181.5 5.5q19 48 44 143.5t40 178.5q5 25 11 68.5t11 71t13 63.5t18 58.5t25 44.5t36.5 32.5t49.5 11.5q35 2 55.5 -0.5t38.5 -13.5t23 -35.5t0 -65.5q-8 -55 -27 -153.5t-36.5 -181t-35 -162.5t-18.5 -84q-17 -73 -39 -215.5t-39.5 -253.5t-27.5 -133q-27 -50 -99.5 -61 t-122.5 30q-18 82 -9.5 135.5t23 136t9.5 135.5q-66 31 -207 19q-115 -8 -197.5 16.5t-105.5 91.5q-6 17 -6.5 42.5z" />
<glyph unicode="5" horiz-adv-x="970" d="M55 115q-7 45 12 96t64 61q43 9 119 -18.5t106 -28.5q109 6 189.5 61t101.5 150q-3 55 -36 91t-82 47.5t-107 14.5t-111 -7q-7 -1 -20 -3q-91 -15 -123 -6q-53 14 -70 95q-1 104 24 307t30 268q3 54 44.5 88.5t96.5 36.5q22 1 66.5 4.5t63.5 4.5t56 1t77 -2.5t95 -7.5 q21 -2 66 -3.5t72 -4.5t59.5 -10.5t50.5 -25t23 -44.5q10 -64 -18.5 -109.5t-78.5 -48.5q-31 -3 -125 1t-177.5 4.5t-110.5 -11.5q-19 -8 -33.5 -32.5t-23 -64t-12.5 -68.5t-8 -74t-5 -52q19 -2 70.5 -3.5t96 -6t81.5 -14.5q52 -10 99.5 -27.5t92 -47t75.5 -66.5t45.5 -88.5 t6.5 -110.5q-37 -174 -172.5 -301t-308.5 -152q-129 -16 -238.5 12t-122.5 95z" />
<glyph unicode="6" horiz-adv-x="1034" d="M55 457q12 182 99 405t188 334q48 56 121.5 124.5t111.5 72.5q26 4 62.5 -6.5t66.5 -33t33 -48.5q3 -34 -28.5 -74.5t-83.5 -86t-58 -52.5q-58 -61 -108.5 -151t-71.5 -173q26 2 70 9t73.5 11t70.5 6.5t61 -3.5q73 -14 133 -42t107.5 -72.5t70.5 -111.5t16 -151 q-12 -120 -112.5 -224.5t-241 -158.5t-270.5 -41q-171 19 -248 133t-62 334zM311 290.5q30 -75.5 107 -79.5q83 -4 159 27t125.5 97t45.5 150q-12 46 -56.5 71t-101.5 24.5t-114 -13.5t-101.5 -42t-57.5 -62q-36 -97 -6 -172.5z" />
<glyph unicode="7" horiz-adv-x="978" d="M43 1249.5q-3 52.5 16 87.5q4 7 10.5 13t12 11t15 8.5t16 6.5t18.5 5t18 3.5t20 2.5t18.5 1.5t19.5 1.5t18 1q22 4 259.5 2.5t295.5 -0.5q56 -2 106 -30t54 -71q4 -36 -11.5 -72t-48.5 -82.5t-38 -54.5q-140 -238 -219 -456q-52 -118 -90.5 -275.5t-49.5 -285.5 q-3 -29 -41 -52.5t-82 -28t-81 8.5q-15 6 -25.5 16t-16 24t-9 27.5t-2.5 33t2 33.5t5.5 36t7 34t8 34l7.5 30q6 24 21.5 91.5t23 96.5t21.5 80t28 92t31 83q66 174 192 442q-26 6 -93.5 4.5t-136.5 -6t-146.5 1t-124.5 24.5q-26 26 -29 78.5z" />
<glyph unicode="8" horiz-adv-x="1110" d="M76 283q-7 77 13 146.5t54 113.5q11 14 51.5 64t51.5 65q-17 21 -44 79.5t-34 94.5q-21 106 -25.5 169.5t11.5 127.5t61 121q59 76 208 120t271 19q101 -6 174.5 -60.5t105.5 -132.5t29 -170.5t-45 -173.5q-45 -86 -106 -141q6 -7 31.5 -34.5t42 -50t37.5 -58.5 t32.5 -82.5t12.5 -100.5q6 -296 -289 -387q-119 -40 -247 -31.5t-222 68.5q-59 35 -113.5 105t-60.5 129zM309 362q0 -60 51.5 -108t122.5 -49q45 -1 79.5 1.5t75 13t67 29.5t45 53.5t20.5 82.5q2 46 -54.5 101.5t-121.5 62.5q-68 7 -132.5 -11.5t-108.5 -65t-44 -110.5z M390 972q12 -59 52 -104.5t95 -46.5q88 -1 151 41t74 105t-2 110.5t-43.5 73t-71.5 37t-87 6t-89 -24.5q-52 -22 -71.5 -80t-7.5 -117z" />
<glyph unicode="9" horiz-adv-x="1032" d="M53 918q12 120 79.5 227t164.5 173t199 77q87 9 195 -18.5t167 -90.5q48 -47 68 -135t12 -187t-30 -197t-56 -179q-80 -193 -179 -331.5t-251 -242.5q-19 -12 -51 -20t-68 -8.5t-63.5 22t-30.5 66.5q-2 22 4 42t15.5 34.5t26.5 31t30.5 26.5t34.5 25.5t32 24.5 q40 32 95 98t63 99q-7 3 -100.5 27t-126.5 40q-59 29 -100.5 60t-76 77t-48 111t-5.5 148zM285 938.5q-12 -60.5 10 -125.5q40 -82 138.5 -111t195.5 -10q86 130 86 242q0 127 -49 189t-160 44q-48 -8 -95 -40t-80.5 -80t-45.5 -108.5z" />
<glyph unicode=":" horiz-adv-x="460" d="M39 51q-1 28 7 65.5t27 77t46.5 70.5t69.5 46.5t90 4.5q57 -29 75.5 -90.5t1.5 -122.5t-63 -108t-105 -49q-50 -2 -99 28.5t-50 77.5zM61 686q0 36 18 75.5t48 71t75.5 46.5t94.5 4q62 -14 87.5 -80t-7.5 -148q-15 -35 -53 -61t-82 -33.5t-85.5 0t-69 40.5t-26.5 85z" />
<glyph unicode=";" horiz-adv-x="495" d="M45 -252q1 29 21.5 61.5t44 57.5t42.5 60.5t17 70.5q5 36 0 104t6 82q14 37 44 61.5t71 28.5q48 4 74 -31.5t28.5 -91t-6 -117.5t-24.5 -113.5t-31 -76.5q-35 -57 -92 -109t-105 -52q-33 0 -60 17.5t-30 47.5zM82 664q-1 67 38 122t83 72q56 25 98 25q48 0 93 -33t52 -78 q16 -84 -39.5 -151.5t-132.5 -77.5q-76 -10 -133.5 22.5t-58.5 98.5z" />
<glyph unicode="&#x3c;" horiz-adv-x="854" d="M16 410q1 38 27.5 84.5t48.5 72t60 64.5q13 13 176 199t202 214q48 36 123 41q35 2 69 -42.5t21 -81.5q-16 -46 -70.5 -116t-113 -131t-116.5 -129.5t-78 -109.5q28 -29 89.5 -57.5t120.5 -48.5t119 -53t88 -70q3 -25 -3.5 -54.5t-22 -59.5t-49 -46.5t-78.5 -9.5 q-32 4 -208 76.5t-237 101.5q-16 7 -49.5 20t-49 21t-35.5 23.5t-27.5 38t-6.5 53.5z" />
<glyph unicode="=" horiz-adv-x="927" d="M57 631q-4 33 15 71t43 54q38 24 288 27t351 -11q40 -4 83 -30t42 -66q0 -29 -6 -49t-18 -32.5t-31 -18.5t-45 -9t-60.5 -3h-77.5t-96 -1q-75 -5 -199 -12q-13 -1 -52.5 -4t-63 -4t-59.5 2t-57 11.5t-38 27.5t-19 47zM85 302q-18 41 5 89q47 86 588 53q2 0 20.5 -0.5 t27.5 -1.5t27.5 -3.5t29 -7t23.5 -11.5t19.5 -18.5t8.5 -26.5q5 -41 -12.5 -74t-51.5 -43q-51 -18 -311.5 -23.5t-308.5 11.5q-47 15 -65 56z" />
<glyph unicode="&#x3e;" horiz-adv-x="870" d="M47 858q-4 58 32 98t91 48q34 5 167 -50t255 -114q3 -2 26 -13.5l35 -17.5t37 -19.5t40 -23t37 -23t35.5 -25t27 -24t20 -24t6.5 -21.5q1 -26 -51.5 -87.5t-96 -103t-87.5 -79.5q-293 -264 -345 -275q-71 -15 -110.5 17t-36.5 98q-2 62 219 217q46 35 109.5 88.5 t62.5 63.5q-54 51 -196 106q-269 107 -277 164z" />
<glyph unicode="?" horiz-adv-x="958" d="M33 979q-9 37 24.5 109.5t67.5 123.5q51 77 139.5 137t202 85.5t229.5 -19.5q46 -17 85.5 -42.5t74 -61t53.5 -84.5t15 -105q-5 -70 -37.5 -129t-83.5 -102.5t-103.5 -78t-111.5 -74.5t-92 -74q-5 -26 0.5 -74t11 -84.5t-7 -70t-49.5 -42.5q-156 -40 -172 66 q-1 7 -8 52.5t-9 59.5t-8 61t-4.5 57.5t0.5 49.5q4 19 12 33.5t24.5 27.5t26.5 19.5t37 20.5t37 20q30 20 91.5 55t97 58t73.5 64.5t53 90.5q3 57 -38.5 96t-92.5 42q-57 4 -122 -39.5t-106 -92.5t-64 -90q-10 -18 -19.5 -57t-25 -62t-48.5 -30q-44 -9 -94.5 20.5 t-58.5 63.5zM287 131q-10 78 75 102q40 10 77.5 0.5t58 -32.5t26.5 -54t-18 -63q-26 -37 -77.5 -39.5t-94 23.5t-47.5 63z" />
<glyph unicode="@" horiz-adv-x="1495" d="M80.5 827.5q18.5 143.5 71.5 229.5q67 108 125.5 175.5t142 121.5t194 79t263.5 29q104 2 208 -52.5t179 -136t120 -175.5q63 -131 46 -289.5t-103 -253.5q-44 -48 -116 -82t-148 -24q-47 6 -76.5 20t-79.5 51q-111 -56 -194 -61q-89 -3 -159.5 54t-80.5 151 q14 189 110 292.5t273 112.5q87 -3 167 -52t87 -110q1 -16 -8 -52.5t-17 -72t-11 -71t13.5 -58.5t55.5 -26q47 -3 78.5 54t35.5 114q12 144 -69 266t-189 174q-93 40 -198 36t-191 -40q-80 -34 -145 -93t-113.5 -144.5t-61.5 -193t11 -239.5q24 -117 96 -177.5t207 -96.5 q3 -1 21 -5t24.5 -6t21.5 -6.5t22 -8.5t16.5 -10t14.5 -13.5t7 -16.5q9 -43 -28.5 -93t-79.5 -56q-38 -5 -131.5 24t-139.5 54q-51 26 -99.5 68t-78.5 81q-64 88 -88 236.5t-5.5 292zM700 764.5q-12 -40.5 2 -84.5q51 -37 89 -14t58.5 78t12.5 104q-33 25 -68.5 19.5 t-58.5 -34t-35 -69z" />
<glyph unicode="A" horiz-adv-x="999" d="M25 63q-1 5 -1 11q0 14 6 36q8 30 24 76t22 64q112 336 317 856q12 31 30 89t32 97t36 82t53 66t72 26q9 1 17 1q19 0 33 -5q20 -7 31.5 -17.5t19 -35.5t9.5 -44t6 -58q2 -24 3 -37q20 -179 79.5 -464t76.5 -390q7 -48 33 -168.5t34 -165.5q-4 -42 -52 -72 q-45 -28 -86 -28h-5q-34 4 -56.5 42.5t-33 95.5t-18 117t-20.5 117.5t-32 85.5q-21 -3 -70.5 -8.5t-82.5 -10t-74.5 -13t-67.5 -19.5q-20 -75 -65.5 -188.5t-81.5 -171.5q-22 -25 -54.5 -32t-60.5 1t-49 26t-24 39zM438 612q17 -5 40 -5q24 0 58 6q64 11 85 30v13 q1 62 -17 166q-20 114 -41 147h-18q-27 -51 -62.5 -168t-44.5 -189z" />
<glyph unicode="B" horiz-adv-x="919" d="M70 125q6 175 39 598q2 29 8.5 133t11.5 167.5t17.5 148.5t29.5 137q34 48 146 67q76 13 151 13q36 0 72 -3q98 -9 185.5 -69t96.5 -129q3 -29 -2.5 -55.5t-23 -55.5t-25.5 -40t-31 -40q-12 -16 -56.5 -63.5t-63.5 -85.5q28 -31 81 -61.5t74 -51.5q60 -63 94 -161 q20 -58 21 -112q0 -37 -10 -73q-27 -99 -93 -171.5t-156 -110.5t-188 -54q-71 -12 -146 -12q-28 0 -56 2q-148 8 -176 82zM312 361q0 -10 0.5 -26t2 -26.5t4.5 -22.5t7 -22q27 -8 58 -8q34 0 73 9q76 17 134.5 57t67.5 84q4 18 4 35q1 39 -19 81q-28 58 -76.5 98t-107.5 60 q-41 14 -76 15q-15 0 -30 -3q-18 -18 -24.5 -52t-8 -94.5t-2.5 -72.5q-1 -6 -2.5 -27t-2 -29.5t-2.5 -26.5q-1 -14 -1 -23q1 -4 1 -6zM350 1052q-2 -27 -3 -51q0 -57 13 -94q6 -5 12 -5v1q7 -1 21 7q15 8 27.5 16.5t31 21.5t30.5 22t26 20t18 14q22 17 40 49q20 34 20 59 q0 29 -36 53q-37 25 -85 30q-13 1 -25 1q-35 0 -67 -10q-15 -42 -23 -134z" />
<glyph unicode="C" horiz-adv-x="1019" d="M59 526q-3 44 -3 86q0 51 4 99q8 88 27.5 155.5t48.5 127.5t61 103t68.5 78.5t68.5 57.5t63 37q68 36 178 51q38 5 66 7q19 1 43 1h26q41 -1 68 -8t48 -25t24 -47q1 -8 1 -14q0 -37 -23 -59q-27 -25 -80 -41q-25 -6 -86.5 -14.5t-108.5 -22.5q-62 -19 -129.5 -79.5 t-95.5 -133.5q-28 -74 -40 -145q-9 -53 -9 -104q0 -17 1 -33q4 -66 30 -120t70 -93q46 -40 118 -60q55 -15 123 -14q21 0 43 1q26 1 79.5 22.5t77.5 25.5q20 5 39 5q26 0 51 -8q44 -14 54 -45q5 -14 5 -27q0 -60 -91 -116q-70 -40 -137 -56t-173 -16q-138 0 -293 84 q-88 48 -149 136.5t-68 203.5z" />
<glyph unicode="D" horiz-adv-x="1060" d="M59 127q48 479 60 795q3 41 3 82q0 29 -1.5 57.5t-1.5 56.5q0 40 3 78q5 64 16.5 114t47 81.5t93.5 33.5q29 0 108 -18q294 -75 404 -174q51 -48 96 -121q49 -76 77 -168q27 -92 30 -202v-18q0 -101 -31 -202q-46 -152 -111.5 -233.5t-196.5 -149.5q-120 -62 -225 -85 q-65 -14 -149 -14q-51 0 -109 5q-63 6 -86.5 23.5t-26.5 58.5zM298 338q0 -26 4.5 -41.5t12.5 -22.5q33 -5 65 -5q140 1 248 105q132 128 144 341v19q0 88 -34 170q-38 91 -101 153q-49 46 -131 83q-54 24 -96 24q-23 0 -43 -7q-10 -3 -16.5 -17.5t-10 -40.5t-4.5 -46.5 t-2 -55t-2 -47.5q-19 -326 -27 -465q-1 -13 -3 -48.5t-3 -54.5q-1 -13 -1 -28v-16z" />
<glyph unicode="E" horiz-adv-x="919" d="M68 231v16q0 72 14 265q4 88 33 537q1 64 2 87.5t5 71.5t14 76t26 45q59 66 325 67q37 0 60 -1.5t56 -2.5t54 -4t46 -7t40.5 -10.5t30.5 -15.5t23 -21t10 -27q1 -22 0.5 -41.5t-5.5 -35t-14 -26.5t-25.5 -18t-39.5 -8q-23 -2 -86 -2q-70 -1 -106.5 -2.5t-88 -9.5 t-71.5 -21q-17 -11 -23 -34t-10 -67q-1 -5 -5.5 -38.5t-6.5 -56t-3 -53.5t4 -53t17 -34q22 -19 59 -19q29 0 100 15.5t101 15.5q67 0 84 -61q3 -16 3 -30q0 -38 -19 -62q-26 -34 -70 -48q-29 -5 -90 -12q-4 0 -21 -2t-23 -3t-22 -3t-23.5 -3t-21.5 -3.5t-21.5 -4.5t-19 -5 t-19 -6t-15 -7t-13.5 -8q-26 -28 -26 -137q0 -92 4 -127q0 -4 1 -11t1 -10l2 -2q17 -1 37 0q84 0 225 13q16 2 55.5 9.5t71 13.5t70.5 9t55 -4q29 -9 45 -53q8 -22 9 -45q0 -24 -9 -51q-10 -29 -30.5 -50t-42.5 -31.5t-59 -16.5t-61 -7t-67 -2q-129 0 -367 -16 q-19 -1 -35 -1q-76 0 -96 30q-26 37 -28 159z" />
<glyph unicode="F" horiz-adv-x="980" d="M94 84q0 11 -1 23q0 29 3 57q4 40 10.5 94t6.5 88q2 111 11.5 352t10.5 381q-1 28 -1 53q0 145 20 205q8 25 26 42t36.5 26t50.5 14.5t52.5 6.5t61 2t57.5 2q33 2 70 2q93 0 217 -11q20 -2 83.5 -4t104.5 -8.5t76 -24.5q14 -37 14 -64q0 -24 -14 -42q-15 -20 -35.5 -33 t-50.5 -21.5t-59.5 -12.5t-61.5 -5q-17 -1 -40 -1q-40 1 -100 3q-47 2 -86 2q-40 0 -72 -2q-64 -4 -101 -22q-6 -24 -9 -51.5t-4 -45t-2.5 -55t-2.5 -55.5q-1 -17 -5 -75q-3 -40 -3 -69q0 -13 1 -23q2 -36 13 -67q21 -6 50 -11t51 -7t62 -5t60 -5q99 -11 129 -23 q42 -17 49 -49q4 -22 4 -42q0 -31 -11 -57q-18 -40 -60 -48q-26 -4 -56 -4q-26 0 -56 3q-43 5 -89 5q-23 0 -48 -2q-73 -4 -98 -29q-8 -9 -13.5 -26t-8 -41.5t-4 -43t-2 -46t-0.5 -33.5q0 -7 -1 -20q-1 -57 -3 -83.5t-9.5 -62t-23.5 -57.5t-43 -42q-2 -1 -9 -6t-10 -7.5 t-10.5 -6.5t-13 -5.5t-13.5 -3.5q-7 -2 -14 -2l-4 1q-8 0 -18 2q-32 7 -47 31.5t-17 64.5z" />
<glyph unicode="G" horiz-adv-x="1122" d="M61 393q-7 54 -7 111q0 85 16 174q25 150 84 278q45 133 221 322q55 59 144 96q87 35 194 35h6q30 -1 81 -10.5t108.5 -26.5t100.5 -45.5t46 -62.5q1 -18 -4.5 -33t-11 -21.5t-17 -16.5t-12.5 -11q-44 -46 -100 -46q-39 0 -83 23q-58 17 -112 17q-62 0 -119 -23 q-107 -43 -160 -135q-89 -146 -131 -354q-12 -56 -15 -118v-18q0 -55 14 -116q15 -71 52 -109q24 -23 74.5 -43.5t114.5 -28.5q17 -2 33 -2q46 0 88 17q148 62 151 274q-16 10 -51.5 10t-73.5 -2q-19 -1 -38 -1l-38 1q-38 2 -67 20.5t-39 55.5q-7 26 1 47.5t30 36.5t46 26 t59 19t58.5 12t53.5 9q10 1 14 2q74 11 131 11q91 0 137 -28q16 -10 24 -29q8 -16 8 -43v-6q-1 -31 -2.5 -48t-9 -56t-7.5 -41q-23 -116 -53.5 -194.5t-94.5 -155.5q-69 -73 -171 -116q-99 -42 -220 -42h-6q-97 1 -172.5 21.5t-134.5 65t-94.5 119.5t-45.5 179z" />
<glyph unicode="H" horiz-adv-x="985" d="M68 -18v14q0 13 1 23q1 15 4.5 46.5t4.5 49.5q-1 18 -1 37q1 51 5 107q6 76 15.5 174.5t13.5 146.5q1 28 4.5 111t5.5 125.5t6 111t9.5 126t13.5 111.5q2 24 3.5 67.5t3 72.5t5 67.5t10.5 64t18 50.5t29.5 39t42.5 18q11 1 22 1q23 1 47 -5q35 -8 46 -22q17 -18 21 -66 q2 -24 2 -47.5t-2 -45.5q-4 -44 -12.5 -109t-10.5 -85q-2 -29 -7 -83.5t-7 -77.5t-5 -74q-2 -38 -2 -60v-14q1 -22 2 -74q6 -5 13 -9.5t13 -7.5t15.5 -5.5t15 -4t17 -2.5t16.5 -1.5t18 -1t16.5 -0.5h18.5h17q125 4 150 38q43 101 49 496q-3 37 -3 74v13q0 44 13 69 q23 45 81 64q21 7 40 7q36 0 69 -22q25 -19 27 -85v-27q0 -58 -8 -141q-10 -103 -10 -130q-4 -472 -43 -746q-3 -20 -9.5 -89t-13.5 -116.5t-16 -64.5q-20 -46 -75 -46q-38 0 -93 22q-31 8 -35 69q-1 14 -1 29q0 49 10 107q13 75 17 149q1 15 1 29q0 54 -13 83 q-15 6 -33.5 7t-45 -1.5t-39.5 -2.5q-17 0 -63 3q-25 2 -44 2q-16 0 -29 -2q-28 -2 -49 -12q-30 -92 -36 -285t-15 -245q-13 -42 -67 -78q-32 -21 -66 -22q-23 0 -47 10q-18 7 -28.5 18.5t-16.5 23.5t-6 34z" />
<glyph unicode="I" horiz-adv-x="434" d="M64 111v21v17q0 14 1.5 42t2.5 40q2 29 3 138t3 143q5 81 20 280t21 304q1 11 3 52.5t4.5 78.5t5.5 79t7 72t8 39q14 27 53.5 45.5t73.5 20.5q73 0 90 -47q10 -16 10 -67v-14q-2 -63 -8.5 -117.5t-14.5 -122t-9 -95.5q-2 -49 -15.5 -259.5t-13.5 -332.5v-25 q0 -60 -0.5 -97t-2.5 -96t-8.5 -97.5t-16.5 -53.5q-21 -33 -77 -53q-33 -12 -59 -11q-17 0 -30 5q-14 6 -24 16t-15.5 26.5t-8.5 30.5t-3 38z" />
<glyph unicode="J" horiz-adv-x="972" d="M20 520q18 55 64 76q33 14 83 14q20 0 42 -2q35 -32 47 -88t16.5 -122.5t18.5 -102.5q14 -39 52 -74.5t85 -38.5h9q51 0 96 54q49 60 76.5 139.5t37.5 159.5q19 255 19 516q0 76 -2 153q-1 22 -6 59t-6 53.5t5 45.5q12 34 51.5 56t88 22t80.5 -27q17 -14 25 -51.5 t8 -72.5t-1.5 -93.5t-1.5 -85.5q2 -56 2 -124q0 -51 -1 -110q-3 -135 -10.5 -261t-38 -250.5t-81.5 -200.5q-41 -61 -105 -109.5t-141 -76.5q-54 -19 -115 -19q-24 0 -49 3q-88 11 -165 67q-42 31 -88.5 91t-63.5 109q-17 51 -27 137q-7 52 -7 97q0 30 3 57z" />
<glyph unicode="K" horiz-adv-x="1005" d="M59 193v30q0 95 10 267q12 201 15 296q6 51 9 183t14 239t38 166q37 58 94 68q9 2 18 2q46 0 83 -45q7 -24 7 -64q1 -18 -1 -39q-4 -68 -12.5 -121.5t-19.5 -122t-13 -104.5q46 19 101.5 64.5t99.5 92t100 97.5t100 78q8 6 37.5 30.5t49.5 37t38 16.5q14 2 27 2 q40 0 70 -20q42 -26 41 -66q1 -23 -21 -52t-41.5 -45t-52.5 -40q-232 -189 -389 -365q0 -37 57 -90q158 -145 332 -385q5 -7 30.5 -36.5t37 -45.5t24 -43.5t12.5 -50.5q-2 -51 -44 -87q-39 -34 -84 -34h-7q-19 1 -37.5 10.5t-37.5 30.5t-28 33t-28 39q-92 131 -221 282 q-69 86 -154 168q-10 -35 -10 -137q0 -36 1 -81q1 -40 1 -74q0 -108 -12 -150q-15 -45 -57 -73q-30 -20 -68 -20q-16 0 -33 3q-33 6 -53.5 50t-22.5 106z" />
<glyph unicode="L" horiz-adv-x="888" d="M80 115q-2 19 -2 40q0 54 12 115q19 275 70 697q1 9 2 28q3 45 5 70t6.5 71t10 74t13.5 66t20 61t27 45.5t35.5 32.5t44.5 10q13 1 24 1h10q14 0 26.5 -6t23.5 -19q10 -25 12 -70q0 -9 1 -18q0 -37 -5 -81q-6 -54 -13.5 -103t-15.5 -99t-10 -72q-4 -39 -21 -180.5 t-22 -212.5q-1 -20 -4.5 -63t-6 -82t-4.5 -79q-1 -23 -2 -42q-1 -13 1 -25q2 -28 8 -34q28 -4 80 -4h22q68 1 109 6q112 17 162 17q10 0 17 -1q49 -5 75 -29q33 -29 33 -70q0 -39 -25 -67q-25 -30 -62 -35q-157 -21 -504 -39q-16 0 -34 -1q-17 -1 -27 -1q-2 0 -5 -1 q-9 -1 -17 1q-12 2 -21 7q-43 21 -49 92z" />
<glyph unicode="M" horiz-adv-x="1470" d="M43 213q125 756 131 793q5 95 33.5 211t64.5 169q26 29 78 36q12 2 22 2q38 0 70 -19q8 -5 17 -17.5t16 -25.5t17 -35t15 -35t14 -36.5t11 -28.5q25 -64 123 -355q2 -5 12.5 -39.5t17 -54.5t17 -50.5t21 -53t20.5 -37.5q25 36 58.5 117t48.5 133q31 81 81 202.5t66 161.5 q5 10 21.5 45t26 54.5t25 44.5t28.5 39q21 24 58 38q26 10 53 10q11 0 23 -2q39 -6 58 -38q13 -20 27 -88.5t16 -104.5q6 -74 18.5 -197.5t21 -221.5t13.5 -205q1 -13 10 -158.5t15 -218.5q2 -16 8 -60t8 -68q1 -10 1 -22q0 -17 -2 -39q-3 -36 -15 -63q-13 -34 -85 -40 q-15 -1 -27 -1q-50 0 -76 18q-51 39 -60 275q-7 139 -12 221q-2 52 -4 160.5t-5 190t-9 130.5q-13 -21 -32 -59t-43 -89.5t-32 -66.5q-49 -127 -119 -264q-9 -18 -23.5 -54t-25.5 -59.5t-28 -50t-38.5 -40t-48.5 -13.5q-29 3 -54.5 24.5t-45.5 58.5t-33.5 69.5t-27.5 76.5 q-83 158 -193 430q-2 -19 -6.5 -96t-10 -142.5t-12.5 -99.5q-13 -61 -43 -227q-9 -47 -23 -125q-27 -161 -53 -203q-22 -36 -89 -35q-13 0 -27 1q-47 4 -69 36q-22 31 -22 77q0 45 9 114z" />
<glyph unicode="N" horiz-adv-x="1163" d="M66 154q4 40 13.5 96.5t10.5 75.5q8 144 37.5 410t38.5 419q0 7 1 21q4 60 7.5 93.5t13 77t23.5 58.5q19 19 67 31q23 6 45 6q23 0 44 -6q16 -6 29.5 -19t26 -37t20.5 -42t21.5 -53t20.5 -52q157 -365 183 -422q3 -8 30.5 -70t44 -99.5t41.5 -86t41 -72.5q17 62 27 289 q4 66 9 175.5t9 182.5q1 19 1 38t-1 37.5t-1 38.5t1 41q2 42 11 65q7 23 33.5 48.5t58.5 31.5q17 4 36 4q15 0 31 -2q36 -6 50 -27q18 -24 18 -94q0 -73 -19 -195q0 -3 -0.5 -5t-1 -4.5t-0.5 -4.5q-7 -54 -26 -407.5t-19 -411.5q0 -27 -0.5 -61t-1.5 -64.5t-7.5 -60 t-18.5 -48.5q-20 -31 -72 -47q-25 -7 -47 -7q-25 0 -49 9q-14 6 -27 23t-20.5 30.5t-24.5 48.5q-27 52 -84 154t-98.5 182.5t-73.5 159.5q-9 20 -42.5 81.5t-62.5 123.5t-44 115q-15 -75 -30 -306.5t-20 -273.5q-17 -265 -61 -309q-23 -27 -72 -33q-11 -1 -22 -1 q-36 0 -66 17q-24 14 -30 56q-4 25 -3 49q-1 17 1 33z" />
<glyph unicode="O" horiz-adv-x="1314" d="M70 643q23 402 206 574q79 94 183 150.5t225 57.5h14q110 0 215 -30q112 -32 172 -105q111 -108 147 -283q20 -96 20 -193q0 -79 -13 -159q-22 -135 -45 -201.5t-76 -144.5q-190 -308 -567 -311q-130 1 -219 57.5t-154 155.5q-70 105 -94 191q-17 62 -16 160q0 38 2 81z M317 530q9 -84 86 -181.5t148 -123.5q46 -13 88 -13q11 0 23 1q52 5 98.5 32t79.5 58t55 66q52 78 79 190.5t30 226.5q-3 119 -65 229.5t-140 135.5q-85 28 -159 28q-15 0 -30 -1q-65 -6 -130 -58t-95 -112q-33 -69 -57 -219q-15 -97 -15 -176q-1 -44 4 -83z" />
<glyph unicode="P" horiz-adv-x="1083" d="M67 231q1 95 4 169.5t8 167t5 96.5q20 424 27 546q3 46 6 74t12 63.5t23 55t38.5 34.5t59.5 17q6 1 13 1q15 1 33 -3q26 -4 65.5 -13.5t58.5 -13.5q314 -62 457 -188q45 -38 90.5 -108t58.5 -125q9 -42 9 -84q0 -34 -6 -68q-14 -75 -48 -131q-34 -53 -96.5 -102.5 t-132.5 -83.5q-67 -31 -209.5 -59.5t-214.5 -53.5q-8 -40 -13.5 -138.5t-13.5 -142.5q-3 -13 -6 -37.5t-6.5 -39.5t-9.5 -25q-15 -20 -49 -39t-72 -24q-6 -1 -12 -1q-31 0 -54 23q-14 14 -20 76q-5 53 -5 131v26zM322 748q0 -7 -1 -16q0 -36 9 -87q77 2 154 16t148 41 t116.5 74.5t48.5 108.5v9q0 62 -41 117q-44 59 -113.5 97t-143.5 61.5t-139 28.5q-2 -15 -10.5 -56.5t-12 -79t-5.5 -106.5q1 -11 1 -25q0 -33 -4 -79q-5 -64 -7 -104z" />
<glyph unicode="Q" horiz-adv-x="1308" d="M62 592q-1 21 -1 41q0 126 27 231q31 122 106.5 232t176.5 178q105 76 239 90q145 -1 295.5 -81t227.5 -193q37 -66 55.5 -103t36.5 -97t22 -124q1 -19 1 -38q0 -151 -50 -268q-57 -130 -180 -267q-13 -12 -43.5 -35.5t-46.5 -41.5t-19 -36q-1 -5 -1 -10q0 -34 25 -101 q23 -62 23 -102q0 -11 -2 -21q-9 -39 -56 -69q-40 -26 -74 -26q-6 0 -11 1q-65 5 -104 101q-8 20 -15.5 55.5t-16.5 59t-26 34.5t-52 11q-10 0 -21 -1q-21 -2 -40 -2q-28 0 -53 4q-304 75 -383 316q-35 113 -40 262zM312 605q7 -180 65 -279q25 -44 84 -72q41 -20 81 -20 q18 0 36 4q8 27 8 49q0 17 -4 32q-11 34 -26 85q-9 35 -9 63q0 13 2 25q8 41 39 73t69 35h6q46 0 73 -28q30 -29 40 -68t26.5 -88t39.5 -74q25 8 50.5 34.5t37 45.5t33.5 57q50 98 50 210q0 109 -46 208q-24 56 -90.5 120.5t-114.5 88.5q-51 27 -123 27q-25 0 -51 -3 q-66 -7 -138.5 -73t-99.5 -139q-40 -114 -40 -263q0 -25 2 -50z" />
<glyph unicode="R" horiz-adv-x="1112" d="M82 84q2 30 10 83t10 71q24 263 29 430q1 64 12 407q1 32 1 62.5t-1 60.5q-1 17 -1 34q0 43 4 88q5 62 20 93q17 38 59 57t90 23q8 1 19 0q38 1 106 -7q86 -10 140 -30q138 -46 170 -60q136 -59 185 -167q22 -47 30 -105q6 -32 6 -63q-1 -11 -1 -19q-2 -40 -6 -69.5 t-16 -59t-22.5 -49.5t-27 -40.5t-29 -33t-27.5 -26.5q-8 -7 -35.5 -23.5t-47 -33t-20.5 -31.5q-2 -19 11 -47t40.5 -70t30.5 -47q27 -47 81 -146t95 -167q1 -1 19 -30t23 -38.5t15 -32.5q12 -22 14 -40q1 -8 1 -16q0 -9 -2 -19q-11 -55 -83 -78q-32 -10 -60 -10 q-36 0 -66 16q-19 9 -35.5 30t-36.5 60t-22 43q-20 36 -68.5 138.5t-85.5 164.5q-11 12 -39 62t-55 65q-10 3 -21 3q-26 1 -60 -15q-48 -22 -62 -49q-14 -43 -25 -211t-39 -222q-12 -23 -42 -42q-29 -20 -67 -26q-8 -1 -15 -1q-30 0 -60 18q-25 16 -35 51q-8 29 -8 54v10z M360 924q2 -62 9 -158q1 -17 2 -25q16 0 33.5 4t30.5 9.5t33 18t29 18.5t32 22.5t28 20.5q10 6 43.5 25t55.5 33.5t44.5 38.5t28.5 48q4 20 4 42q0 33 -9 65q-15 56 -58 92q-37 32 -137 46q-52 7 -89 7q-34 0 -55 -6q-19 -52 -23 -146q-3 -60 -2 -107q-1 -26 0 -48z" />
<glyph unicode="S" horiz-adv-x="909" d="M76 1034q10 90 47.5 159.5t97.5 121.5q71 60 166 100q39 20 99 20q2 0 3 1l115 -18q60 -18 111.5 -58t72.5 -96q17 -22 38.5 -68.5t23.5 -60.5q3 -12 3 -25q1 -39 -27 -85q-36 -60 -91 -60h-2q-18 1 -36 16t-29 31t-28 44t-24 38q-40 54 -61 71q-30 24 -62 24 q-7 0 -14 -1q-77 -12 -129 -70q-43 -48 -43 -95q0 -10 2 -19q12 -60 43.5 -102.5t76 -66t89 -39t97 -33.5t83.5 -38q70 -45 117 -132q39 -72 39 -148q0 -16 -2 -33q-5 -45 -25.5 -106t-44.5 -97q-42 -65 -122 -119t-185 -74q-19 -1 -68 -7.5t-81 -8.5h-11q-27 0 -59 8 q-39 10 -63 33q-29 38 -29 80q0 12 2 24q8 61 102 86q36 10 93.5 12.5t105 10.5t82.5 33q22 15 39.5 41.5t24.5 61.5q2 10 2 20q0 25 -13 51q-7 14 -23 27.5t-30.5 22.5t-41.5 21t-39 17t-41.5 15t-31.5 11q-107 32 -184.5 100.5t-110.5 168.5q-27 76 -27 147q1 22 3 43z " />
<glyph unicode="T" horiz-adv-x="1079" d="M37 1193q-3 16 -3 32q0 26 9 49q16 34 113 48q91 13 175 13h11q90 -1 164 -8q49 -2 92 -2q21 1 40 1q58 2 158 6t130 5q7 1 15 1q30 0 65 -12q44 -16 49 -46q1 -10 1 -20q0 -30 -14 -58q-18 -38 -45 -53q-24 -12 -136 -19t-138 -32q-19 -16 -28 -53t-9 -81.5v-97v-100.5 q-3 -68 -3 -198q1 -22 1 -44v-22q0 -150 -7 -246q-7 -104 -30 -180q-11 -40 -51 -56q-22 -9 -45 -9q-19 1 -37 7q-42 14 -63 52q-8 11 -14 27.5t-8.5 38.5t-3.5 41.5t0.5 48.5t2 45t3 46t3.5 39q12 204 12 361q-1 16 -1 109t-8 163.5t-31 106.5q-11 12 -58 13h-19 q-38 0 -80 -3q-21 -2 -42 -2q-33 0 -65 4q-54 6 -79 27q-17 14 -26 58z" />
<glyph unicode="U" horiz-adv-x="1105" d="M74 492q-11 105 -11 219q0 184 29 391q2 19 6.5 54t6.5 51.5t7 44.5t10.5 42.5t14.5 34.5t20.5 31.5t28 22.5t37.5 18q35 10 62 10q40 0 59 -22q12 -13 14 -49v-18q0 -26 -4 -52q-4 -34 -12 -80.5t-10 -65.5q-22 -247 -22 -354v-9q1 -111 18 -214q25 -164 73 -234 q25 -37 79 -67q38 -20 82 -21q19 0 40 4q45 10 78 64t49.5 136.5t24 162.5t8.5 164q0 44 4 98q0 66 8 242q0 11 1 52t1.5 70t4.5 62t10 49q14 36 53.5 61.5t79.5 32.5q16 3 29 3q60 0 74 -58q7 -31 7 -67q0 -46 -12 -101q-1 -3 -1 -5t-0.5 -4.5t-0.5 -4.5 q-12 -99 -20 -353.5t-31 -369.5q-54 -274 -207 -383q-68 -48 -164 -68q-40 -8 -81 -9q-59 0 -122 17q-77 25 -154.5 95t-109.5 145q-25 64 -39 119q-8 39 -18 113z" />
<glyph unicode="V" horiz-adv-x="1230" d="M47 1257q2 47 25 73.5t54 30.5t61.5 -3.5t50.5 -22.5q17 -29 40.5 -112.5t48 -190.5t27.5 -119q34 -119 79.5 -306t62.5 -251q35 86 122.5 274.5t122.5 274.5q9 23 59 160.5t93.5 231t89.5 145.5q42 31 78 31q6 -1 11 -1q41 -6 68.5 -34t30.5 -64q0 -56 -35 -147 t-96 -217.5t-82 -178.5q-80 -196 -155.5 -358t-204.5 -422q-18 -29 -55 -55t-81 -34q-11 -2 -21 -3q-32 0 -60 21q-12 8 -20.5 30t-18 65.5t-14.5 59.5q-31 113 -71.5 251.5t-68 241t-63.5 255.5q-79 291 -79 360q0 9 1 14z" />
<glyph unicode="W" horiz-adv-x="1667" d="M68 1364q12 30 63 48q40 14 81 13q12 0 24 -1q54 -5 73 -31q12 -16 19 -52t12 -88t8 -69q26 -134 51 -358t33 -367q12 40 35 91.5t55.5 116.5t34.5 70q25 56 137 340q45 129 80 156q36 28 90 32h12q46 0 80 -28q14 -16 22.5 -46.5t11 -53.5t4.5 -72.5t3 -65.5 q3 -21 19.5 -148.5t31 -217.5t29.5 -137q14 32 50.5 133t52.5 127q27 70 66.5 192.5t60.5 181.5q7 18 22 66t28.5 83.5t28.5 59.5q19 28 65 53t96 25t69 -41q4 -10 4 -30t-4 -52q-8 -62 -23 -104q-19 -54 -62.5 -172.5t-73.5 -207.5t-60 -192q-126 -450 -240 -544 q-50 -43 -99 -43q-11 0 -22 2q-25 4 -46.5 25.5t-35 44t-28.5 67t-20 64.5t-17 67q-11 29 -39.5 142.5t-65.5 166.5q-54 -65 -123 -222.5t-124 -229.5q-9 -15 -23 -48t-28 -53t-35 -30q-38 -16 -73 -16q-16 -1 -32 3q-50 10 -78 54q-20 61 -36 129t-28.5 147.5t-20 132.5 t-18.5 147t-15 128q-9 52 -27.5 187t-30.5 204q-1 8 -8 43t-10 53.5t-7 46.5q-4 25 -4 43q0 21 5 35z" />
<glyph unicode="X" horiz-adv-x="1034" d="M41 1327q1 43 54.5 86.5t94.5 46.5h5q20 0 38 -8q20 -9 33.5 -22.5t27.5 -37.5t23 -44t22 -50t21 -47l33 -69t35 -72q5 -9 13.5 -28.5t15 -31.5t15 -26t17.5 -21t19 -8q20 -1 45.5 30.5t53.5 80.5t32 55q12 21 66 99q10 13 27 38t27 37t30.5 27t48.5 24q17 5 35 5 q27 0 55 -13q46 -22 55 -69q1 -8 1 -16q0 -27 -13 -53q-17 -34 -60.5 -79.5t-48.5 -52.5q-29 -36 -63 -88q-8 -14 -29 -44t-31 -48q-9 -17 -31.5 -52t-33.5 -55t-20.5 -48.5t-8.5 -53.5q0 -17 8 -38.5t15.5 -35.5t26 -43.5t24.5 -40.5q82 -143 149 -301q9 -22 26.5 -53 t25.5 -48.5t13 -41t-4.5 -45.5t-33.5 -47q-57 -57 -117 -57q-43 0 -88 30q-32 119 -84 231q-7 15 -23 50t-25.5 54.5t-26 45t-35.5 41.5q-8 -3 -15 -8.5t-14 -14.5t-10.5 -15t-11.5 -19t-11 -19q-15 -24 -66.5 -117t-82.5 -127q-22 -22 -58 -36q-37 -14 -73 -16h-6 q-34 0 -60 18q-30 20 -35 61q-1 8 -1 16q0 23 8 48q12 33 26 53t39 50.5t31 39.5q62 88 106 162q8 12 30 46.5t31 50t19.5 39t11.5 40.5v5q0 31 -12 60q-12 31 -41 82q-35 63 -101.5 194.5t-97.5 186.5q-4 7 -19 30t-21.5 34.5t-13.5 30t-7 32.5z" />
<glyph unicode="Y" horiz-adv-x="1193" d="M31 1309q0 41 35.5 86t82.5 63q20 8 40 8q27 0 53 -14q9 -6 21.5 -28.5t21.5 -43t20.5 -50t13.5 -34.5q31 -62 78 -161q17 -37 44 -111t51 -120.5t59 -80.5q25 13 44 35.5t40.5 59.5t30.5 49q186 263 208 293q54 68 62 83q3 5 18.5 30.5t27 42.5t17.5 22q18 15 51 20 q7 1 14 1q25 0 51 -13q33 -15 44 -53q3 -10 3 -22q0 -17 -7 -37q-12 -34 -27 -55t-41.5 -51.5t-29.5 -33.5q-38 -48 -101 -125t-105 -133t-93 -135q-35 -53 -64 -107q-54 -82 -61 -114q-12 -47 -17 -187q-2 -59 -18 -215q-12 -122 -16 -139q-12 -30 -52 -55q-34 -22 -75 -22 q-6 0 -13 1q-35 5 -53.5 35.5t-20.5 79.5v27q0 35 3 69q4 45 11.5 100.5t8.5 77.5q4 50 4 97q0 26 -1 51q-4 70 -25 127q-9 23 -36 65.5t-36 65.5q-19 53 -72 143.5t-69 126.5q-19 41 -68 137q-4 7 -18.5 35t-20 39.5t-12 32t-6.5 37.5z" />
<glyph unicode="Z" horiz-adv-x="1048" d="M72 31q-2 10 -2 22q0 61 47 176q23 52 86 148q12 18 35.5 61t35.5 62q42 74 88 137q5 7 21.5 29.5t22.5 31t21 29t22.5 31t20 29.5t21 33t19 32t19.5 35t18 35q6 11 20 36t22 40t16 39.5t9 47.5q-12 10 -22 16.5t-22.5 9.5t-19.5 4t-25 1.5t-27 1.5q-25 2 -79.5 3 t-80.5 3q-7 0 -26 -1t-38 -1t-38 2q-126 21 -140 93q-2 13 -2 27q0 37 18 74q24 51 58 52q35 4 73 4q10 0 20 1q31 1 67 -1q50 -2 71 -2h34h63q58 -2 80 -2h26q22 1 48.5 0.5t55 -1t57.5 -4t56.5 -7.5t52 -12t43 -18.5t30.5 -26.5t14 -35q1 -5 1 -11q0 -27 -13 -58 q-15 -38 -33.5 -64.5t-48 -66t-40.5 -56.5q-54 -82 -141 -242.5t-145 -243.5q-54 -77 -90 -145q-47 -90 -50 -123q42 -20 122 -19q24 0 52 1h17q20 0 53.5 -1t56.5 -1h19q96 0 125 -3h9q62 -3 77 -17l4 -5q21 -34 21 -73q1 -10 -1 -19q-6 -49 -39 -89.5t-71 -45.5 q-67 -8 -221 -13q-11 1 -69 -1q-34 -1 -59 -1h-28q-15 1 -36 1q-42 0 -109 -3q-57 -2 -96.5 -2t-61.5 2q-32 3 -61.5 22.5t-32.5 41.5z" />
<glyph unicode="[" horiz-adv-x="905" d="M74.5 130.5q-2.5 47.5 1.5 118.5t4 91q0 203 4 281q6 103 7 296.5t3 266.5q0 8 0.5 45.5t1 51.5t3 45t6 48t10.5 37.5t16 34.5q12 17 57.5 27t113.5 13t128 3.5t130 0t91 -0.5q49 5 89.5 1.5t62.5 -26.5q39 -49 27 -118t-52 -91q-50 -21 -218.5 -19.5t-229.5 -16.5 q-11 -90 -11 -373q-1 -38 -3 -141t-3 -159.5t-1.5 -132.5t1.5 -121.5t6 -64.5q34 -41 177 -41q11 0 68 2.5t90.5 2t73 -11t52.5 -32.5q25 -46 13.5 -95.5t-43.5 -63.5q-43 -20 -163 -23t-214 6q-24 2 -60 3t-59 1.5t-51.5 4.5t-47.5 11.5t-37 23t-28 38.5q-13 30 -15.5 77.5 z" />
<glyph unicode="\" horiz-adv-x="876" d="M10 1378q1 52 39.5 88t81.5 43q17 3 32 3t26.5 -2t22.5 -9t18 -12t16 -18.5t13.5 -20t12.5 -24.5t11 -25.5t11 -28.5q12 -31 19 -47q52 -119 118 -262.5t111 -238.5t130 -272t119 -249q9 -18 30.5 -59t32.5 -67.5t10 -45.5q-1 -37 -25 -69.5t-57.5 -49t-70.5 -22.5 t-64 10q-9 4 -18 16t-19.5 33.5t-17 36t-17.5 44t-14 36.5q-67 165 -142 329t-183.5 391.5t-151.5 319.5q-6 15 -26.5 54t-34 70t-13.5 48z" />
<glyph unicode="]" horiz-adv-x="790" d="M74 1317q-20 70 3 116t93 50q44 2 166 -0.5t168 -1.5q179 3 207 -66q24 -61 0 -244q-8 -61 -13 -245q-1 -68 -6 -184t-6 -165t2 -151q11 -280 -12 -371q-3 -11 -11 -19t-24 -15t-26.5 -10.5t-35 -10t-32.5 -8.5q-52 -17 -289 -23q-75 -4 -110 17t-48 69q-8 40 -4.5 64.5 t25 40.5t46.5 23.5t60.5 12t67 7t66 8t57.5 14.5q13 35 20 84t7.5 78.5t0.5 91.5q-1 117 5 288t10 216q22 222 8 248q-9 18 -49.5 21t-92.5 -1t-105 -5t-94.5 16t-53.5 55z" />
<glyph unicode="^" horiz-adv-x="983" d="M53 735q-28 53 39 160q104 181 152 252q8 12 26.5 44.5t33.5 58t39 58t46.5 54t52 37.5t58.5 16q37 0 68.5 -14t53.5 -33.5t45 -54t35.5 -60.5t32.5 -68.5t31 -62.5q38 -73 113 -209q65 -121 61 -176q-4 -48 -57 -68.5t-117 -4.5q-30 12 -58.5 52.5t-45.5 80.5t-42.5 107 t-39.5 97q-1 2 -7 16.5t-8.5 20t-9 18.5t-11 19t-11 14t-13.5 11.5t-14 3.5q-25 1 -56.5 -38.5t-64.5 -100.5t-35 -64q-6 -9 -23 -36t-26 -41t-25 -38t-27 -37.5t-24 -29t-24.5 -23t-20.5 -8.5q-99 -6 -127 47z" />
<glyph unicode="_" horiz-adv-x="1579" d="M86 -108q14 51 55 61q135 33 420 14q63 -2 168 -1t255.5 3t174.5 2q11 0 56.5 1t77.5 1.5t73.5 -3.5t67.5 -13q43 -14 61 -70t4 -112q-3 -13 -14.5 -23t-32 -17t-41.5 -12.5t-54 -8t-57 -4.5t-62.5 -2.5t-60 -1t-59.5 0t-51 0.5q-412 0 -672 4q-8 0 -50 -0.5t-63.5 0 t-52 2.5t-47.5 6q-58 15 -84 68.5t-12 104.5z" />
<glyph unicode="`" horiz-adv-x="686" d="M23 1452q3 48 33 72t69 30q26 3 46.5 -5t51 -30t45.5 -30q10 -5 109.5 -64.5t148.5 -85.5q9 -5 26.5 -14.5t25.5 -14t21 -13t19.5 -15t13 -15.5t9.5 -18q16 -55 -11.5 -107t-58.5 -61q-11 -3 -23.5 -3t-23 2t-22.5 7.5t-21 10t-21 12.5t-19 13t-18.5 13.5t-16.5 12.5 q-59 41 -151 92.5t-136 79.5q-56 37 -72 57q-26 32 -24 74z" />
<glyph unicode="a" d="M61 319q-5 25 -5 49q0 95 81 177q23 23 70 50t88 40q39 12 113 19t128 14.5t68 25.5q18 28 18 58q0 9 -2 19q-8 40 -32.5 71.5t-48.5 34.5q-65 -10 -129 -40q-64 -29 -110 -51q-42 -20 -72 -20h-5q-27 10 -38.5 27.5t-16.5 48.5q-4 29 6 53t33 42t43 29t51 25 q113 58 191 79q40 11 83 11q41 0 84 -10q56 -20 102 -86t58 -145q7 -37 9 -76v-20q0 -32 -4 -70q-4 -51 -6.5 -71t-12.5 -83l-10 -63q-48 -247 -76 -342q-12 -36 -47.5 -76.5t-69.5 -44.5q-9 -1 -20 -1q-22 1 -55 5q-50 8 -78 18q-75 29 -116 47.5t-93 53.5t-95 80 q-77 69 -84 122zM268 412q1 -42 25.5 -75t65.5 -53t79.5 -31t81.5 -17q70 18 70 231q-8 7 -21 10.5t-31 3.5h-31.5t-34 -2t-26.5 -2q-134 -7 -178 -65z" />
<glyph unicode="b" horiz-adv-x="935" d="M63 174q-2 16 -2 39q0 54 10 144q14 129 15 139q6 96 17 199t26 227t21 178q2 17 6.5 92.5t11.5 130t20 86.5q18 31 56 47q23 10 48 10q14 0 30 -4q40 -10 59 -49q9 -17 12.5 -40.5t2 -56t-3.5 -52.5t-8 -59t-7 -48q0 -4 -2.5 -29.5t-2.5 -30.5t-1 -25t-1 -28t0.5 -23.5 t2 -28.5t4.5 -27q25 -22 64 -29.5t95 -8.5t82 -7q121 -23 207.5 -96.5t92.5 -190.5v-12q0 -183 -201 -377q-109 -101 -238 -162q-51 -26 -143 -56q-79 -26 -122 -27q-7 0 -13 1q-35 4 -61.5 20.5t-41.5 42.5t-23.5 53t-11.5 58zM272 217q44 0 143 57t140 103q3 3 20.5 21 t24.5 25.5t23.5 25.5t24.5 29t19.5 28.5t17.5 31.5q6 12 10 28q3 12 3 24v6q-4 55 -60 92t-132 49q-38 6 -75 6t-73 -6q-59 -59 -67 -268z" />
<glyph unicode="c" horiz-adv-x="890" d="M56 504q9 80 38 151q57 119 160 191.5t235 85.5q28 3 60 3q53 0 117 -9q104 -15 116 -62q4 -18 4 -35q0 -37 -20 -68q-28 -46 -72 -52q-18 -4 -45 -4q-23 0 -51 3q-41 4 -64 4q-12 0 -20 -1q-110 -14 -188 -103q-58 -67 -59 -130q0 -21 7 -42q30 -92 106 -142 q57 -38 135 -38q25 0 52 4t65.5 14t62 15t49.5 4.5t45 -16.5t32 -50q6 -15 6 -30q1 -32 -29 -61q-44 -43 -127 -67q-77 -22 -163 -22h-14q-157 3 -265 80t-163 219q-13 52 -13 106q0 26 3 52z" />
<glyph unicode="d" horiz-adv-x="970" d="M52 514q10 78 42 135q75 146 207 221q136 72 350 72q29 22 43 85.5t15 130t7 139.5t21 106q9 19 49 28q21 5 39 5q15 0 27 -4q21 -3 36 -18t21 -40.5t9 -51.5q2 -14 2 -33q0 -15 -2 -32q-2 -38 -4.5 -64.5t-7.5 -66t-7 -55.5q-5 -68 -20.5 -235.5t-20.5 -249.5 q-2 -68 -2 -130q0 -40 1 -80q1 -43 0 -89q-1 -56 -1 -116q-2 -108 -12 -179q-9 -66 -52 -95q-28 -19 -69 -19q-21 0 -45 5q-27 13 -44.5 74.5t-25.5 73.5q-39 9 -105.5 16.5t-118.5 18.5t-95 34q-74 40 -141 110t-87 142q-12 55 -12 107q0 28 3 55zM273 461q3 -60 38 -107 q47 -60 141 -100q66 -28 120 -28q23 0 44 5q9 20 13.5 63.5t7 101.5t4.5 75q7 80 7 134q0 61 -9 89q-11 14 -29 18q-12 3 -23 4q-5 0 -10 -1q-16 -2 -51 -7.5t-61 -7.5q-55 -5 -101 -42t-70 -87q-21 -44 -21 -97v-13z" />
<glyph unicode="e" horiz-adv-x="917" d="M92 362q-19 88 -19 163q0 140 68 233q36 68 99 122.5t125 73.5q79 29 150 29q65 1 121 -23q120 -50 185 -202q12 -22 27.5 -70.5t15.5 -73.5v-9q0 -39 -24 -77q-26 -44 -66 -57q-31 -11 -105 -42t-128 -46q-130 -37 -197 -59q11 -47 47.5 -68.5t112.5 -36.5q24 -5 47 -5 t43 4q44 10 68.5 25t57.5 21t56 -10q30 -35 30 -72q0 -42 -30 -67q-78 -58 -204 -73q-34 -4 -64 -4q-83 0 -141 30q-124 51 -179 109.5t-96 184.5zM296 614q-5 -30 -5 -51q0 -27 8 -41q4 -1 10 -1q17 0 47 7q41 9 96 23.5t80 19.5q38 8 74 31.5t43 48.5q-26 75 -74 107 q-34 22 -73 23q-16 0 -34 -4q-59 -13 -124 -66q-36 -30 -48 -97z" />
<glyph unicode="f" horiz-adv-x="966" d="M21 587v6q0 20 6 32q6 35 42 57.5t78 24.5q13 -1 22.5 0t12.5 -1t6.5 0t4 2.5t4.5 6.5l8 12q8 11 10 42t0.5 60t1.5 54q13 132 31.5 219.5t56.5 177.5q50 120 115.5 190.5t167.5 92.5q34 7 64 7q60 0 108 -28q72 -44 117 -133q29 -57 37 -120q4 -24 4 -42q0 -31 -9 -47 q-11 -41 -53 -57q-23 -9 -46 -9q-17 0 -34 5q-11 1 -20.5 6.5t-18.5 20.5t-13 22t-13.5 30t-10.5 25q-3 7 -10.5 27t-13 32.5t-15 27.5t-22.5 22.5t-29 7.5q-26 0 -48 -19.5t-35.5 -45t-26.5 -68t-19 -69.5t-14 -69l-1.5 -7.5t-1 -6t-1.5 -6.5q-7 -37 -14 -109 q-6 -63 -6 -132v-20q1 -79 16 -103q25 -11 68 -11q9 0 20 1h18q48 0 97 -13q33 -11 49.5 -40.5t15 -60t-17.5 -56.5t-43 -31q-22 -4 -102 -7t-115 -22q-11 -22 -11 -138v-47q1 -21 1 -40q0 -128 -15 -181q-14 -39 -58 -53q-24 -8 -46 -8q-21 0 -42 6q-42 14 -51 47 q-11 43 -11 149q0 30 1 66t1 66q0 108 -11 155q-31 8 -57 9.5t-37 1t-28.5 9.5t-43.5 36q-19 20 -20 44z" />
<glyph unicode="g" horiz-adv-x="894" d="M45 -307q12 50 43 65q22 11 45 11q10 0 21 -2q7 -1 72 -29q56 -25 103 -25h13q29 1 70 30t63 56q46 71 67 137q19 57 19 125v19q-30 5 -89 5q-6 0 -12 -1h-25q-48 0 -66 2q-107 9 -201 84q-64 51 -92 139q-22 70 -22 145q0 19 1 38q7 94 43 182q58 147 208 236 q131 77 264 77q21 0 42 -2q47 -5 112 -20t85 -35q20 -18 25 -80q4 -35 4 -66q0 -23 -2 -43q-3 -54 -11.5 -211t-15.5 -245q-4 -35 -9 -104.5t-11 -121t-17 -96.5q-18 -72 -36.5 -119t-51.5 -108q-37 -67 -102 -125.5t-136 -85.5q-62 -24 -126 -24q-83 0 -170 40 q-53 24 -84 67q-23 32 -23 64q0 11 2 21zM266 466q-1 -9 -1 -18q0 -53 33 -96q39 -51 122 -67q41 -9 68 -10h5q25 0 44 9q21 11 33 29t20.5 55t12 81t5.5 114q0 172 -8 205q-56 12 -91 12q-21 0 -34 -4q-48 -16 -97 -66.5t-77.5 -115t-34.5 -128.5z" />
<glyph unicode="h" horiz-adv-x="876" d="M68 92.5q0 51.5 6 112.5q11 83 34 233.5t37 268.5q7 78 22 192t21 174q2 18 4.5 58.5t5 64.5t7 59.5t11 58t16.5 46t25 36.5t34 17q14 3 28 3q21 0 43 -7q36 -12 52 -37q14 -23 16.5 -54.5t-2 -56t-11.5 -58t-9 -48.5q-2 -21 -7.5 -57t-9.5 -63.5t-7 -55.5t-2 -43t7 -14 q34 1 70.5 17.5t62 34.5t63.5 28q21 6 43 6q18 0 36 -4q63 -13 97.5 -100t41.5 -206q3 -4 3 -66q0 -44 -2 -116q-4 -175 -3 -199v-25q1 -64 1 -119t-11 -103t-33 -70q-30 -28 -72 -28h-15q-52 6 -71 36q-10 16 -10 72q0 5 -1 11q0 55 5 161q5 116 6 194q0 7 -0.5 63.5 t-1.5 102t-8 91.5t-19 57q-79 0 -145 -66q-54 -48 -84 -133q-19 -83 -31.5 -217t-19.5 -186q-1 -7 -2 -20q-3 -39 -5.5 -58t-11.5 -47.5t-22 -40.5t-38 -22q-19 -7 -44 -8q-8 0 -16 1q-42 6 -63 42t-21 87.5z" />
<glyph unicode="i" horiz-adv-x="407" d="M38 152q0 14 6 50t7 46q9 81 27.5 230.5t23.5 193.5q29 216 144 225q4 1 9 1q24 0 55 -17q37 -20 44 -56q4 -4 0.5 -24t-6 -31.5t-9 -36.5t-9.5 -39q-42 -214 -49 -364q-1 -17 -2.5 -77.5t-4.5 -98t-12 -56.5q-23 -45 -95 -64q-25 -7 -46 -7q-39 0 -64 24q-10 11 -15 25 q-5 13 -5 34q0 14 1 42zM166 1112v11q0 39 26 73q30 40 72 49q16 3 31 3q35 0 61 -18q39 -27 39 -83q1 -57 -53 -90q-37 -23 -77 -23q-17 0 -35 5q-58 15 -64 73z" />
<glyph unicode="j" horiz-adv-x="460" d="M-305 -508q2 39 41 61.5t98 35t68 16.5q27 13 50 37t39 48.5t31 67t23.5 71.5t18.5 83.5t14 82t12.5 87.5t11.5 80t10 72t9.5 73t7.5 64.5t7 71.5t4.5 67t2.5 76q4 107 17 202q1 4 5 32.5t6 37.5t9 32t15 33.5t23 22t34 15.5q18 5 35 5q21 0 41 -8q37 -14 49 -45 q12 -28 12 -63q0 -30 -7 -71q-6 -44 -7 -54q-13 -142 -21 -276q-5 -72 -23 -211.5t-22 -171.5q-17 -133 -28 -185q-4 -18 -16.5 -89.5t-24.5 -102.5q-18 -43 -64.5 -109.5t-79.5 -93.5q-52 -41 -90 -61q-55 -28 -110 -39q-24 -6 -48 -6q-46 0 -90 20q-63 30 -63 87v5z M178 1308q-2 12 -2 24q0 32 18 64q26 44 68 54q24 8 47 8q19 0 37 -6q40 -12 49 -49q3 -13 3 -26q0 -48 -46 -88q-44 -39 -92 -39q-13 0 -27 3q-46 11 -55 55z" />
<glyph unicode="k" horiz-adv-x="847" d="M72 183v39q0 40 1 85q1 18 1 27q25 566 76 1016q4 38 7 58.5t8.5 48.5t13 43t19 31.5t28 26.5t38.5 17q17 4 33 4q13 -1 26 -3q28 -6 44 -24v-32q0 -74 -7 -163q-9 -109 -24.5 -241t-20.5 -203q-6 -76 -6 -131q0 -33 2 -57q16 6 37.5 18.5t49.5 30t32 19.5q22 14 129 88 q8 6 26.5 21.5t28.5 22.5t27.5 15.5t31.5 7.5t33 -9t39 -26q22 -20 24 -43.5t-10.5 -45t-35 -44.5t-46.5 -41.5t-50 -37.5q-10 -7 -15 -11l-33 -22t-39.5 -27.5t-27 -26.5t-16.5 -32q-3 -18 4 -31t26.5 -32t26.5 -27q77 -88 186 -197q4 -4 17.5 -16.5t19.5 -18t16.5 -17.5 t15.5 -21.5t10.5 -22.5t6.5 -27q1 -7 1 -14q0 -51 -32 -85q-25 -26 -65 -26q-19 0 -41 6q-31 13 -79 60t-104 108.5t-83 85.5q-1 1 -12.5 13.5t-26.5 28.5t-32 33.5t-33 31.5t-25 18q0 -198 -17 -272q-11 -60 -81 -78q-20 -5 -37 -5q-36 1 -56 21q-30 30 -30 85z" />
<glyph unicode="l" horiz-adv-x="425" d="M48 107q4 51 10 97.5t15 100t11 74.5q7 65 20.5 174t20.5 172t16.5 155.5t16.5 178.5q2 27 5.5 87t6 94.5t11 84.5t21.5 80t37.5 57t57.5 37q18 6 33 6q49 0 61 -62q6 -32 6 -67q0 -51 -13 -106q-2 -15 -3 -23t-2 -20t-2 -21q-13 -181 -43.5 -486.5t-38.5 -391.5 q-21 -206 -43 -265q-20 -51 -75 -83q-30 -17 -55 -17q-22 0 -42 12q-20 11 -28 46q-5 24 -5 55q0 15 1 31z" />
<glyph unicode="m" horiz-adv-x="1372" d="M69 150q-1 12 -1 25q0 42 8 89q2 22 7 112t11 142q13 142 19 232q0 9 1 28q1 40 2 59.5t4 50.5t8.5 48.5t15 38.5t24.5 35t35 24q14 7 36 7h10q29 -2 46 -15q37 -28 39 -116v-25q0 -75 -10 -157q-8 -67 -8 -96q0 -12 1 -18q8 5 21 19t22 26t25.5 34.5t20.5 27.5 q5 7 23.5 34t28 40t29 37t34 38t34 29t37.5 23q36 15 65.5 16.5t51 -11t38.5 -32.5t28 -51.5t18.5 -63.5t11.5 -73t6 -76t2 -76q87 81 115 121q15 22 48.5 66t43.5 57q5 6 17.5 24.5t20.5 30t23 29t27 28.5t29 22.5t33 16t35.5 4.5t39.5 -8q19 -8 31 -28t16.5 -52t6.5 -62 q1 -11 1 -24q0 -22 -2 -50q-4 -44 -7 -71t-8.5 -69t-6.5 -53q-4 -36 -19 -213q-1 -14 -4 -52.5t-5.5 -63t-7.5 -54t-11 -45.5q-13 -32 -43.5 -52.5t-63.5 -23.5h-8q-29 1 -54 19q-29 22 -38 65q-5 26 -4.5 62t2 56.5t7.5 68t7 52.5q2 12 8.5 52t8.5 60t2.5 53.5t-4.5 62.5 q-48 -24 -82 -95q-11 -18 -42 -74t-50.5 -88.5t-50 -75t-58.5 -69.5q-23 -22 -55.5 -35.5t-64 -15t-56.5 18.5t-31 59q-2 3 -0.5 23.5t2.5 30t5 33t5 32.5q4 31 14 85.5t15 88.5q4 29 4 64v14q-1 44 -14 75q-21 -4 -39.5 -19.5t-27.5 -29t-26 -44t-22 -38.5 q-9 -15 -40.5 -65.5t-45 -73.5t-35 -66.5t-37.5 -85.5q-51 -125 -92 -147q-24 -13 -66 -15t-59 9q-28 17 -31 70z" />
<glyph unicode="n" horiz-adv-x="944" d="M74 127q2 52 7 114q2 15 3 23q5 49 15 131t16.5 150.5t9.5 132.5q0 10 1 39t1.5 42t2 39t4.5 39.5t7.5 34.5t11 32t15.5 24t21.5 20t27.5 10q14 3 26 3q28 -1 46 -15q26 -20 33 -63.5t7 -89.5v-103t7 -90q64 61 86 94q75 114 172 187q26 19 45.5 30.5t49.5 23.5t60 9 t58 -22q19 -11 39 -59t24 -97q2 -18 2 -42q0 -80 -18 -229q-24 -193 -25 -253q0 -12 2 -37.5t2 -43.5t-4 -28q-13 -34 -55 -55q-33 -16 -69 -16q-11 0 -21 1q-46 6 -68 41q-1 26 -1 55q0 107 20 255q1 9 4 34.5t4 33.5t3.5 28.5t2.5 30t1 27.5t0.5 31t-2 29.5t-3.5 33.5 q-18 -2 -34.5 -11.5t-32.5 -27.5t-26.5 -31t-27.5 -38.5t-24 -35.5q-47 -62 -67.5 -92.5t-42.5 -72t-40 -70.5q-7 -13 -40.5 -84t-62.5 -116.5t-54 -49.5q-22 -5 -39 -5q-34 0 -54 19q-26 26 -27 72q1 4 1 8z" />
<glyph unicode="o" horiz-adv-x="956" d="M50 524q6 148 77 252q4 6 16 25t14.5 23t12 18t14 18.5t14 15.5t17.5 18.5t20 18t27 21.5q43 32 73 47.5t75 22.5q51 9 99 9q54 1 103 -11q93 -22 156.5 -76.5t100.5 -136t40 -179.5q4 -26 3 -52q0 -90 -45 -176q-59 -112 -165 -189q-114 -75 -244 -75q-26 0 -52 3 q-75 7 -155.5 48t-127.5 89q-73 110 -73 246v20zM272 473q12 -80 82 -126q45 -30 102 -30q31 0 64 9q52 15 104.5 69t65.5 119q6 31 6 61q0 31 -6 62q-14 60 -46.5 101.5t-81.5 63.5q-33 15 -68 14q-16 0 -33 -3q-54 -10 -102 -67q-49 -58 -73 -134q-17 -54 -17 -101 q0 -20 3 -38z" />
<glyph unicode="p" horiz-adv-x="1011" d="M52 -224q1 20 4 55.5t3 53.5q1 34 17 418q22 326 76 580q42 92 245 102q89 -4 146 -11t122 -25t118 -51.5t102 -86.5q67 -81 79 -204q3 -22 3 -43q0 -99 -49 -189q-37 -67 -115.5 -139t-159.5 -111q-47 -32 -98.5 -45t-125.5 -19t-114 -14q-7 -24 -10.5 -57t-6 -77 t-5.5 -69q-5 -56 -24.5 -99t-60.5 -67q-24 -14 -54 -14q-19 0 -40 6t-33 20.5t-15 39.5q-4 22 -4 40v6zM297 248h21q123 0 232 52q119 58 163 159q24 59 24 108q0 37 -13 68q-30 74 -110 113q-66 33 -144 33q-16 0 -32 -1t-27.5 -2t-21.5 -4.5t-16 -5.5t-11 -9.5t-7.5 -10.5 t-5.5 -15.5t-4 -18t-4 -24t-5 -28.5q-40 -240 -40 -369q0 -25 1 -45z" />
<glyph unicode="q" d="M31 535q11 112 71 192q49 67 114.5 105t178.5 79q148 57 281 62h18q120 0 137 -62q1 -18 1 -30v-16q-2 -15 -12 -60t-13 -62q-12 -80 -30 -258t-32 -268q-33 -321 -34 -336q-10 -47 -23.5 -158t-19.5 -143q-15 -60 -66 -81q-22 -9 -43 -9q-31 0 -63 18q-13 7 -22 18 t-13 27t-6 31t-0.5 38.5t3 39.5t5 44t4.5 44q3 26 9 67t9 64t2 49.5t-10 44.5q-7 17 -28 34t-41.5 27t-56.5 27t-52 25q-33 16 -81.5 52t-70.5 55q-61 41 -94 135q-25 70 -25 150q0 27 3 55zM258 495q-1 -6 -1 -11q0 -74 44 -128q30 -37 90.5 -64.5t124.5 -41.5 q31 123 43 246q4 36 12 87.5t13 89.5q3 26 3 50q0 10 -1 20q-77 -2 -158.5 -31t-112.5 -67q-54 -69 -57 -150z" />
<glyph unicode="r" horiz-adv-x="841" d="M76 78q-2 8 -2 24q0 30 8 91q6 68 17.5 293t21.5 317q2 15 5 43t4.5 39.5t4.5 33t6 30t8 24t10.5 21.5t14 15t19 12.5t23.5 6.5t30 4h8q45 0 74 -31q8 -25 11 -52.5t2.5 -44.5t-3.5 -51.5t-4 -47.5q23 -7 53 5t66 35t53 29q3 1 17 6t19.5 7t19.5 7t21.5 7t21.5 6t23 5.5 t22.5 4t23.5 3t22 0t23 -1.5q34 -3 64 -22.5t36 -47.5q1 -10 1 -19q0 -42 -29 -73q-36 -37 -76 -47q-108 -25 -166 -45q-64 -19 -143.5 -73.5t-79.5 -80.5q-1 -24 -4 -122.5t-8.5 -176t-16.5 -115.5q-15 -48 -43 -60q-23 -9 -68 -10q-12 0 -26 1q-24 2 -50.5 17.5 t-33.5 33.5z" />
<glyph unicode="s" horiz-adv-x="804" d="M86 176q3 13 18 28t31 21q26 10 53 9t50 -11t49.5 -15.5t50.5 -5.5t53 19.5t58 59.5q3 25 -8.5 50t-36.5 47.5t-46 38.5t-53 36.5t-41 27.5q-45 33 -74 58t-57 66t-31 81q-1 11 -1 23q0 37 7 77q9 54 29 80q97 117 287 138h9q17 0 62 -4q60 -6 87 -17q160 -64 170 -156 q1 -6 1 -11q0 -29 -18 -53q-21 -29 -43 -42q-16 -8 -30.5 -8.5t-37.5 9t-40 19t-38 21.5t-30 16q-54 14 -92 14q-23 0 -40 -4q-47 -14 -50 -63q-1 -20 15.5 -42t35.5 -36t43.5 -30t26.5 -17q1 -1 32 -25t37.5 -29.5t33.5 -29.5t35.5 -36t27 -37t25 -44.5t13 -46.5t5.5 -55 q-6 -156 -150 -252q-42 -29 -116 -40q-35 -5 -66 -5q-34 0 -62 6q-130 28 -164 60q-24 22 -24 68q0 19 4 42z" />
<glyph unicode="t" horiz-adv-x="919" d="M25 819q5 29 27.5 56.5t53.5 39.5q10 2 104.5 10t113.5 21q10 7 18 24.5t13.5 42.5t9 45.5t7.5 47.5t5 35q3 19 7 59.5t7.5 61t13.5 51t25.5 46.5t43.5 29t67 15q8 1 14 1q20 0 34 -5q18 -6 26.5 -14t8.5 -27t-2.5 -32.5t-9.5 -41.5q-4 -32 -13.5 -74t-14.5 -66 q-6 -24 -8 -72v-19q0 -37 8 -72q18 -14 66 -14t100 7q23 3 44 3q27 0 51 -5q43 -9 50 -42q3 -15 3 -29q0 -25 -10 -51q-16 -40 -48 -57q-31 -16 -140.5 -25.5t-128.5 -26.5q-11 -9 -20.5 -39t-15.5 -72t-10.5 -79t-8 -76t-4.5 -47q-8 -84 -31 -240q-2 -10 -8.5 -56t-14 -81 t-20.5 -77t-35 -67.5t-51 -29.5q-10 -1 -20 -1q-26 0 -55 8q-40 12 -50 34q-2 6 -2 17q0 17 5 49q8 52 20.5 109.5t13.5 66.5q31 191 33 229q5 35 8.5 76.5t7.5 111t6 103.5q-15 18 -49 21q-11 1 -23 1q-23 0 -46 -4q-35 -6 -72 -7.5t-57 7.5q-30 16 -42 54q-8 23 -8 43 q0 13 3 24z" />
<glyph unicode="u" horiz-adv-x="876" d="M74 600q2 48 5.5 78.5t11 70.5t21 64.5t34.5 47.5t54 33q27 8 61 7h15q9 -6 16 -13t11 -17l7 -17.5t4 -21t1.5 -20.5t-1 -23.5t-2 -21.5t-3 -23t-2.5 -21q-2 -19 -7 -62q-8 -60 -11 -94q-3 -33 -5 -93v-20q0 -45 8 -73q10 -33 26 -67q16 -35 52 -45q17 -5 38 -5 q22 0 49 6q29 4 56 37.5t45 82t30 99t16 95.5q2 26 2 109v61v26q0 111 8 127q8 29 39 48t62 21h8q26 0 45 -9q61 -36 61 -269v-36q-3 -143 -38 -259q-15 -52 -32 -93.5t-40 -81t-51 -67t-64.5 -50.5t-80 -32t-97.5 -12q-11 -1 -23 -1q-45 0 -96 10q-92 22 -154 83.5 t-75 168.5q-6 56 -6 148q0 56 2 124z" />
<glyph unicode="v" horiz-adv-x="931" d="M52 818q2 26 7 40t11 23q28 37 86 47q13 2 25 3q42 0 71 -28q8 -9 15.5 -26t14 -41.5t11 -43t10.5 -46t8 -35.5q53 -212 74 -365q33 54 97 186.5t100 186.5q13 26 38 85.5t47.5 95.5t53.5 58q31 24 65 24q16 0 32 -5q52 -15 69 -72q7 -22 8 -43v-8q0 -16 -3 -29 q-4 -16 -13 -35t-18 -32t-21.5 -32.5t-20.5 -33.5q-31 -53 -111 -202t-157 -285q-57 -98 -89 -133q-53 -58 -105 -58l-29 4q-22 5 -37 18.5t-26 40t-16.5 48t-14.5 61.5q-1 4 -1.5 7t-1.5 6q-20 78 -91.5 292.5t-78.5 272.5q-9 22 -9 44v10z" />
<glyph unicode="w" horiz-adv-x="1392" d="M74 768q4 108 28 139q28 35 84 35h10q63 -4 87 -41q13 -19 13 -83v-14q0 -58 -4 -128q-3 -63 -3 -91v-12q16 -207 35 -268q8 -25 18 -37q38 11 75.5 65.5t61.5 116t52 120.5t49 75q39 19 70 19q37 0 61 -29q25 -32 52.5 -126.5t51.5 -171t47 -79.5h3q35 0 105 107 q74 112 99 210q13 52 34 194t38 179q29 42 93 48q6 1 11 0q55 0 90 -48q1 -27 1 -53q0 -225 -91 -445q-102 -246 -248 -346q-100 -65 -174 -65q-53 0 -92 33q-19 16 -64.5 104.5t-52.5 91.5q-3 2 -15 -12.5t-28.5 -37.5t-34 -47.5t-35.5 -47t-30 -31.5q-43 -32 -99 -44 q-25 -6 -50 -5l-62 9q-56 16 -86 63q-10 15 -18.5 33.5t-15.5 43.5t-12 43.5t-11 51t-9 48.5t-8.5 53t-7.5 48q-8 60 -15 142q-5 55 -5 122q1 32 2 68z" />
<glyph unicode="x" horiz-adv-x="915" d="M36 116q0 4 -1 8q0 8 1 16q1 10 7 24t9.5 21.5t13 22t13 19t15 18.5t12.5 15q20 25 46 50t55 59q12 13 35 37t35.5 37.5t25.5 30t19 26.5q-5 11 -58 71.5t-105.5 131.5t-62.5 114q-8 35 1.5 63t29.5 43t43 23q16 5 31 5q7 1 13 -1q22 -4 32 -16q31 -15 106 -135 q10 -13 57.5 -75.5t63.5 -78.5q11 5 42 42.5t69.5 84.5t80.5 92t86 69q29 16 52 16q13 0 24 -5q21 -9 42 -26t24 -39v-7q0 -38 -37 -96q-41 -64 -92.5 -118t-101.5 -106.5t-58 -66.5q32 -75 146 -217q4 -5 23.5 -30t27.5 -36t21 -31t20 -36.5t10 -32.5q1 -9 1 -18 q-1 -44 -39 -72q-26 -18 -54 -18q-24 0 -49 12q-33 17 -71 58t-66.5 83t-66 89.5t-67.5 72.5q-34 -15 -70.5 -56.5t-63.5 -82.5t-66 -79t-78 -48q-20 -6 -38 -6q-21 0 -38 8q-32 15 -45 45q-5 12 -5 26z" />
<glyph unicode="y" horiz-adv-x="921" d="M57 829q9 73 65 109q29 20 59 20q28 0 57 -16q7 -4 13 -10t11 -16t8.5 -19t8 -23.5t7 -24t7 -27t6.5 -25.5q111 -343 213 -478q15 25 53.5 162.5t83.5 276.5t78 178q18 22 47 34q14 5 29 5q16 0 33 -6q33 -12 51 -54q6 -14 6 -40q0 -98 -87 -367q-110 -342 -226 -549 q-20 -34 -47 -91t-52 -101t-57 -80q-1 -1 -14.5 -17.5t-23.5 -28t-29.5 -30.5t-36 -31.5t-40 -24t-44.5 -15.5q-7 -1 -16 -1q-14 0 -28 3q-25 6 -47 22q-31 22 -36.5 48t11.5 51t37 45.5t46 42.5t33 30q49 55 88.5 133t56.5 152q3 28 -11.5 58t-39.5 65.5t-35 56.5 q-20 43 -85 160t-93 200q-4 11 -20.5 50t-23.5 60t-13 54q-5 20 -5 38q0 11 2 21z" />
<glyph unicode="z" horiz-adv-x="839" d="M57 209q-1 8 -1 16q0 19 4 37q6 28 15.5 47.5t29 47t29.5 39t32 36.5t24 27q52 61 144.5 154t140.5 130q-26 9 -111 9h-18h-18q-88 0 -160 8q-78 10 -86 47q-5 41 0.5 61t28.5 35q42 29 174 36q62 3 122 3q69 0 136 -4q166 0 202 -61q3 -32 4.5 -54t-7.5 -44.5t-17 -36 t-23.5 -30t-27.5 -27t-29.5 -25.5t-28.5 -27q-21 -22 -89.5 -86t-121 -120t-75.5 -97q9 -5 25 -9t40 -6t42 -3t48.5 -2.5t42.5 -2.5q25 0 59.5 1t53.5 1.5t42.5 -2t36 -10t23.5 -22.5t15 -39q1 -10 1 -19q-1 -45 -33 -67q-40 -28 -101 -29q-30 -1 -59 -1h-43 q-49 2 -122.5 6.5t-109.5 6.5q-11 1 -40.5 2.5t-44.5 2.5t-41 4t-40.5 8t-31 12.5t-25.5 19.5t-11 27z" />
<glyph unicode="{" horiz-adv-x="817" d="M43 676q-3 49 24.5 73.5t90.5 47.5q29 10 71.5 20.5t77.5 26.5q-12 34 -35.5 57.5t-48.5 38t-49.5 29.5t-44.5 41t-29 63q-16 70 2 143t60.5 133.5t91.5 108t102 80.5q40 27 140 58t159 30q41 -1 76 -23.5t43 -50.5q10 -38 -17.5 -84t-60.5 -61q-31 -15 -78 -11.5 t-81 -0.5q-70 -14 -140.5 -81t-66.5 -126q3 -38 29 -73.5t60 -64t67.5 -58.5t55 -69.5t19.5 -84.5q-1 -29 -39 -76.5t-76 -79.5l-38 -33q5 -3 14.5 -8.5t32.5 -21.5t41 -31.5t33 -36t16 -37.5q3 -40 -16.5 -85.5t-37.5 -70.5t-51 -65q-11 -13 -42 -45t-49.5 -53t-33.5 -48.5 t-12 -48.5q12 -89 215 -80q23 1 55 6t48.5 7t33 -3t25.5 -22q28 -49 -0.5 -108t-77.5 -70q-60 -17 -144.5 -9.5t-163 28t-141.5 58t-81 81.5q-18 41 -15 86t15 80.5t30 62.5q13 20 50.5 56t70.5 66.5t58 66.5t22 61q-4 25 -24 36.5t-54.5 18t-44.5 10.5q-70 30 -102 61.5 t-35 84.5z" />
<glyph unicode="|" horiz-adv-x="411" d="M49 -98q0 59 8.5 185t8.5 175q0 231 20 651q3 48 5.5 176t6.5 199q2 31 2.5 81.5t1.5 82.5t5 74t13 69t23.5 53.5t39.5 40.5t59 17q40 4 64 -5.5t50 -35.5q2 -185 -2 -410t-10 -391t-17 -440t-16 -424q-1 -30 -1.5 -75.5t-1.5 -70t-4.5 -57.5t-10.5 -61 q-12 -41 -54.5 -71.5t-93.5 -27.5t-79 52q-17 33 -17 213z" />
<glyph unicode="}" horiz-adv-x="731" d="M33 1403q0 22 7.5 42.5t24.5 40.5t52.5 30t83.5 4q22 -2 48 -9.5t60 -20.5t39 -15q57 -22 109.5 -51t100.5 -76.5t54 -94.5q2 -12 2 -24t-1.5 -25t-4 -24t-7 -25t-8 -24t-10 -24t-10 -22.5t-10.5 -23.5t-10 -21q-5 -12 -18.5 -38.5t-20.5 -42t-12.5 -37.5t-3.5 -39 q3 -41 21 -62t50 -35q120 -45 127 -96q10 -78 -98 -137q-23 -12 -62 -23.5t-60 -23t-25 -35.5q-3 -17 19 -49.5t50.5 -66t53 -81.5t24.5 -92q0 -214 -260 -319q-24 -11 -56.5 -14.5t-65 1.5t-56 26.5t-25.5 57.5q-3 45 21 70.5t75 44.5q8 3 32.5 11.5t36.5 13t32 14t30 18.5 t18.5 23.5t8.5 30.5q0 70 -92 139q-97 69 -111 152q-7 42 4 80.5t35.5 66.5t52 47.5t58.5 32.5q-89 126 -80 205q3 33 23.5 73t42.5 71.5t37.5 72t11.5 76.5q-4 32 -33 58.5t-66 41.5q-23 10 -69.5 18t-80 14.5t-61 30t-28.5 64.5z" />
<glyph unicode="~" horiz-adv-x="1366" d="M54 534q4 31 22 52q55 66 149 127q178 113 336 118q45 1 77.5 -15.5t50.5 -44t32.5 -61t27.5 -66.5t30 -59.5t46 -42t70 -12.5q35 2 70 23.5t60 50t52.5 60t48.5 53.5t48 30t51 -10q52 -35 57.5 -90t-28.5 -114.5t-97 -118.5q-24 -21 -44.5 -37.5t-50.5 -36.5t-57.5 -31 t-65.5 -22t-73.5 -10t-81.5 6q-34 6 -74.5 29.5t-62.5 47.5q-27 27 -52 78t-46.5 86.5t-48.5 40.5q-17 4 -41.5 -3.5t-40 -15.5t-46.5 -26t-38 -22q-22 -11 -64.5 -37.5t-74 -40.5t-58.5 -14q-28 1 -49 21.5t-29.5 48t-4.5 58.5z" />
<glyph unicode="&#xa1;" horiz-adv-x="512" d="M41.5 43q-1.5 32 5 60t16 64t11.5 52q6 45 26 216t33 261q1 10 4.5 34.5t5.5 36.5t5.5 32.5t6.5 33t8 27.5t10.5 26.5t12.5 20.5q23 31 72.5 52t99 11t62.5 -61q9 -20 3.5 -61t-13 -70t-20 -76.5t-17.5 -80.5q-2 -11 -21.5 -127t-25.5 -164q-4 -28 -6.5 -72t-4.5 -74.5 t-9 -67.5t-18 -62t-32.5 -47t-52.5 -32q-27 -12 -78 -9.5t-68 26.5q-14 19 -15.5 51zM221.5 1366.5q-5.5 37.5 20.5 83.5q21 33 64 47t84.5 8t72 -34t29.5 -72q-1 -27 -12.5 -46.5t-35 -30.5t-44 -16.5t-52.5 -11.5q-50 -9 -85.5 13t-41 59.5z" />
<glyph unicode="&#xa2;" horiz-adv-x="962" d="M68.5 527.5q16.5 107.5 85.5 185.5q53 58 114 100t176 82q5 14 17 72t22 75q10 16 45.5 34.5t80.5 18t67 -39.5q11 -28 7.5 -51.5t-10.5 -61t-5 -57.5q1 -8 48 -16t96.5 -27.5t57.5 -55.5q24 -95 -45 -129q-60 -24 -180 -24q-6 -29 -12 -127t-12 -137q14 -10 60 -7.5 t94.5 11t92 -0.5t54.5 -42q13 -46 -19.5 -107t-81.5 -71q-26 -7 -96 -10t-100 -11h-2q-23 -8 -35 -32.5t-20.5 -60t-18.5 -52.5q-17 -30 -64 -37t-90 6q-27 6 -31 31.5t1.5 52.5t-11.5 51q-17 22 -75.5 46t-67.5 30q-82 55 -120.5 154.5t-22 207zM306 472q1 -36 26.5 -63.5 t68.5 -31.5q34 87 29 241q-39 4 -70 -18t-43 -57t-11 -71z" />
<glyph unicode="&#xa3;" horiz-adv-x="1271" d="M84 674q3 38 29.5 58.5t57 23.5t59 9t34.5 17q4 10 -9 78.5t-29.5 152t-18.5 115.5q-4 99 33.5 175t104 120.5t147 66.5t170.5 21q93 -1 167.5 -29t122.5 -68.5t105 -108.5q101 -116 94 -179q-6 -40 -58 -69t-98 -23q-25 4 -48 27t-42 53t-61 76.5t-96 85.5 q-53 38 -151 27t-124 -54q-23 -53 -17.5 -150.5t25 -195t33.5 -112.5q8 -7 41 -2.5t83 6.5t97 1t83 -19t40 -54q6 -53 -18 -83t-76 -44q-16 -5 -69.5 -8.5t-98 -12.5t-59.5 -28q-19 -25 -24.5 -59t-3.5 -92.5t1 -80.5q38 -13 95 -22t81 -19q39 -18 70.5 -41.5t50 -42.5 t39.5 -37t51.5 -29.5t73.5 -14.5q13 -1 85.5 9t90.5 -1q15 -4 34.5 -34.5t16.5 -64.5q-4 -42 -41 -73t-70 -39q-201 -54 -335 35q-22 14 -68.5 51t-86.5 63.5t-71 32.5q-47 11 -96 -2t-97 -32t-81 -19q-44 0 -88 30.5t-45 67.5q0 29 24.5 59t57.5 64.5t45 65.5q19 42 26 119 t-2 89q-10 21 -61.5 29.5t-61.5 13.5q-25 12 -44.5 43t-18.5 58z" />
<glyph unicode="&#xa5;" horiz-adv-x="1271" d="M84 600q-5 54 0.5 84.5t26.5 52.5q21 24 60 33t73.5 7t82.5 -6.5t68 -4.5q-21 40 -94.5 210.5t-124.5 244.5q-5 9 -18 31t-19.5 35t-13 35t-6.5 44q3 59 54.5 103.5t109.5 23.5q35 -11 86 -121q3 -5 4 -8q8 -16 61.5 -125t87.5 -174q58 -109 80 -109q12 -1 31 14.5 t41.5 41.5t40.5 49t37 48.5t22 29.5q26 31 77 99t88 110t81 79q20 17 50 26.5t60.5 9t54 -22.5t27.5 -64q11 -86 -159 -243q-173 -177 -287 -349q14 -19 56 -19.5t85 8t83 3t52 -34.5q18 -51 -2.5 -99t-58.5 -64q-17 -6 -55 -10.5t-75.5 -8.5t-73 -11t-56 -22t-16.5 -39 t47.5 -32.5t94 -7t96.5 -8.5t54 -36q17 -44 6.5 -97.5t-53.5 -72.5q-15 -6 -140 -2.5t-130 -11.5q-4 -5 -3.5 -41t-5 -81.5t-24.5 -71.5q-21 -35 -119 -27q-25 3 -39.5 16t-20 37.5t-6.5 48.5t-3 61t-6 64q-23 23 -68 25.5t-86.5 -5.5t-82 -3t-56.5 32q-24 48 -13.5 89.5 t41.5 64.5q15 11 64.5 15.5t97.5 5.5t88 16t41 45q0 13 -7 22.5t-22.5 14.5t-32 7.5t-41.5 2t-44 -2t-47 -3.5q-95 -9 -128 -3q-50 10 -73 52z" />
<glyph unicode="&#xa8;" horiz-adv-x="745" d="M113 1274q6 47 39 79t75 40q78 15 98 -49q17 -56 -16 -122q-34 -67 -90 -73q-10 -1 -20 0q-45 5 -68.5 38.5t-17.5 86.5zM447 1198q-15 58 18 120q34 65 89 62q23 -2 46 -16q39 -25 51 -78t-18 -99.5t-101 -49.5q-68 -3 -85 61z" />
<glyph unicode="&#xa9;" horiz-adv-x="1644" d="M104.5 716.5q-0.5 64.5 10 131.5t25 132t42 127.5t61.5 119.5t84 107t109.5 89t137 67.5t167.5 41.5q93 13 191.5 -6t185.5 -63t165.5 -111t136 -145.5t93 -169.5t39.5 -181q11 -227 -70 -420.5t-235 -313.5t-350 -138q-114 -11 -226 8.5t-211 69t-176 123t-124.5 178 t-53.5 227.5q-1 62 -1.5 126.5zM336 665.5q5 -81.5 26 -149.5q21 -66 78 -126.5t133.5 -101t159.5 -62.5t165 -14.5t140 46.5q104 68 173.5 187.5t83.5 263t-48 290.5q-36 83 -117.5 149t-176.5 100t-197.5 32t-177.5 -47q-63 -38 -112 -102.5t-78 -141t-43 -159.5 t-9 -164.5zM506.5 731q3.5 96 52.5 172q36 55 119 96.5t162 47.5q66 7 124 -11.5t66 -60.5q10 -52 -12 -89.5t-55 -45.5q-31 -7 -86.5 -11.5t-84 -15t-42.5 -41.5q-15 -43 -4.5 -83t34.5 -56q27 -19 93 -19.5t118.5 -5t61.5 -33.5q14 -52 -19 -106t-88 -66q-45 -9 -148 12 t-147 38q-68 27 -108 104.5t-36.5 173.5z" />
<glyph unicode="&#xab;" horiz-adv-x="1116" d="M80 500q-7 47 53 110t141 119q121 83 222 135q25 16 69.5 13t55.5 -29q12 -26 14 -46t-6 -34.5t-16 -23t-23 -19.5q-11 -9 -121 -81.5t-131 -106.5q19 -24 40.5 -41.5t54 -38.5t48.5 -33q89 -57 103 -105q19 -58 -25 -99.5t-115 -35.5q-13 1 -36 14t-47.5 30.5 t-28.5 19.5q-50 34 -101 74t-99 92.5t-52 85.5zM537 537q1 22 34.5 56t61.5 50q134 75 289 137q30 10 68.5 -12t43.5 -49q6 -30 -18 -59t-61.5 -51t-76.5 -40t-66.5 -32t-27.5 -21q0 -3 38 -22.5t84 -43t86.5 -55.5t43.5 -57q6 -43 -26.5 -75.5t-87.5 -26.5q-32 2 -93 34 q-2 1 -35.5 21.5t-53 33t-56 37t-58.5 44t-46 43.5t-34.5 46.5t-8.5 41.5z" />
<glyph unicode="&#xad;" horiz-adv-x="1067" d="M55 557q0 88 115 100q49 7 360 7q24 0 122.5 3t157.5 0t97 -14q54 -17 77.5 -75t-1.5 -117q-8 -19 -35.5 -32t-78 -19t-83 -8t-99.5 -3.5t-79 -1.5q-47 -4 -241 -1.5t-236 18.5q-37 13 -57.5 54t-18.5 89z" />
<glyph unicode="&#xae;" horiz-adv-x="1705" d="M102 782q83 748 785 740q144 -2 285 -81t242.5 -201t159 -278t44.5 -305q-17 -197 -74.5 -328.5t-161 -206t-239 -103.5t-328.5 -25q-169 3 -308.5 57.5t-236.5 153t-142 247t-26 330.5zM346 575q21 -81 65 -146t102 -107.5t126 -71.5t141.5 -40.5t144.5 -10.5t138 14 q175 32 252 198q73 154 37 359q-36 206 -163 349q-153 174 -373 174q-59 0 -120 -13q-118 -25 -213 -142.5t-133 -273.5t-4 -289zM541.5 571.5q2.5 31.5 5 53.5t7.5 54.5t7 47.5q1 10 4 30q5 51 9 76.5t13 67.5t21 65t31.5 50t48 43.5t66.5 25.5q44 11 94.5 14.5t104.5 -3.5 t93 -37.5t48 -81.5q9 -58 -3 -102.5t-32 -65t-37.5 -35.5t-17.5 -20q11 -30 39.5 -65t56.5 -62t56.5 -62.5t39.5 -66.5q-13 -49 -59 -68t-91 -11.5t-67 27.5q-18 16 -41.5 54.5t-42 71t-45.5 57t-55 22.5q-27 -2 -38 -34t-16 -82.5t-14 -71.5q-10 -25 -42.5 -28.5t-72.5 1.5 q-23 1 -38 11.5t-22 30.5t-10 41t-0.5 52.5zM770 844q25 -16 87 5t63 50q1 38 -35 48.5t-73 -8.5t-38 -52q-4 -28 -4 -43z" />
<glyph unicode="&#xb0;" horiz-adv-x="837" d="M88 1014q3 43 30 101.5t62 101.5q28 34 51.5 57.5t68.5 59.5t101 54.5t117 14.5q125 -6 198.5 -98t65.5 -207q-4 -53 -54 -138t-93 -124q-70 -63 -168.5 -81.5t-200.5 19.5q-27 12 -56.5 32t-59.5 50.5t-48 72t-14 85.5zM330 1073q2 -32 24.5 -58t54.5 -38.5t65 -14 t58 15t31 48.5q15 74 -35 124t-112 36q-37 -8 -63 -41.5t-23 -71.5z" />
<glyph unicode="&#xb4;" horiz-adv-x="745" d="M115 1112q-11 33 2 62.5t39 50.5t67 41.5t78 34t80.5 29.5t64.5 26q136 59 185 67q58 9 87 -20.5t20 -76t-50 -83.5q-46 -33 -103 -58t-152 -58t-124 -44q-8 -3 -29 -12t-32.5 -13t-30.5 -9t-31.5 -3t-27 7.5t-25 20.5t-18.5 38z" />
<glyph unicode="&#xb8;" horiz-adv-x="681" d="M76 -475q-4 41 23 74t63 47q32 10 94 9.5t92 6.5q58 14 83.5 67t-15.5 81q-15 11 -43.5 12t-54.5 -3.5t-56 -9.5t-45 -4q-41 2 -58 23t-15.5 55t7.5 78q0 8 1 12q1 10 3.5 32.5t4 32t4 29t4.5 28.5t5 24.5t6.5 24t8 19.5t10 18.5t11.5 13.5q34 31 77 31.5t60 -25.5 q9 -13 8.5 -42t-4 -56.5t1.5 -59.5q269 -12 281 -266q4 -90 -65.5 -183.5t-151.5 -128.5q-43 -18 -121.5 -27.5t-132.5 -2.5q-46 7 -63.5 29t-22.5 61z" />
<glyph unicode="&#xbb;" horiz-adv-x="1241" d="M82 737q1 44 49 81.5t88 37.5q50 -7 105.5 -37t118.5 -74t89 -59q70 -45 92 -71q54 -60 23 -138q-48 -77 -175.5 -151t-248.5 -115q-31 1 -56 26.5t-30 51.5q-10 40 15.5 76t63.5 58t82.5 50.5t61.5 50.5q-12 21 -59 50.5t-95 55t-86.5 55.5t-37.5 52zM578 782 q-6 16 2.5 51.5t36 66.5t65.5 26q35 -5 140 -52t171 -92q9 -6 37.5 -23t49 -30.5t45 -31.5t39 -34.5t16.5 -29.5q4 -25 -10.5 -60.5t-30.5 -58.5q-87 -113 -175.5 -200.5t-195.5 -157.5q-32 -17 -62 -14.5t-53.5 20t-29.5 41.5q-6 26 -1 49.5t21 44t29 33.5t36.5 31.5 t30.5 25.5q148 142 146 168q0 13 -69.5 52t-147 89t-90.5 86z" />
<glyph unicode="&#xbf;" horiz-adv-x="958" d="M29 389q5 70 37.5 129t83.5 102.5t103.5 78.5t111.5 75t92 74q5 26 -0.5 74t-11 84.5t7 69.5t49.5 42q156 40 172 -65q33 -220 28 -281q-4 -19 -12 -33.5t-24.5 -27.5t-26.5 -19.5t-37 -20.5t-37 -20q-30 -20 -91.5 -55t-97 -58t-73.5 -64.5t-53 -90.5q-3 -57 38.5 -95.5 t92.5 -41.5q44 -3 92.5 21t87.5 61.5t68 73.5t45 65q10 18 19.5 57t24.5 62t48 30q44 9 95 -20.5t59 -63.5q9 -37 -24.5 -109.5t-68.5 -123.5q-51 -77 -139.5 -137t-202 -85.5t-229.5 19.5q-62 24 -112 60t-85 98t-30 135zM428 1364q-6 31 18 63q26 37 77.5 39.5t94.5 -23.5 t48 -63q10 -77 -76 -102q-40 -10 -77.5 -0.5t-58 32.5t-26.5 54z" />
<glyph unicode="&#xc0;" horiz-adv-x="999" d="M25 63q-3 18 4.5 47.5t24 75.5t22.5 64q112 336 317 856q12 31 30 89t32 97t36 82t53 66t72 26q30 3 50.5 -4t31.5 -17.5t18.5 -35.5t9.5 -44t6 -58q2 -24 3 -37q20 -179 79.5 -464t76.5 -390q7 -48 33 -168.5t34 -165.5q-3 -43 -51.5 -72.5t-91.5 -27.5 q-34 4 -56.5 42.5t-33 95.5t-18 117t-20.5 117.5t-32 85.5q-21 -3 -70.5 -8.5t-82.5 -10t-74.5 -13t-67.5 -19.5q-20 -75 -65.5 -188.5t-81.5 -171.5q-22 -25 -54.5 -32t-60.5 1t-49 26t-24 39zM195 1870q3 48 33 72t69 30q26 3 46.5 -5t51 -30t45.5 -30q10 -5 109.5 -64.5 t148.5 -85.5q9 -5 26.5 -14.5t25.5 -14t21 -13t19.5 -15t13 -15.5t9.5 -18q16 -55 -11.5 -107t-58.5 -61q-11 -3 -23.5 -3t-23 2t-22.5 7.5t-21 10t-21 12.5t-19 13t-18.5 13.5t-16.5 12.5q-59 41 -151 92.5t-136 79.5q-56 37 -72 57q-26 32 -24 74zM438 612q35 -10 98.5 1 t84.5 30q2 65 -17.5 179.5t-40.5 146.5h-18q-27 -51 -62.5 -168t-44.5 -189z" />
<glyph unicode="&#xc1;" horiz-adv-x="999" d="M25 63q-3 18 4.5 47.5t24 75.5t22.5 64q112 336 317 856q12 31 30 89t32 97t36 82t53 66t72 26q30 3 50.5 -4t31.5 -17.5t18.5 -35.5t9.5 -44t6 -58q2 -24 3 -37q20 -179 79.5 -464t76.5 -390q7 -48 33 -168.5t34 -165.5q-3 -43 -51.5 -72.5t-91.5 -27.5 q-34 4 -56.5 42.5t-33 95.5t-18 117t-20.5 117.5t-32 85.5q-21 -3 -70.5 -8.5t-82.5 -10t-74.5 -13t-67.5 -19.5q-20 -75 -65.5 -188.5t-81.5 -171.5q-22 -25 -54.5 -32t-60.5 1t-49 26t-24 39zM264 1554q-11 33 2 62.5t39.5 50.5t67.5 41.5t78 34t80.5 29.5t64.5 26 q3 1 40 17.5t51.5 22.5t43 15t49.5 13q58 9 87 -20.5t20.5 -76t-49.5 -83.5q-46 -33 -103 -58t-152 -58t-124 -44q-7 -3 -34 -14t-38.5 -15t-35 -7.5t-36.5 2t-27.5 20.5t-23.5 42zM438 612q35 -10 98.5 1t84.5 30q2 65 -17.5 179.5t-40.5 146.5h-18q-27 -51 -62.5 -168 t-44.5 -189z" />
<glyph unicode="&#xc2;" horiz-adv-x="999" d="M25 63q-3 18 4.5 47.5t24 75.5t22.5 64q112 336 317 856q12 31 30 89t32 97t36 82t53 66t72 26q30 3 50.5 -4t31.5 -17.5t18.5 -35.5t9.5 -44t6 -58q2 -24 3 -37q20 -179 79.5 -464t76.5 -390q7 -48 33 -168.5t34 -165.5q-3 -43 -51.5 -72.5t-91.5 -27.5 q-34 4 -56.5 42.5t-33 95.5t-18 117t-20.5 117.5t-32 85.5q-21 -3 -70.5 -8.5t-82.5 -10t-74.5 -13t-67.5 -19.5q-20 -75 -65.5 -188.5t-81.5 -171.5q-22 -25 -54.5 -32t-60.5 1t-49 26t-24 39zM281 1534q-21 27 0 92t45 107q46 76 127 151.5t127 71.5q96 -7 243 -139 q50 -44 91 -97.5t49 -95.5q9 -52 -28.5 -94t-90.5 -37q-28 3 -52.5 18.5t-36.5 29t-40 48.5q-3 4 -22 27.5t-27.5 33.5t-24 26t-27 23t-20.5 7q-31 0 -83.5 -57.5t-74.5 -96.5q-31 -51 -78 -54.5t-77 36.5zM438 612q35 -10 98.5 1t84.5 30q2 65 -17.5 179.5t-40.5 146.5h-18 q-27 -51 -62.5 -168t-44.5 -189z" />
<glyph unicode="&#xc3;" horiz-adv-x="999" d="M25 63q-3 18 4.5 47.5t24 75.5t22.5 64q112 336 317 856q12 31 30 89t32 97t36 82t53 66t72 26q30 3 50.5 -4t31.5 -17.5t18.5 -35.5t9.5 -44t6 -58q2 -24 3 -37q20 -179 79.5 -464t76.5 -390q7 -48 33 -168.5t34 -165.5q-3 -43 -51.5 -72.5t-91.5 -27.5 q-34 4 -56.5 42.5t-33 95.5t-18 117t-20.5 117.5t-32 85.5q-21 -3 -70.5 -8.5t-82.5 -10t-74.5 -13t-67.5 -19.5q-20 -75 -65.5 -188.5t-81.5 -171.5q-22 -25 -54.5 -32t-60.5 1t-49 26t-24 39zM274 1571q-3 16 0.5 32.5t9 26.5t14.5 24.5t11 18.5q22 40 72 90 q23 25 58 42.5t81.5 17t81.5 -32.5q14 -13 30 -46.5t32.5 -57.5t37.5 -25q24 -1 46 24t36.5 53t38 44.5t51.5 3.5q41 -20 34 -63.5t-31 -83t-52 -64.5q-34 -29 -69 -46.5t-83.5 -15.5t-90.5 37q-17 12 -37.5 56t-40.5 47q-15 2 -30 -5t-28 -21.5t-22.5 -26.5t-20.5 -29 t-14 -21q-33 -35 -71 -26t-44 47zM438 612q35 -10 98.5 1t84.5 30q2 65 -17.5 179.5t-40.5 146.5h-18q-27 -51 -62.5 -168t-44.5 -189z" />
<glyph unicode="&#xc4;" horiz-adv-x="999" d="M25 63q-3 18 4.5 47.5t24 75.5t22.5 64q112 336 317 856q12 31 30 89t32 97t36 82t53 66t72 26q30 3 50.5 -4t31.5 -17.5t18.5 -35.5t9.5 -44t6 -58q2 -24 3 -37q20 -179 79.5 -464t76.5 -390q7 -48 33 -168.5t34 -165.5q-3 -43 -51.5 -72.5t-91.5 -27.5 q-34 4 -56.5 42.5t-33 95.5t-18 117t-20.5 117.5t-32 85.5q-21 -3 -70.5 -8.5t-82.5 -10t-74.5 -13t-67.5 -19.5q-20 -75 -65.5 -188.5t-81.5 -171.5q-22 -25 -54.5 -32t-60.5 1t-49 26t-24 39zM362 1675q6 47 39 79t76 40q78 15 98 -49q17 -56 -16 -122q-34 -67 -90 -73 h-20q-45 5 -69 38.5t-18 86.5zM438 612q35 -10 98.5 1t84.5 30q2 65 -17.5 179.5t-40.5 146.5h-18q-27 -51 -62.5 -168t-44.5 -189zM697 1599q-15 58 18 120q34 65 89 62q23 -2 46 -16q39 -25 51 -78t-18 -99.5t-101 -49.5q-68 -3 -85 61z" />
<glyph unicode="&#xc5;" horiz-adv-x="999" d="M25 63q-3 18 4.5 47.5t24 75.5t22.5 64q112 336 317 856q12 31 30 89t32 97t36 82t53 66t72 26q30 3 50.5 -4t31.5 -17.5t18.5 -35.5t9.5 -44t6 -58q2 -24 3 -37q20 -179 79.5 -464t76.5 -390q7 -48 33 -168.5t34 -165.5q-3 -43 -51.5 -72.5t-91.5 -27.5 q-34 4 -56.5 42.5t-33 95.5t-18 117t-20.5 117.5t-32 85.5q-21 -3 -70.5 -8.5t-82.5 -10t-74.5 -13t-67.5 -19.5q-20 -75 -65.5 -188.5t-81.5 -171.5q-22 -25 -54.5 -32t-60.5 1t-49 26t-24 39zM272 1597q3 43 30.5 101.5t62.5 101.5q22 27 37.5 44t51.5 49t69 50.5 t81.5 32.5t97.5 11q125 -6 199 -98.5t66 -207.5q-4 -53 -54.5 -138t-93.5 -124q-69 -63 -167.5 -81t-200.5 20q-27 12 -56.5 32t-60 50t-48.5 71.5t-14 85.5zM438 612q35 -10 98.5 1t84.5 30q2 65 -17.5 179.5t-40.5 146.5h-18q-27 -51 -62.5 -168t-44.5 -189zM514 1657 q2 -32 24.5 -58t55 -38.5t65 -14t58 15t31.5 48.5q14 74 -35.5 123.5t-112.5 35.5q-37 -8 -63 -41t-23 -71z" />
<glyph unicode="&#xc6;" horiz-adv-x="1800" d="M74 127q5 45 29 97.5t65 113.5q329 555 545 979q106 162 217 174q34 3 54 -6t27 -23t21 -32.5t35 -28.5q32 -3 62.5 -0.5t114.5 11t118 11.5q61 2 130 3t129 -16.5t67 -51.5q27 -135 -86 -148q-26 -4 -240 -17.5t-295 -41.5q0 -30 -2 -100.5t-2.5 -113t0.5 -96t4 -87.5 q88 -23 202 -18t230.5 3t138.5 -26q18 -19 23.5 -55.5t-9 -71t-48.5 -43.5q-57 -16 -255.5 -19.5t-256.5 -23.5q-23 -36 -20 -142t20 -137q16 -14 60.5 -15t121 6.5t94.5 8.5q9 0 40.5 2t49 2.5t47.5 0.5t49 -3.5t40.5 -10t35 -18t19.5 -28.5q14 -37 -3 -80.5t-38 -48.5 q-112 -32 -228 -29q-24 1 -181.5 -7.5t-254 1t-96.5 49.5q1 19 -4 103t-4 106q9 206 -25 234q-156 25 -268 -13q-31 -15 -66.5 -66.5t-71 -115.5t-53.5 -86q-6 -10 -22 -39.5t-27.5 -47t-29 -39.5t-37.5 -34t-43 -14q-67 -5 -97.5 19t-25.5 69zM655 756q35 -24 160 -6 q16 47 11 132.5t-33 118.5q-6 -8 -38.5 -51.5t-44 -61.5t-29.5 -56.5t-26 -75.5z" />
<glyph unicode="&#xc7;" horiz-adv-x="1062" d="M39 616q0 239 34.5 369t137.5 256q42 49 93.5 88.5t121.5 70.5t145 35t164 -18q67 -19 123 -55.5t81 -81.5t-1 -90q-26 -43 -64.5 -54t-80.5 2.5t-95 27.5t-106.5 19.5t-114.5 -20.5q-104 -45 -153.5 -171t-51.5 -306q0 -166 47.5 -265t149.5 -155q86 -44 172 -47 q36 -1 94 16t103 33.5t90 13.5t67 -38q34 -55 -3.5 -115t-88.5 -82q-44 -21 -131 -37.5t-160 -19.5q-22 -2 -46.5 -0.5t-48 -1t-41.5 -9t-27 -24t-5 -45.5q5 -29 33 -43.5t71.5 -23.5t61.5 -19q51 -28 82 -92.5t19 -124.5q-6 -33 -18 -58t-36.5 -48.5t-35 -31.5t-43.5 -32 q-39 -25 -107.5 -38t-130.5 3t-68 68q-5 43 26.5 67.5t72.5 30.5t77 19t37 36q-4 32 -28 47t-65.5 23.5t-57.5 15.5q-65 27 -90 92t-10.5 134t57.5 118q-58 31 -116 106t-91 163q-17 43 -31 138.5t-14 153.5z" />
<glyph unicode="&#xc8;" horiz-adv-x="919" d="M68 231q-2 64 14 281q4 88 33 537q1 64 2 87.5t5 71.5t14 76t26 45q59 66 325 66q37 0 60 -1t56 -2t54 -4t46 -7t40.5 -10.5t30.5 -15.5t23 -21t10 -27q1 -22 0.5 -41.5t-5.5 -35t-14 -26.5t-25.5 -18t-39.5 -8q-23 -2 -86 -2q-70 -1 -106.5 -2.5t-88 -9.5t-71.5 -21 q-17 -11 -23 -34t-10 -67q-1 -5 -5.5 -38.5t-6.5 -56t-3.5 -53.5t4 -53t17.5 -34q22 -19 59 -19q29 0 100 15.5t101 15.5q67 0 84 -61q10 -57 -16 -91.5t-70 -48.5q-29 -5 -90 -12q-4 0 -21 -2t-23 -3t-22 -3t-23.5 -3t-21.5 -3.5t-21.5 -4.5t-19 -5t-19 -6t-15 -7t-13.5 -8 q-26 -28 -26 -137q0 -92 4 -127q0 -4 1 -11t1 -10l2 -2q88 -4 262 13q16 2 55.5 9.5t71 13.5t70.5 9t55 -4q29 -8 45.5 -52.5t-0.5 -96.5q-10 -29 -30.5 -50t-42.5 -31.5t-59 -16.5t-61 -7t-67 -2q-129 0 -367 -16q-105 -8 -130.5 29t-28.5 159zM121 1833q3 48 33 72t69 30 q26 3 47 -5t52 -30t45 -30q10 -5 109.5 -64.5t148.5 -85.5q8 -4 26 -14t25.5 -14.5t21 -13t19.5 -15t12.5 -15.5t9.5 -18q16 -55 -11 -107t-58 -61q-11 -3 -23.5 -3t-23 2t-22.5 7.5t-21 10t-21.5 12.5t-19.5 13t-18.5 13.5t-16.5 12.5q-59 41 -151 92.5t-136 79.5 q-56 37 -72 57q-26 32 -24 74z" />
<glyph unicode="&#xc9;" horiz-adv-x="919" d="M68 231q-2 64 14 281q4 88 33 537q1 64 2 87.5t5 71.5t14 76t26 45q59 66 325 66q37 0 60 -1t56 -2t54 -4t46 -7t40.5 -10.5t30.5 -15.5t23 -21t10 -27q1 -22 0.5 -41.5t-5.5 -35t-14 -26.5t-25.5 -18t-39.5 -8q-23 -2 -86 -2q-70 -1 -106.5 -2.5t-88 -9.5t-71.5 -21 q-17 -11 -23 -34t-10 -67q-1 -5 -5.5 -38.5t-6.5 -56t-3.5 -53.5t4 -53t17.5 -34q22 -19 59 -19q29 0 100 15.5t101 15.5q67 0 84 -61q10 -57 -16 -91.5t-70 -48.5q-29 -5 -90 -12q-4 0 -21 -2t-23 -3t-22 -3t-23.5 -3t-21.5 -3.5t-21.5 -4.5t-19 -5t-19 -6t-15 -7t-13.5 -8 q-26 -28 -26 -137q0 -92 4 -127q0 -4 1 -11t1 -10l2 -2q88 -4 262 13q16 2 55.5 9.5t71 13.5t70.5 9t55 -4q29 -8 45.5 -52.5t-0.5 -96.5q-10 -29 -30.5 -50t-42.5 -31.5t-59 -16.5t-61 -7t-67 -2q-129 0 -367 -16q-105 -8 -130.5 29t-28.5 159zM215 1526q-11 33 2 62.5 t39.5 50t67.5 41t78 34t80 29.5t65 26q3 1 40 17.5t51.5 22.5t43 15t49.5 13q58 9 87 -20.5t20 -76t-50 -83.5q-46 -33 -102.5 -58t-152 -58t-123.5 -44q-8 -3 -29 -12t-32.5 -13t-30.5 -9t-32 -3t-27.5 7.5t-25 20.5t-18.5 38z" />
<glyph unicode="&#xca;" horiz-adv-x="919" d="M68 231q-2 64 14 281q4 88 33 537q1 64 2 87.5t5 71.5t14 76t26 45q59 66 325 66q37 0 60 -1t56 -2t54 -4t46 -7t40.5 -10.5t30.5 -15.5t23 -21t10 -27q1 -22 0.5 -41.5t-5.5 -35t-14 -26.5t-25.5 -18t-39.5 -8q-23 -2 -86 -2q-70 -1 -106.5 -2.5t-88 -9.5t-71.5 -21 q-17 -11 -23 -34t-10 -67q-1 -5 -5.5 -38.5t-6.5 -56t-3.5 -53.5t4 -53t17.5 -34q22 -19 59 -19q29 0 100 15.5t101 15.5q67 0 84 -61q10 -57 -16 -91.5t-70 -48.5q-29 -5 -90 -12q-4 0 -21 -2t-23 -3t-22 -3t-23.5 -3t-21.5 -3.5t-21.5 -4.5t-19 -5t-19 -6t-15 -7t-13.5 -8 q-26 -28 -26 -137q0 -92 4 -127q0 -4 1 -11t1 -10l2 -2q88 -4 262 13q16 2 55.5 9.5t71 13.5t70.5 9t55 -4q29 -8 45.5 -52.5t-0.5 -96.5q-10 -29 -30.5 -50t-42.5 -31.5t-59 -16.5t-61 -7t-67 -2q-129 0 -367 -16q-105 -8 -130.5 29t-28.5 159zM129 1491q-21 27 0 92 t45 107q46 76 127 151.5t127 71.5q97 -7 244 -139q49 -44 90 -97.5t49 -95.5q9 -52 -28.5 -94t-90.5 -37q-28 3 -52.5 18.5t-36.5 29t-40 48.5q-3 4 -22 27.5t-27.5 33.5t-24 26t-27 23t-20.5 7q-31 0 -82.5 -57.5t-74.5 -96.5q-31 -51 -78.5 -54.5t-77.5 36.5z" />
<glyph unicode="&#xcb;" horiz-adv-x="919" d="M68 231q-2 64 14 281q4 88 33 537q1 64 2 87.5t5 71.5t14 76t26 45q59 66 325 66q37 0 60 -1t56 -2t54 -4t46 -7t40.5 -10.5t30.5 -15.5t23 -21t10 -27q1 -22 0.5 -41.5t-5.5 -35t-14 -26.5t-25.5 -18t-39.5 -8q-23 -2 -86 -2q-70 -1 -106.5 -2.5t-88 -9.5t-71.5 -21 q-17 -11 -23 -34t-10 -67q-1 -5 -5.5 -38.5t-6.5 -56t-3.5 -53.5t4 -53t17.5 -34q22 -19 59 -19q29 0 100 15.5t101 15.5q67 0 84 -61q10 -57 -16 -91.5t-70 -48.5q-29 -5 -90 -12q-4 0 -21 -2t-23 -3t-22 -3t-23.5 -3t-21.5 -3.5t-21.5 -4.5t-19 -5t-19 -6t-15 -7t-13.5 -8 q-26 -28 -26 -137q0 -92 4 -127q0 -4 1 -11t1 -10l2 -2q88 -4 262 13q16 2 55.5 9.5t71 13.5t70.5 9t55 -4q29 -8 45.5 -52.5t-0.5 -96.5q-10 -29 -30.5 -50t-42.5 -31.5t-59 -16.5t-61 -7t-67 -2q-129 0 -367 -16q-105 -8 -130.5 29t-28.5 159zM178 1608q6 47 39 78.5 t76 39.5q78 15 98 -49q17 -56 -17 -122q-35 -67 -91 -72q-9 -1 -19 0q-45 5 -68.5 38.5t-17.5 86.5zM513 1532q-15 59 18 120q34 64 89 62q23 -2 46 -16q39 -25 51 -78.5t-18 -100t-101 -49.5q-68 -3 -85 62z" />
<glyph unicode="&#xcc;" horiz-adv-x="434" d="M-113 1931q3 48 33.5 72.5t69.5 30.5q26 3 47 -5.5t51 -30t45 -30.5q25 -15 78.5 -46.5t98.5 -57.5t81 -45q9 -5 26.5 -14.5t25.5 -14t21 -13t19.5 -15t13 -15.5t9.5 -18q16 -55 -11.5 -107t-58.5 -61q-11 -3 -23.5 -3t-23 2t-23 7t-21 9.5t-21 12.5t-19 13t-19 14 t-16.5 12q-60 42 -151.5 93.5t-134.5 78.5q-56 37 -72 56q-27 32 -25 75zM63.5 111q-0.5 24 0 38t2 42t2.5 40q2 29 3 138t3 143q5 81 20 280t21 304q1 11 3 52.5t4.5 78.5t5.5 79t7 72t8 39q14 27 53.5 45.5t73.5 20.5q73 0 90 -47q11 -18 9.5 -81t-8 -117.5t-14.5 -122 t-9 -95.5q-2 -49 -15.5 -259.5t-13.5 -332.5v-25q0 -60 -0.5 -97t-2.5 -96t-8.5 -97.5t-16.5 -53.5q-22 -33 -77.5 -52.5t-88.5 -6.5q-14 6 -24 16t-15.5 26.5t-8.5 30.5t-3.5 38z" />
<glyph unicode="&#xcd;" horiz-adv-x="434" d="M-88 1583q-11 33 2 62.5t39.5 50.5t67.5 41.5t78 34t80.5 29.5t64.5 26q5 2 32 14t39.5 17l35 14t41.5 14t36 8q58 9 87 -20.5t20 -76t-50 -83.5q-46 -33 -103 -58t-152 -58t-124 -44q-8 -3 -29 -12t-32.5 -13t-30.5 -9t-31.5 -3t-27 7.5t-25 20.5t-18.5 38zM63.5 111 q-0.5 24 0 38t2 42t2.5 40q2 29 3 138t3 143q5 81 20 280t21 304q1 11 3 52.5t4.5 78.5t5.5 79t7 72t8 39q14 27 53.5 45.5t73.5 20.5q73 0 90 -47q11 -18 9.5 -81t-8 -117.5t-14.5 -122t-9 -95.5q-2 -49 -15.5 -259.5t-13.5 -332.5v-25q0 -60 -0.5 -97t-2.5 -96t-8.5 -97.5 t-16.5 -53.5q-22 -33 -77.5 -52.5t-88.5 -6.5q-14 6 -24 16t-15.5 26.5t-8.5 30.5t-3.5 38z" />
<glyph unicode="&#xce;" horiz-adv-x="434" d="M-45 1552q-21 27 0 92t45 107q46 76 127 151.5t127 71.5q97 -7 244 -139q49 -44 90 -97.5t49 -95.5q9 -52 -28.5 -94t-90.5 -37q-28 3 -52.5 19t-36 29t-40.5 49q-5 6 -16 20t-18 22.5t-18 21t-19 20.5t-17.5 16t-17.5 12t-15 4q-31 0 -83 -57t-74 -96q-31 -51 -78.5 -55 t-77.5 36zM63.5 111q-0.5 24 0 38t2 42t2.5 40q2 29 3 138t3 143q5 81 20 280t21 304q1 11 3 52.5t4.5 78.5t5.5 79t7 72t8 39q14 27 53.5 45.5t73.5 20.5q73 0 90 -47q11 -18 9.5 -81t-8 -117.5t-14.5 -122t-9 -95.5q-2 -49 -15.5 -259.5t-13.5 -332.5v-25q0 -60 -0.5 -97 t-2.5 -96t-8.5 -97.5t-16.5 -53.5q-22 -33 -77.5 -52.5t-88.5 -6.5q-14 6 -24 16t-15.5 26.5t-8.5 30.5t-3.5 38z" />
<glyph unicode="&#xcf;" horiz-adv-x="434" d="M-16 1720q6 47 39 79t75 40q78 15 98 -49q17 -56 -16 -122q-34 -67 -90 -73q-10 -1 -20 0q-45 5 -68.5 38.5t-17.5 86.5zM63.5 111q-0.5 24 0 38t2 42t2.5 40q2 29 3 138t3 143q5 81 20 280t21 304q1 11 3 52.5t4.5 78.5t5.5 79t7 72t8 39q14 27 53.5 45.5t73.5 20.5 q73 0 90 -47q11 -18 9.5 -81t-8 -117.5t-14.5 -122t-9 -95.5q-2 -49 -15.5 -259.5t-13.5 -332.5v-25q0 -60 -0.5 -97t-2.5 -96t-8.5 -97.5t-16.5 -53.5q-22 -33 -77.5 -52.5t-88.5 -6.5q-14 6 -24 16t-15.5 26.5t-8.5 30.5t-3.5 38zM318 1644q-15 58 18 120q34 65 89 62 q23 -2 46 -16q39 -25 51 -78t-18 -99.5t-101 -49.5q-68 -3 -85 61z" />
<glyph unicode="&#xd1;" horiz-adv-x="1163" d="M66.5 154q4.5 40 13.5 96.5t10 75.5q8 144 37.5 410t38.5 419q0 7 1 21q4 60 7.5 93.5t13 77t23.5 58.5q19 20 67 31.5t89 -0.5q16 -6 29.5 -19t26 -37t20.5 -42t21.5 -53t20.5 -52q157 -365 183 -422q3 -8 30.5 -70t44 -99.5t41.5 -86t41 -72.5q17 62 27 289 q4 66 9 175.5t9 182.5q2 38 0 75.5t0 79.5t11 65q7 23 33.5 48.5t58.5 31.5q31 8 67.5 1.5t49.5 -26.5q37 -48 -1 -289q0 -3 -0.5 -5t-1 -4.5t-0.5 -4.5q-7 -54 -26 -407.5t-19 -411.5q0 -27 -0.5 -61t-1.5 -64.5t-7.5 -60t-18.5 -48.5q-20 -31 -71.5 -46.5t-96.5 1.5 q-14 6 -27 23t-20.5 30.5t-24.5 48.5q-27 52 -84 154t-98.5 182.5t-73.5 159.5q-9 20 -42.5 81.5t-62.5 123.5t-44 115q-15 -75 -30 -306.5t-20 -273.5q-17 -265 -61 -309q-23 -26 -72 -32.5t-88 15.5q-23 14 -29.5 56t-2 82zM387 1526q-3 16 0.5 32.5t9 26.5t14.5 24.5 t11 18.5q22 40 72 90q23 25 58 42.5t81.5 17t81.5 -32.5q14 -13 30 -46.5t32.5 -57.5t37.5 -25q24 -1 46 24t36.5 53t38 44.5t51.5 3.5q41 -20 34 -63.5t-31 -83t-52 -64.5q-34 -29 -69 -46.5t-84 -15.5t-91 37q-17 12 -37.5 56t-40.5 47q-18 2 -38 -11t-31 -26.5t-27 -38.5 t-18 -27q-33 -35 -71 -26t-44 47z" />
<glyph unicode="&#xd2;" horiz-adv-x="1314" d="M70 643q23 402 206 574q79 94 183 150.5t225 57.5q117 2 229 -30t172 -105q112 -108 147.5 -283t6.5 -352q-22 -135 -45 -201.5t-76 -144.5q-190 -308 -567 -311q-130 1 -219 57.5t-154 155.5q-70 106 -93.5 191.5t-14.5 240.5zM317 530q9 -84 86 -181.5t148 -123.5 q60 -17 111.5 -12t98 32t79.5 58t55 66q52 78 79 190.5t30 226.5q-3 119 -65 229.5t-140 135.5q-103 34 -189 27q-65 -6 -130 -58t-95 -112q-34 -69 -57.5 -219t-10.5 -259zM330 1868q3 48 33 72t69 30q26 3 46.5 -5t51 -30t45.5 -30q3 -2 106.5 -63t152.5 -87q8 -4 26 -14 t25.5 -14.5t21 -13t19.5 -15t12.5 -15.5t9.5 -18q16 -55 -11 -107t-58 -61q-11 -3 -23.5 -3t-23 2t-22.5 7.5t-21 10t-21.5 12.5t-19.5 13t-18.5 13.5t-16.5 12.5q-59 41 -151 92.5t-136 79.5q-56 37 -72 57q-26 32 -24 74z" />
<glyph unicode="&#xd3;" horiz-adv-x="1314" d="M70 643q23 402 206 574q79 94 183 150.5t225 57.5q117 2 229 -30t172 -105q112 -108 147.5 -283t6.5 -352q-22 -135 -45 -201.5t-76 -144.5q-190 -308 -567 -311q-130 1 -219 57.5t-154 155.5q-70 106 -93.5 191.5t-14.5 240.5zM317 530q9 -84 86 -181.5t148 -123.5 q60 -17 111.5 -12t98 32t79.5 58t55 66q52 78 79 190.5t30 226.5q-3 119 -65 229.5t-140 135.5q-103 34 -189 27q-65 -6 -130 -58t-95 -112q-34 -69 -57.5 -219t-10.5 -259zM371 1528q-11 33 2 62.5t39 50.5t67 41.5t78 34t80.5 29.5t64.5 26q136 59 185 67q58 9 87 -20.5 t20 -76t-50 -83.5q-46 -33 -103 -58t-152 -58t-124 -44q-8 -3 -29 -12t-32.5 -13t-30.5 -9t-31.5 -3t-27 7.5t-25 20.5t-18.5 38z" />
<glyph unicode="&#xd4;" horiz-adv-x="1314" d="M70 643q23 402 206 574q79 94 183 150.5t225 57.5q117 2 229 -30t172 -105q112 -108 147.5 -283t6.5 -352q-22 -135 -45 -201.5t-76 -144.5q-190 -308 -567 -311q-130 1 -219 57.5t-154 155.5q-70 106 -93.5 191.5t-14.5 240.5zM317 530q9 -84 86 -181.5t148 -123.5 q60 -17 111.5 -12t98 32t79.5 58t55 66q52 78 79 190.5t30 226.5q-3 119 -65 229.5t-140 135.5q-103 34 -189 27q-65 -6 -130 -58t-95 -112q-34 -69 -57.5 -219t-10.5 -259zM334 1499q-21 27 0 92t45 107q46 76 127 151.5t127 71.5q97 -7 244 -139q49 -44 90 -97.5t49 -95.5 q9 -52 -28.5 -94t-90.5 -37q-28 3 -52.5 18.5t-36.5 29t-40 48.5q-3 4 -22 27.5t-27.5 33.5t-24 26t-27 23t-20.5 7q-31 0 -83.5 -57t-74.5 -96q-31 -51 -78 -55t-77 36z" />
<glyph unicode="&#xd5;" horiz-adv-x="1314" d="M70 643q23 402 206 574q79 94 183 150.5t225 57.5q117 2 229 -30t172 -105q112 -108 147.5 -283t6.5 -352q-22 -135 -45 -201.5t-76 -144.5q-190 -308 -567 -311q-130 1 -219 57.5t-154 155.5q-70 106 -93.5 191.5t-14.5 240.5zM317 530q9 -84 86 -181.5t148 -123.5 q60 -17 111.5 -12t98 32t79.5 58t55 66q52 78 79 190.5t30 226.5q-3 119 -65 229.5t-140 135.5q-103 34 -189 27q-65 -6 -130 -58t-95 -112q-34 -69 -57.5 -219t-10.5 -259zM350 1511q-3 16 0.5 32.5t9 26.5t14.5 25t11 19q22 40 72 90q23 25 58 42.5t81.5 17t81.5 -32.5 q14 -13 30 -46.5t32.5 -57.5t37.5 -25q20 -1 38 15.5t30 38.5t28.5 43t33 29t42.5 -2q41 -20 34 -63t-31 -82.5t-52 -64.5q-34 -29 -69 -46.5t-84 -15.5t-91 37q-17 12 -37 55.5t-40 46.5q-18 2 -38 -11t-31 -26t-28 -38.5t-18 -26.5q-32 -35 -70.5 -26.5t-44.5 46.5z" />
<glyph unicode="&#xd6;" horiz-adv-x="1314" d="M70 643q23 402 206 574q79 94 183 150.5t225 57.5q117 2 229 -30t172 -105q112 -108 147.5 -283t6.5 -352q-22 -135 -45 -201.5t-76 -144.5q-190 -308 -567 -311q-130 1 -219 57.5t-154 155.5q-70 106 -93.5 191.5t-14.5 240.5zM317 530q9 -84 86 -181.5t148 -123.5 q60 -17 111.5 -12t98 32t79.5 58t55 66q52 78 79 190.5t30 226.5q-3 119 -65 229.5t-140 135.5q-103 34 -189 27q-65 -6 -130 -58t-95 -112q-34 -69 -57.5 -219t-10.5 -259zM477 1638q6 47 39 79t76 40q78 15 98 -49q17 -56 -17 -122q-34 -67 -91 -73q-9 -1 -19 0 q-45 5 -68.5 38.5t-17.5 86.5zM812 1563q-15 59 18 120q34 64 89 62q23 -2 46 -16q39 -25 51 -78.5t-18 -100t-101 -49.5q-68 -3 -85 62z" />
<glyph unicode="&#xd8;" horiz-adv-x="1366" d="M84 172q1 31 18 60t37.5 46.5t38.5 35t19 28.5q2 26 -18 69.5t-23 55.5q-52 185 4 383t174 295q94 78 188.5 108.5t249.5 14.5q28 -3 72 -14t75.5 -19t38.5 -6q6 2 55.5 52.5t80.5 66.5q32 19 98 6q28 -7 51 -29t23 -55q0 -22 -45 -84t-45 -74q0 -23 43.5 -92.5 t58.5 -124.5q69 -274 -26.5 -476.5t-309.5 -273.5q-95 -31 -216.5 -35t-225.5 17q-11 2 -53 14t-62 11q-37 -3 -92 -50t-74 -45q-54 6 -95 40.5t-40 74.5zM350 725q-11 -83 1 -168q9 -58 26 -53l4 2q41 29 211 226.5t229 283.5q-38 38 -134.5 44t-158.5 -28 q-71 -40 -117.5 -123.5t-60.5 -183.5zM545 336q24 -43 98 -47q184 -14 312.5 74.5t146.5 252.5q8 86 -35 210q-30 85 -48 83q-1 0 -3 -2q-87 -88 -238 -272t-233 -299z" />
<glyph unicode="&#xd9;" horiz-adv-x="1105" d="M74 492q-29 276 18 610q2 19 6.5 54t6.5 51.5t7 44.5t10.5 42.5t14.5 34.5t20.5 31.5t28 22.5t37.5 18q88 24 121 -12q12 -14 13.5 -49.5t-3 -69t-12.5 -80.5t-10 -66q-23 -258 -22 -363q1 -111 18 -214q25 -164 73 -234q25 -38 79.5 -67.5t121.5 -16.5q45 10 78 64 t49.5 136.5t24 162.5t8.5 164q0 44 4 98q0 66 8 242q0 11 1 52t1.5 70t4.5 62t10 49q14 36 53.5 61.5t79.5 32.5q86 16 103 -55t-5 -168q-1 -3 -1 -5t-0.5 -4.5t-0.5 -4.5q-12 -99 -20.5 -353.5t-30.5 -369.5q-54 -274 -207 -383q-68 -49 -164.5 -68.5t-202.5 8.5 q-77 25 -154.5 95t-109.5 145q-25 64 -39 119q-8 39 -18 113zM209 1825q3 48 33 72t69 30q26 3 47 -5t52 -30t45 -30q10 -5 109.5 -64.5t148.5 -85.5q8 -4 26 -14t25.5 -14.5t21 -13t19.5 -15t12.5 -15.5t9.5 -18q16 -55 -11 -107t-58 -61q-11 -3 -23.5 -3t-23 2t-22.5 7.5 t-21 10t-21.5 12.5t-19.5 13t-18.5 13.5t-16.5 12.5q-59 41 -151 92.5t-136 79.5q-56 37 -72 57q-26 32 -24 74z" />
<glyph unicode="&#xda;" horiz-adv-x="1105" d="M74 492q-29 276 18 610q2 19 6.5 54t6.5 51.5t7 44.5t10.5 42.5t14.5 34.5t20.5 31.5t28 22.5t37.5 18q88 24 121 -12q12 -14 13.5 -49.5t-3 -69t-12.5 -80.5t-10 -66q-23 -258 -22 -363q1 -111 18 -214q25 -164 73 -234q25 -38 79.5 -67.5t121.5 -16.5q45 10 78 64 t49.5 136.5t24 162.5t8.5 164q0 44 4 98q0 66 8 242q0 11 1 52t1.5 70t4.5 62t10 49q14 36 53.5 61.5t79.5 32.5q86 16 103 -55t-5 -168q-1 -3 -1 -5t-0.5 -4.5t-0.5 -4.5q-12 -99 -20.5 -353.5t-30.5 -369.5q-54 -274 -207 -383q-68 -49 -164.5 -68.5t-202.5 8.5 q-77 25 -154.5 95t-109.5 145q-25 64 -39 119q-8 39 -18 113zM420 1559q-11 33 2 62.5t39.5 50t67.5 41t78 34t80 29.5t65 26q3 1 40 17.5t51.5 22.5t43 15t49.5 13q58 9 87 -20.5t20 -76t-50 -83.5q-46 -33 -103 -58t-152 -58t-124 -44q-8 -3 -29 -12t-32.5 -13t-30.5 -9 t-31.5 -3t-27 7.5t-25 20.5t-18.5 38z" />
<glyph unicode="&#xdb;" horiz-adv-x="1105" d="M74 492q-29 276 18 610q2 19 6.5 54t6.5 51.5t7 44.5t10.5 42.5t14.5 34.5t20.5 31.5t28 22.5t37.5 18q88 24 121 -12q12 -14 13.5 -49.5t-3 -69t-12.5 -80.5t-10 -66q-23 -258 -22 -363q1 -111 18 -214q25 -164 73 -234q25 -38 79.5 -67.5t121.5 -16.5q45 10 78 64 t49.5 136.5t24 162.5t8.5 164q0 44 4 98q0 66 8 242q0 11 1 52t1.5 70t4.5 62t10 49q14 36 53.5 61.5t79.5 32.5q86 16 103 -55t-5 -168q-1 -3 -1 -5t-0.5 -4.5t-0.5 -4.5q-12 -99 -20.5 -353.5t-30.5 -369.5q-54 -274 -207 -383q-68 -49 -164.5 -68.5t-202.5 8.5 q-77 25 -154.5 95t-109.5 145q-25 64 -39 119q-8 39 -18 113zM289 1513q-21 27 0 92t45 107q46 76 127 151.5t127 71.5q96 -7 243 -139q50 -45 91 -97.5t49 -94.5q9 -52 -28.5 -94t-90.5 -37q-28 3 -52.5 18.5t-36.5 29t-40 48.5q-3 4 -22 27.5t-27.5 33.5t-24 26t-27 23 t-20.5 7q-31 0 -83.5 -57.5t-74.5 -96.5q-31 -51 -78 -55t-77 36z" />
<glyph unicode="&#xdc;" horiz-adv-x="1105" d="M74 492q-29 276 18 610q2 19 6.5 54t6.5 51.5t7 44.5t10.5 42.5t14.5 34.5t20.5 31.5t28 22.5t37.5 18q88 24 121 -12q12 -14 13.5 -49.5t-3 -69t-12.5 -80.5t-10 -66q-23 -258 -22 -363q1 -111 18 -214q25 -164 73 -234q25 -38 79.5 -67.5t121.5 -16.5q45 10 78 64 t49.5 136.5t24 162.5t8.5 164q0 44 4 98q0 66 8 242q0 11 1 52t1.5 70t4.5 62t10 49q14 36 53.5 61.5t79.5 32.5q86 16 103 -55t-5 -168q-1 -3 -1 -5t-0.5 -4.5t-0.5 -4.5q-12 -99 -20.5 -353.5t-30.5 -369.5q-54 -274 -207 -383q-68 -49 -164.5 -68.5t-202.5 8.5 q-77 25 -154.5 95t-109.5 145q-25 64 -39 119q-8 39 -18 113zM360 1626q6 47 39 79t76 40q78 15 98 -49q17 -56 -17 -122q-34 -67 -91 -73q-9 -1 -19 0q-45 5 -68.5 38.5t-17.5 86.5zM695 1550q-15 58 18 120q34 65 89 62q23 -2 46 -16q39 -25 51 -78t-18 -99.5t-101 -49.5 q-68 -3 -85 61z" />
<glyph unicode="&#xdd;" horiz-adv-x="1193" d="M31 1309q0 41 35.5 86t82.5 63.5t93 -6.5q9 -6 21.5 -28.5t21.5 -43t20.5 -50t13.5 -34.5q31 -62 78 -161q17 -37 44 -111t51 -120.5t59 -80.5q25 13 44 35.5t40.5 59.5t30.5 49q186 263 208 293q54 68 62 83q3 5 18.5 30.5t27 42.5t17.5 22q18 15 50.5 19.5t65.5 -11 t44 -53.5q8 -26 -4 -59.5t-27 -54.5t-41.5 -51.5t-29.5 -33.5q-38 -48 -101 -125t-105 -133t-93 -135q-35 -53 -64 -107q-54 -82 -61 -114q-12 -47 -17 -187q-2 -59 -18 -215q-12 -122 -16 -139q-12 -30 -52 -55t-88 -21q-35 5 -53.5 35.5t-20 80t2.5 95t11.5 101t8.5 77.5 q7 79 3 148.5t-25 126.5q-9 23 -36 65.5t-36 65.5q-19 53 -72 143.5t-69 126.5q-19 41 -68 137q-4 7 -18.5 35t-20 39.5t-12 32t-6.5 37.5zM432 1552q-11 33 2 62.5t39.5 50.5t67.5 41.5t78 34t80.5 29.5t64.5 26q3 1 40 17.5t51.5 22.5t43 15t49.5 13q58 9 87 -21 t20.5 -76.5t-49.5 -83.5q-46 -32 -103.5 -57.5t-151 -57.5t-124.5 -44q-7 -3 -34 -14t-38.5 -15t-35 -7.5t-36.5 2t-27.5 20.5t-23.5 42z" />
<glyph unicode="&#xdf;" horiz-adv-x="1148" d="M111 775q3 111 17 212.5t49.5 190t85 156t123 110t163.5 51.5q116 11 224 -46t190 -146q34 -38 52 -59t42 -59.5t30.5 -70.5t2 -76t-26.5 -90q-20 -40 -68.5 -99.5t-89.5 -96.5q-112 -97 -114 -150q-2 -16 14.5 -37t56.5 -57.5t53 -50.5q56 -57 79.5 -106t25.5 -103 q1 -40 -10 -74.5t-33.5 -61.5t-41 -43t-46.5 -36q-59 -41 -95 -50q-27 -6 -53 -3q-41 6 -67 39t-23 75t37 70q5 4 27.5 12.5t40 21t20.5 31.5q3 24 -20 58t-57.5 69.5t-69 73t-59.5 80t-25 78.5q2 64 48.5 143t125.5 143q91 74 100 140q5 44 -39 101.5t-105.5 97.5 t-105.5 40q-48 1 -87 -46.5t-61.5 -121t-34 -149t-13.5 -145.5q-3 -111 19 -362.5t9 -389.5q-16 -34 -50.5 -64.5t-78 -41.5t-84.5 22q-9 7 -14.5 18t-8 29t-3 33t-1 41.5t-1.5 42.5q-1 49 -14 208.5t-21 225.5q-17 111 -14 222z" />
<glyph unicode="&#xe0;" d="M61 319q-26 124 76 226q23 23 70 50t88 40q39 12 113 19t128 14.5t68 25.5q24 37 16.5 77t-32.5 71.5t-49 34.5q-65 -10 -129 -40t-110 -51.5t-77 -19.5q-27 10 -38.5 27.5t-16.5 48.5q-4 29 6 53t33 42t43 29t51 25q113 58 191 79t167 1q56 -20 102 -86t58 -145 q7 -37 8.5 -76t-3 -90t-7 -71t-12.5 -83l-10 -63q-48 -247 -76 -342q-12 -36 -47.5 -76.5t-69.5 -44.5q-25 -4 -75 3.5t-78 18.5q-75 29 -116 47.5t-93 53.5t-95 80q-77 69 -84 122zM145 1491q3 48 33.5 72t69.5 30q26 3 46.5 -5t51 -30t45.5 -30q10 -5 109.5 -64.5 t148.5 -85.5q9 -5 26.5 -14.5t25.5 -14t21 -13t19.5 -15t13 -15.5t9.5 -18q16 -55 -11.5 -107t-58.5 -61q-11 -3 -23.5 -3t-23 2t-22.5 7.5t-21 10t-21.5 12.5t-19.5 13t-18.5 13.5t-16.5 12.5q-60 42 -151.5 93.5t-134.5 78.5q-56 37 -72 56q-27 32 -25 75zM268 412 q1 -42 25.5 -75t65.5 -53t79.5 -31t81.5 -17q70 18 70 231q-8 7 -21 10.5t-31 3.5h-31.5t-34 -2t-26.5 -2q-134 -7 -178 -65z" />
<glyph unicode="&#xe1;" d="M61 319q-26 124 76 226q23 23 70 50t88 40q39 12 113 19t128 14.5t68 25.5q24 37 16.5 77t-32.5 71.5t-49 34.5q-65 -10 -129 -40t-110 -51.5t-77 -19.5q-27 10 -38.5 27.5t-16.5 48.5q-4 29 6 53t33 42t43 29t51 25q113 58 191 79t167 1q56 -20 102 -86t58 -145 q7 -37 8.5 -76t-3 -90t-7 -71t-12.5 -83l-10 -63q-48 -247 -76 -342q-12 -36 -47.5 -76.5t-69.5 -44.5q-25 -4 -75 3.5t-78 18.5q-75 29 -116 47.5t-93 53.5t-95 80q-77 69 -84 122zM240 1155q-11 33 2 62.5t39 50.5t67 41.5t78 34t80.5 29.5t64.5 26q136 59 185 67 q58 9 87 -20.5t20 -76t-50 -83.5q-46 -33 -103 -58t-152 -58t-124 -44q-8 -3 -29 -12t-32.5 -13t-30.5 -9t-31.5 -3t-27 7.5t-25 20.5t-18.5 38zM268 412q1 -42 25.5 -75t65.5 -53t79.5 -31t81.5 -17q70 18 70 231q-8 7 -21 10.5t-31 3.5h-31.5t-34 -2t-26.5 -2 q-134 -7 -178 -65z" />
<glyph unicode="&#xe2;" d="M61 319q-26 124 76 226q23 23 70 50t88 40q39 12 113 19t128 14.5t68 25.5q24 37 16.5 77t-32.5 71.5t-49 34.5q-65 -10 -129 -40t-110 -51.5t-77 -19.5q-27 10 -38.5 27.5t-16.5 48.5q-4 29 6 53t33 42t43 29t51 25q113 58 191 79t167 1q56 -20 102 -86t58 -145 q7 -37 8.5 -76t-3 -90t-7 -71t-12.5 -83l-10 -63q-48 -247 -76 -342q-12 -36 -47.5 -76.5t-69.5 -44.5q-25 -4 -75 3.5t-78 18.5q-75 29 -116 47.5t-93 53.5t-95 80q-77 69 -84 122zM213 1106q-21 27 0 92t45 107q46 76 127 151.5t127 71.5q97 -7 244 -139q49 -44 90 -97.5 t49 -95.5q9 -52 -28.5 -94t-90.5 -37q-28 3 -52.5 18.5t-36.5 29t-40 48.5q-3 4 -22 27.5t-27.5 33.5t-24 26t-27 23t-20.5 7q-31 0 -82.5 -57t-74.5 -97q-31 -51 -78.5 -54.5t-77.5 36.5zM268 412q1 -42 25.5 -75t65.5 -53t79.5 -31t81.5 -17q70 18 70 231q-8 7 -21 10.5 t-31 3.5h-31.5t-34 -2t-26.5 -2q-134 -7 -178 -65z" />
<glyph unicode="&#xe3;" d="M61 319q-26 124 76 226q23 23 70 50t88 40q39 12 113 19t128 14.5t68 25.5q24 37 16.5 77t-32.5 71.5t-49 34.5q-65 -10 -129 -40t-110 -51.5t-77 -19.5q-27 10 -38.5 27.5t-16.5 48.5q-4 29 6 53t33 42t43 29t51 25q113 58 191 79t167 1q56 -20 102 -86t58 -145 q7 -37 8.5 -76t-3 -90t-7 -71t-12.5 -83l-10 -63q-48 -247 -76 -342q-12 -36 -47.5 -76.5t-69.5 -44.5q-25 -4 -75 3.5t-78 18.5q-75 29 -116 47.5t-93 53.5t-95 80q-77 69 -84 122zM184 1210q-3 16 0.5 32.5t9 26.5t14.5 25t11 19q22 40 72 90q23 25 58 42.5t81.5 17 t81.5 -32.5q14 -13 30 -47t32.5 -58t37.5 -25q24 -1 46 24t36.5 53t38 44.5t51.5 3.5q41 -20 34 -63.5t-31 -83t-52 -64.5q-24 -21 -50 -35.5t-58.5 -23.5t-67.5 -0.5t-67 35.5q-17 12 -37.5 55.5t-40.5 46.5q-18 2 -38 -11t-31 -26t-28 -38.5t-18 -26.5 q-32 -35 -70.5 -26.5t-44.5 46.5zM268 412q1 -42 25.5 -75t65.5 -53t79.5 -31t81.5 -17q70 18 70 231q-8 7 -21 10.5t-31 3.5h-31.5t-34 -2t-26.5 -2q-134 -7 -178 -65z" />
<glyph unicode="&#xe4;" d="M61 319q-26 124 76 226q23 23 70 50t88 40q39 12 113 19t128 14.5t68 25.5q24 37 16.5 77t-32.5 71.5t-49 34.5q-65 -10 -129 -40t-110 -51.5t-77 -19.5q-27 10 -38.5 27.5t-16.5 48.5q-4 29 6 53t33 42t43 29t51 25q113 58 191 79t167 1q56 -20 102 -86t58 -145 q7 -37 8.5 -76t-3 -90t-7 -71t-12.5 -83l-10 -63q-48 -247 -76 -342q-12 -36 -47.5 -76.5t-69.5 -44.5q-25 -4 -75 3.5t-78 18.5q-75 29 -116 47.5t-93 53.5t-95 80q-77 69 -84 122zM268 412q1 -42 25.5 -75t65.5 -53t79.5 -31t81.5 -17q70 18 70 231q-8 7 -21 10.5t-31 3.5 h-31.5t-34 -2t-26.5 -2q-134 -7 -178 -65zM291 1305q6 47 39 78.5t76 39.5q78 15 98 -49q17 -56 -17 -122q-35 -67 -91 -72q-9 -1 -19 0q-45 5 -68.5 38.5t-17.5 86.5zM626 1229q-15 59 17 120q34 64 89 62q23 -2 46 -16q28 -18 42 -55.5t10.5 -75t-34.5 -66.5t-85 -31 q-68 -3 -85 62z" />
<glyph unicode="&#xe5;" d="M61 319q-26 124 76 226q23 23 70 50t88 40q39 12 113 19t128 14.5t68 25.5q24 37 16.5 77t-32.5 71.5t-49 34.5q-65 -10 -129 -40t-110 -51.5t-77 -19.5q-27 10 -38.5 27.5t-16.5 48.5q-4 29 6 53t33 42t43 29t51 25q113 58 191 79t167 1q56 -20 102 -86t58 -145 q7 -37 8.5 -76t-3 -90t-7 -71t-12.5 -83l-10 -63q-48 -247 -76 -342q-12 -36 -47.5 -76.5t-69.5 -44.5q-25 -4 -75 3.5t-78 18.5q-75 29 -116 47.5t-93 53.5t-95 80q-77 69 -84 122zM170 1208q3 43 30 101.5t62 101.5q28 34 51.5 57.5t68.5 59.5t101 54.5t117 14.5 q125 -6 198.5 -98t65.5 -207q-4 -53 -54 -138t-93 -124q-69 -63 -168 -81t-201 20q-27 12 -56.5 32t-59.5 50t-48 71.5t-14 85.5zM268 412q1 -42 25.5 -75t65.5 -53t79.5 -31t81.5 -17q70 18 70 231q-8 7 -21 10.5t-31 3.5h-31.5t-34 -2t-26.5 -2q-134 -7 -178 -65z M412 1268q2 -32 24.5 -58t54.5 -38.5t65 -14t58 15t31 48.5q15 74 -35 123.5t-112 35.5q-37 -8 -63 -41t-23 -71z" />
<glyph unicode="&#xe6;" horiz-adv-x="1302" d="M85 296.5q12 71.5 53.5 134.5t89.5 107.5t94 67.5q26 13 95 24t99 29q43 27 60.5 96.5t-3.5 135.5q-65 6 -101.5 -12.5t-90.5 -73.5q-13 -14 -34.5 -42.5t-35 -44.5t-38.5 -29.5t-54 -12.5q-126 6 -58 123q36 62 103 125q74 67 139 106t138 47q26 5 75 3t66 -13 q28 -20 59 -61.5t56 -47.5q29 -8 91 8t113 13q78 -5 140 -50.5t85 -118.5t-14 -167q-32 -78 -115.5 -131t-201.5 -74q-7 -1 -32 -2.5t-42.5 -3.5t-38 -7.5t-30.5 -14.5q-7 -6 -12.5 -15t-8.5 -22t-5 -24t-2.5 -29t-0.5 -28.5v-32v-30.5q96 -55 235 23q17 9 40.5 29.5 t41.5 38t43 34.5t46.5 19.5t52.5 -6.5q33 -14 41.5 -53t-13.5 -87q-43 -97 -170.5 -155t-298.5 -66q-20 -1 -96 16t-88 17q-27 1 -77.5 -13.5t-71.5 -15.5q-108 -10 -195 24.5t-115 112.5q-25 78 -13 149.5zM299 260q6 -46 67 -63t105 10q37 21 54 96t10 135 q-49 18 -107.5 -3t-97 -70.5t-31.5 -104.5zM774 643q-1 -28 11.5 -40t52 -8t108.5 30q32 12 64 47.5t28 64.5q-11 61 -118 47q-51 -7 -96.5 -43.5t-49.5 -97.5z" />
<glyph unicode="&#xe7;" horiz-adv-x="931" d="M97.5 378.5q6.5 49.5 20.5 90.5t40 80t51 67t53 52q65 57 160.5 89t204.5 25q166 -11 172 -63q6 -40 -17.5 -81t-62.5 -50q-31 -8 -114.5 -11t-123.5 -12q-57 -12 -104 -53.5t-51 -101.5t44.5 -107.5t110.5 -60.5q21 -5 40 -5.5t38 2.5t34.5 6.5t38.5 9.5t40 9 q133 24 164 -41q18 -48 8 -84.5t-29 -48.5q-51 -33 -116.5 -49t-114 -17.5t-92.5 -11.5t-62 -35q13 -17 36.5 -33t44.5 -27t44.5 -27.5t36 -35t19.5 -49t-5 -69.5q-9 -42 -54 -75t-99 -49t-102.5 -22.5t-71.5 -1.5q-87 18 -84 88q1 31 33.5 47.5t70.5 20t69.5 17t30.5 40.5 q0 20 -27.5 38t-60.5 31t-61 34.5t-29 46.5q-1 30 10.5 49.5t20 31.5t2.5 29q-1 2 -20.5 19.5t-43.5 40.5t-49.5 66.5t-36.5 91.5q-13 50 -6.5 99.5z" />
<glyph unicode="&#xe8;" horiz-adv-x="917" d="M84 1397q3 48 33 72t69 30q26 3 47 -5t52 -30t45 -30q10 -5 109.5 -64.5t148.5 -85.5q8 -4 26 -14t25.5 -14.5t21 -13t19.5 -15t12.5 -15.5t9.5 -18q16 -55 -11 -107t-58 -61q-11 -3 -23.5 -3t-23 2t-22.5 7.5t-21 10t-21.5 12.5t-19.5 13t-18.5 13.5t-16.5 12.5 q-59 41 -151 92.5t-136 79.5q-56 37 -72 57q-26 32 -24 74zM92 362q-56 253 49 396q36 68 99 122.5t125 73.5q150 55 270.5 5.5t185.5 -201.5q12 -22 27.5 -70.5t15.5 -73.5q3 -43 -23.5 -86.5t-66.5 -56.5q-31 -11 -105 -42t-128 -46q-130 -37 -197 -59q11 -47 47.5 -68.5 t112.5 -36.5q46 -10 89.5 -0.5t68.5 24.5t58 21t56 -10q32 -37 30 -76.5t-30 -62.5q-79 -58 -204.5 -73t-204.5 26q-124 51 -179 109.5t-96 184.5zM296 614q-12 -67 3 -92q16 -3 57 6t96 23.5t80 19.5q38 8 74 31.5t43 48.5q-26 76 -74 107.5t-107 18.5t-124 -66 q-36 -30 -48 -97z" />
<glyph unicode="&#xe9;" horiz-adv-x="917" d="M92 362q-56 253 49 396q36 68 99 122.5t125 73.5q150 55 270.5 5.5t185.5 -201.5q12 -22 27.5 -70.5t15.5 -73.5q3 -43 -23.5 -86.5t-66.5 -56.5q-31 -11 -105 -42t-128 -46q-130 -37 -197 -59q11 -47 47.5 -68.5t112.5 -36.5q46 -10 89.5 -0.5t68.5 24.5t58 21t56 -10 q32 -37 30 -76.5t-30 -62.5q-79 -58 -204.5 -73t-204.5 26q-124 51 -179 109.5t-96 184.5zM156 1077q-11 33 2 62.5t39 50.5t67 41.5t78 34t80.5 29.5t64.5 26q7 3 32.5 14.5t39.5 17t36 14t41 14t36 8.5q58 9 87 -21t20 -76.5t-50 -83.5q-46 -32 -103.5 -57.5t-151 -57.5 t-124.5 -44q-7 -3 -33.5 -14t-38.5 -15t-35 -7.5t-36 2t-27.5 20.5t-23.5 42zM296 614q-12 -67 3 -92q16 -3 57 6t96 23.5t80 19.5q38 8 74 31.5t43 48.5q-26 76 -74 107.5t-107 18.5t-124 -66q-36 -30 -48 -97z" />
<glyph unicode="&#xea;" horiz-adv-x="917" d="M92 362q-56 253 49 396q36 68 99 122.5t125 73.5q150 55 270.5 5.5t185.5 -201.5q12 -22 27.5 -70.5t15.5 -73.5q3 -43 -23.5 -86.5t-66.5 -56.5q-31 -11 -105 -42t-128 -46q-130 -37 -197 -59q11 -47 47.5 -68.5t112.5 -36.5q46 -10 89.5 -0.5t68.5 24.5t58 21t56 -10 q32 -37 30 -76.5t-30 -62.5q-79 -58 -204.5 -73t-204.5 26q-124 51 -179 109.5t-96 184.5zM139 1038q-21 27 0 92t45 107q46 76 127 151.5t127 71.5q97 -7 244 -139q49 -44 90 -97.5t49 -95.5q9 -52 -28.5 -94t-90.5 -37q-28 3 -52.5 19t-36 29t-40.5 49q-3 4 -21.5 27.5 t-27 33t-24 25.5t-27 23t-20.5 7q-31 0 -83.5 -57t-74.5 -96q-31 -51 -78.5 -55t-77.5 36zM296 614q-12 -67 3 -92q16 -3 57 6t96 23.5t80 19.5q38 8 74 31.5t43 48.5q-26 76 -74 107.5t-107 18.5t-124 -66q-36 -30 -48 -97z" />
<glyph unicode="&#xeb;" horiz-adv-x="917" d="M92 362q-56 253 49 396q36 68 99 122.5t125 73.5q150 55 270.5 5.5t185.5 -201.5q12 -22 27.5 -70.5t15.5 -73.5q3 -43 -23.5 -86.5t-66.5 -56.5q-31 -11 -105 -42t-128 -46q-130 -37 -197 -59q11 -47 47.5 -68.5t112.5 -36.5q46 -10 89.5 -0.5t68.5 24.5t58 21t56 -10 q32 -37 30 -76.5t-30 -62.5q-79 -58 -204.5 -73t-204.5 26q-124 51 -179 109.5t-96 184.5zM168 1171q6 47 39 79t76 40q78 15 98 -49q17 -56 -17 -122q-35 -67 -91 -72q-9 -1 -19 0q-45 5 -68.5 38t-17.5 86zM296 614q-12 -67 3 -92q16 -3 57 6t96 23.5t80 19.5 q38 8 74 31.5t43 48.5q-26 76 -74 107.5t-107 18.5t-124 -66q-36 -30 -48 -97zM503 1096q-15 59 17 120q34 64 89 62q23 -2 46 -16q28 -18 42 -55.5t10.5 -75t-34.5 -66.5t-85 -31q-68 -3 -85 62z" />
<glyph unicode="&#xec;" horiz-adv-x="495" d="M-109 1370q3 48 33.5 72.5t69.5 30.5q26 3 47 -5.5t51 -30t45 -30.5q10 -5 109.5 -64.5t148.5 -85.5q9 -5 26.5 -14.5t25.5 -14t21 -13t19.5 -15t13 -15.5t9.5 -18q16 -55 -11.5 -107t-58.5 -61q-11 -3 -23.5 -3t-23 2t-22.5 7.5t-21 10t-21.5 12.5t-19.5 13t-18.5 13.5 t-16.5 12.5q-60 42 -151.5 93.5t-134.5 78.5q-56 37 -72 56q-27 32 -25 75zM70.5 114.5q0.5 24.5 1 38t6 49.5t6.5 46q9 81 27.5 230.5t23.5 193.5q6 48 13 79.5t21.5 67.5t39 55.5t59.5 22.5q27 4 64.5 -16t44.5 -56q3 -12 0 -30.5t-12.5 -52.5t-12.5 -48 q-42 -214 -49 -364q-1 -19 -1.5 -78t-4 -97t-12.5 -57q-23 -45 -90 -64t-105 17q-10 10 -15 24.5t-4.5 39z" />
<glyph unicode="&#xed;" horiz-adv-x="495" d="M-18 1049q-11 33 2 62.5t39 50t67 41t78 34t80 29.5t65 26q7 3 32.5 14.5t39.5 17t36 14t41 14t36 8.5q58 9 87 -20.5t20 -76t-50 -83.5q-46 -33 -103 -58t-152 -58t-124 -44q-8 -3 -29 -12t-32.5 -13t-30.5 -9t-31.5 -3t-27 7.5t-25 20.5t-18.5 38zM70.5 114.5 q0.5 24.5 1 38t6 49.5t6.5 46q9 81 27.5 230.5t23.5 193.5q6 48 13 79.5t21.5 67.5t39 55.5t59.5 22.5q27 4 64.5 -16t44.5 -56q3 -12 0 -30.5t-12.5 -52.5t-12.5 -48q-42 -214 -49 -364q-1 -19 -1.5 -78t-4 -97t-12.5 -57q-23 -45 -90 -64t-105 17q-10 10 -15 24.5t-4.5 39 z" />
<glyph unicode="&#xee;" horiz-adv-x="495" d="M-68 993q-21 27 0 92t45 107q46 76 127 151.5t127 71.5q97 -7 244 -139q49 -44 90 -97.5t49 -95.5q9 -53 -28.5 -94t-89.5 -37q-28 3 -52.5 19t-36 29t-40.5 49q-5 6 -16 20t-18 22.5t-18 21t-19 20.5t-17.5 16t-17.5 12t-15 4q-31 0 -83.5 -57t-74.5 -96 q-31 -51 -78.5 -55t-77.5 36zM70.5 114.5q0.5 24.5 1 38t6 49.5t6.5 46q9 81 27.5 230.5t23.5 193.5q6 48 13 79.5t21.5 67.5t39 55.5t59.5 22.5q27 4 64.5 -16t44.5 -56q3 -12 0 -30.5t-12.5 -52.5t-12.5 -48q-42 -214 -49 -364q-1 -19 -1.5 -78t-4 -97t-12.5 -57 q-23 -45 -90 -64t-105 17q-10 10 -15 24.5t-4.5 39z" />
<glyph unicode="&#xef;" horiz-adv-x="495" d="M-10 1169q6 47 39 79t75 40q78 15 98 -49q17 -56 -16 -122q-34 -67 -90 -73q-10 -1 -20 0q-45 5 -68.5 38.5t-17.5 86.5zM70.5 114.5q0.5 24.5 1 38t6 49.5t6.5 46q9 81 27.5 230.5t23.5 193.5q6 48 13 79.5t21.5 67.5t39 55.5t59.5 22.5q27 4 64.5 -16t44.5 -56 q3 -12 0 -30.5t-12.5 -52.5t-12.5 -48q-42 -214 -49 -364q-1 -19 -1.5 -78t-4 -97t-12.5 -57q-23 -45 -90 -64t-105 17q-10 10 -15 24.5t-4.5 39zM325 1094q-15 59 17 120q34 64 89 62q23 -2 46 -16q28 -18 42 -55.5t10.5 -75t-34.5 -66.5t-85 -31q-68 -3 -85 62z" />
<glyph unicode="&#xf1;" horiz-adv-x="944" d="M73.5 127q2.5 52 7.5 114q2 15 3 23q5 49 15 131t16.5 150.5t9.5 132.5q0 10 1 39t1.5 42t2 39t4.5 39.5t7.5 34.5t11 32t15.5 24t21.5 20t27.5 10q46 9 72 -11.5t33 -64t7 -89.5v-103t7 -90q64 61 86 94q75 114 172 187q26 19 45.5 30.5t49.5 23.5t60 9t58 -22 q19 -11 39 -59t24 -97q7 -78 -16.5 -271t-24.5 -253q0 -12 2 -37.5t2 -43.5t-4 -28q-13 -34 -55.5 -55t-89 -15t-68.5 41q-7 122 19 310q1 9 4 34.5t4 33.5t3.5 28.5t2.5 30t1 27.5t0.5 31t-2 29.5t-3.5 33.5q-18 -2 -34.5 -11.5t-32.5 -27.5t-26.5 -31t-27.5 -38.5 t-24 -35.5q-47 -62 -67.5 -92.5t-42.5 -72t-40 -70.5q-7 -13 -40.5 -84t-62.5 -116.5t-54 -49.5q-65 -14 -93.5 14t-26 80zM285 1073q-3 16 0.5 32.5t8.5 26.5t14 25t11 19q22 40 72 90q23 25 58 42.5t81.5 16.5t81.5 -33q14 -13 30 -46.5t33 -57.5t38 -25q24 -1 46 24 t36.5 53t38 44.5t51.5 3.5q41 -20 34 -63.5t-31 -83t-52 -64.5q-24 -21 -50 -35.5t-58.5 -23.5t-68 -0.5t-67.5 35.5q-17 12 -37.5 55.5t-40.5 46.5q-18 2 -38 -11t-31 -26t-28 -38.5t-18 -26.5q-32 -35 -70 -26.5t-44 46.5z" />
<glyph unicode="&#xf2;" horiz-adv-x="956" d="M50.5 523.5q5.5 147.5 76.5 252.5q4 6 16 25t14.5 23t12 18t14 18.5t14 15.5t17.5 18.5t20 18t27 21.5q43 32 73 47.5t75 22.5q109 19 202 -2.5t156.5 -76t100.5 -136t40 -179.5q17 -117 -42 -228.5t-165 -188.5q-137 -90 -296 -72q-75 7 -155.5 48t-127.5 89 q-78 118 -72.5 265.5zM152 1421q3 49 33 73t69 30q26 3 47 -5.5t51 -30t45 -30.5q25 -15 78.5 -46.5t98.5 -57.5t81 -45q9 -5 26.5 -14.5t25.5 -14t21 -13t19.5 -15t13 -15.5t9.5 -18q16 -55 -11.5 -107t-58.5 -61q-11 -3 -23.5 -3t-22.5 2t-22.5 7t-21 9.5t-21 12.5t-19 13 t-18.5 14t-17 12q-59 41 -151 92.5t-136 79.5q-56 37 -72 57q-26 32 -24 74zM272 473q13 -80 82.5 -126t165.5 -21q52 15 104.5 69t65.5 119q13 63 -0.5 123t-46 101.5t-81.5 63t-101 11.5q-54 -10 -102 -67t-72.5 -133.5t-14.5 -139.5z" />
<glyph unicode="&#xf3;" horiz-adv-x="956" d="M50.5 523.5q5.5 147.5 76.5 252.5q4 6 16 25t14.5 23t12 18t14 18.5t14 15.5t17.5 18.5t20 18t27 21.5q43 32 73 47.5t75 22.5q109 19 202 -2.5t156.5 -76t100.5 -136t40 -179.5q17 -117 -42 -228.5t-165 -188.5q-137 -90 -296 -72q-75 7 -155.5 48t-127.5 89 q-78 118 -72.5 265.5zM172 1112q-11 33 2 62.5t39.5 50.5t67.5 41.5t78 34t80.5 29.5t64.5 26q5 2 32 14t39.5 17l35 14t41.5 14t36 8q58 9 87 -20.5t20 -76t-50 -83.5q-46 -33 -102.5 -58t-152 -58t-123.5 -44q-8 -3 -29 -12t-32.5 -13t-30.5 -9t-32 -3t-27.5 7.5t-25 20.5 t-18.5 38zM272 473q13 -80 82.5 -126t165.5 -21q52 15 104.5 69t65.5 119q13 63 -0.5 123t-46 101.5t-81.5 63t-101 11.5q-54 -10 -102 -67t-72.5 -133.5t-14.5 -139.5z" />
<glyph unicode="&#xf4;" horiz-adv-x="956" d="M50.5 523.5q5.5 147.5 76.5 252.5q4 6 16 25t14.5 23t12 18t14 18.5t14 15.5t17.5 18.5t20 18t27 21.5q43 32 73 47.5t75 22.5q109 19 202 -2.5t156.5 -76t100.5 -136t40 -179.5q17 -117 -42 -228.5t-165 -188.5q-137 -90 -296 -72q-75 7 -155.5 48t-127.5 89 q-78 118 -72.5 265.5zM147 1079q-21 26 0 91.5t46 107.5q47 76 127 151.5t126 71.5q97 -7 244 -139q49 -44 90 -97.5t49 -95.5q9 -53 -28.5 -94t-89.5 -37q-28 3 -52.5 19t-36 29t-40.5 49q-5 6 -16 20t-18 22.5t-18 21t-19 20.5t-17.5 16t-17.5 12t-15 4q-31 0 -83.5 -57 t-74.5 -96q-31 -51 -78.5 -55t-77.5 36zM272 473q13 -80 82.5 -126t165.5 -21q52 15 104.5 69t65.5 119q13 63 -0.5 123t-46 101.5t-81.5 63t-101 11.5q-54 -10 -102 -67t-72.5 -133.5t-14.5 -139.5z" />
<glyph unicode="&#xf5;" horiz-adv-x="956" d="M50.5 523.5q5.5 147.5 76.5 252.5q4 6 16 25t14.5 23t12 18t14 18.5t14 15.5t17.5 18.5t20 18t27 21.5q43 32 73 47.5t75 22.5q109 19 202 -2.5t156.5 -76t100.5 -136t40 -179.5q17 -117 -42 -228.5t-165 -188.5q-137 -90 -296 -72q-75 7 -155.5 48t-127.5 89 q-78 118 -72.5 265.5zM168 1124q-3 16 0.5 32.5t9 26.5t14.5 25t11 19q23 42 71 90q23 25 58.5 42.5t82 16.5t81.5 -33q14 -13 30 -46.5t32.5 -57.5t37.5 -25q24 -1 46 24t36.5 53t38 44.5t51.5 3.5q41 -20 34 -63.5t-31 -83t-52 -64.5q-24 -21 -50 -35.5t-58.5 -23.5 t-68 -0.5t-67.5 35.5q-17 12 -37.5 55.5t-40.5 46.5q-18 2 -38 -11t-30.5 -26t-27.5 -38t-18 -27q-32 -35 -70.5 -26.5t-44.5 46.5zM272 473q13 -80 82.5 -126t165.5 -21q52 15 104.5 69t65.5 119q13 63 -0.5 123t-46 101.5t-81.5 63t-101 11.5q-54 -10 -102 -67 t-72.5 -133.5t-14.5 -139.5z" />
<glyph unicode="&#xf6;" horiz-adv-x="956" d="M50.5 523.5q5.5 147.5 76.5 252.5q4 6 16 25t14.5 23t12 18t14 18.5t14 15.5t17.5 18.5t20 18t27 21.5q43 32 73 47.5t75 22.5q109 19 202 -2.5t156.5 -76t100.5 -136t40 -179.5q17 -117 -42 -228.5t-165 -188.5q-137 -90 -296 -72q-75 7 -155.5 48t-127.5 89 q-78 118 -72.5 265.5zM197 1227q6 47 39 79t75 40q78 15 98 -49q17 -56 -16 -122q-34 -67 -90 -73h-20q-45 5 -68.5 38.5t-17.5 86.5zM272 473q13 -80 82.5 -126t165.5 -21q52 15 104.5 69t65.5 119q13 63 -0.5 123t-46 101.5t-81.5 63t-101 11.5q-54 -10 -102 -67 t-72.5 -133.5t-14.5 -139.5zM531 1151q-15 58 18 120q34 65 89 62q23 -2 46 -16q39 -25 51 -78t-18 -99.5t-101 -49.5q-68 -3 -85 61z" />
<glyph unicode="&#xf8;" horiz-adv-x="1085" d="M92 419.5q1 68.5 25.5 133.5t58 115.5t72.5 85.5q52 45 123.5 73.5t146.5 34.5q10 1 58.5 -3t66.5 1q7 1 19 21t26 44.5t44 48.5t69 32q34 5 74 -10t51 -46q11 -32 -3.5 -61t-34 -57.5t-18.5 -53.5q1 -7 28 -43t56.5 -89t34.5 -101q10 -98 -2.5 -169t-51 -117 t-70.5 -69.5t-89 -54.5q-59 -33 -134 -45t-133.5 -15t-76.5 -14q-6 -4 -15.5 -27.5t-20 -49t-37.5 -48.5t-66 -28q-50 -7 -83 17.5t-36 62.5q-3 37 16 74t19 59q0 25 -18.5 55t-43 60t-30.5 45q-26 70 -25 138.5zM333.5 424q2.5 -45 26.5 -72q18 17 37.5 48t39 67t28.5 49 q54 85 65 137q-36 15 -74 -1.5t-64.5 -54.5t-43.5 -83t-14.5 -90zM545 274q86 2 157 35t91 97q12 42 -7.5 102t-50.5 82q-34 -28 -93 -124t-97 -192z" />
<glyph unicode="&#xf9;" horiz-adv-x="876" d="M59 1380q3 48 33.5 72.5t69.5 30.5q26 3 47 -5.5t51 -30t45 -30.5q25 -15 78.5 -46.5t98.5 -57.5t81 -45q9 -5 26.5 -14.5t25.5 -14t21 -13t19.5 -15t13 -15.5t9.5 -18q16 -55 -11.5 -107t-58.5 -61q-11 -3 -23.5 -3t-23 2t-23 7t-21 9.5t-21 12.5t-19 13t-19 14 t-16.5 12q-60 42 -151.5 93.5t-134.5 78.5q-56 37 -72 56q-27 32 -25 75zM74 600q2 48 5.5 78.5t11 70.5t21 64.5t34.5 47.5t54 32.5t76 7.5q9 -6 16 -13t11 -17l7 -17.5t4 -21t1.5 -20.5t-1 -23.5t-2 -21.5t-3 -23t-2.5 -21q-2 -19 -7 -62q-8 -60 -11 -94t-5 -93.5 t7.5 -92.5t26.5 -67.5t52.5 -44.5t86.5 1q29 4 56 37.5t45 82t30 99t16 95.5q3 35 2 170t8 153q8 29 39 48t62 20.5t53 -8.5q66 -39 61 -305q-3 -143 -38 -259q-15 -52 -32 -93.5t-40 -81t-51 -67t-64.5 -50.5t-80 -32t-98 -12t-118.5 9q-92 22 -154 83.5t-75 168.5 q-10 88 -4 272z" />
<glyph unicode="&#xfa;" horiz-adv-x="876" d="M74 600q2 48 5.5 78.5t11 70.5t21 64.5t34.5 47.5t54 32.5t76 7.5q9 -6 16 -13t11 -17l7 -17.5t4 -21t1.5 -20.5t-1 -23.5t-2 -21.5t-3 -23t-2.5 -21q-2 -19 -7 -62q-8 -60 -11 -94t-5 -93.5t7.5 -92.5t26.5 -67.5t52.5 -44.5t86.5 1q29 4 56 37.5t45 82t30 99t16 95.5 q3 35 2 170t8 153q8 29 39 48t62 20.5t53 -8.5q66 -39 61 -305q-3 -143 -38 -259q-15 -52 -32 -93.5t-40 -81t-51 -67t-64.5 -50.5t-80 -32t-98 -12t-118.5 9q-92 22 -154 83.5t-75 168.5q-10 88 -4 272zM178 1087q-11 33 2 62.5t39.5 50.5t67.5 41.5t78 34t80.5 29.5 t64.5 26q3 1 40 17.5t51.5 22.5t43 15t49.5 13q58 9 87 -20.5t20.5 -76t-49.5 -83.5q-46 -33 -103 -58t-152 -58t-124 -44q-7 -3 -34 -14t-38.5 -15t-35 -7.5t-36.5 2t-27.5 20.5t-23.5 42z" />
<glyph unicode="&#xfb;" horiz-adv-x="876" d="M74 600q2 48 5.5 78.5t11 70.5t21 64.5t34.5 47.5t54 32.5t76 7.5q9 -6 16 -13t11 -17l7 -17.5t4 -21t1.5 -20.5t-1 -23.5t-2 -21.5t-3 -23t-2.5 -21q-2 -19 -7 -62q-8 -60 -11 -94t-5 -93.5t7.5 -92.5t26.5 -67.5t52.5 -44.5t86.5 1q29 4 56 37.5t45 82t30 99t16 95.5 q3 35 2 170t8 153q8 29 39 48t62 20.5t53 -8.5q66 -39 61 -305q-3 -143 -38 -259q-15 -52 -32 -93.5t-40 -81t-51 -67t-64.5 -50.5t-80 -32t-98 -12t-118.5 9q-92 22 -154 83.5t-75 168.5q-10 88 -4 272zM106 1079q-21 26 0 91.5t46 107.5q46 76 127 151.5t127 71.5 q96 -7 243 -139q49 -44 90 -97.5t49 -95.5q9 -53 -28.5 -94t-89.5 -37q-28 3 -52.5 19t-36 29t-40.5 49q-5 6 -16 20t-18 22.5t-18 21t-19 20.5t-17.5 16t-17.5 12t-15 4q-31 0 -83.5 -57t-74.5 -96q-31 -51 -78.5 -55t-77.5 36z" />
<glyph unicode="&#xfc;" horiz-adv-x="876" d="M74 600q2 48 5.5 78.5t11 70.5t21 64.5t34.5 47.5t54 32.5t76 7.5q9 -6 16 -13t11 -17l7 -17.5t4 -21t1.5 -20.5t-1 -23.5t-2 -21.5t-3 -23t-2.5 -21q-2 -19 -7 -62q-8 -60 -11 -94t-5 -93.5t7.5 -92.5t26.5 -67.5t52.5 -44.5t86.5 1q29 4 56 37.5t45 82t30 99t16 95.5 q3 35 2 170t8 153q8 29 39 48t62 20.5t53 -8.5q66 -39 61 -305q-3 -143 -38 -259q-15 -52 -32 -93.5t-40 -81t-51 -67t-64.5 -50.5t-80 -32t-98 -12t-118.5 9q-92 22 -154 83.5t-75 168.5q-10 88 -4 272zM219 1188q6 47 39 79t76 40q78 15 98 -49q17 -56 -17 -122 q-34 -67 -91 -73q-9 -1 -19 0q-45 5 -68.5 38.5t-17.5 86.5zM554 1112q-15 58 18 120q34 65 89 62q23 -2 46 -16q39 -25 51 -78t-18 -99.5t-101 -49.5q-68 -3 -85 61z" />
<glyph unicode="&#xfd;" horiz-adv-x="921" d="M57 829q9 73 64.5 109.5t116.5 3.5q7 -4 13 -10t11 -16t8.5 -19t8 -23.5t7 -24t7 -27t6.5 -25.5q111 -343 213 -478q15 25 53.5 162.5t83.5 276.5t78 178q18 22 47 33.5t62 -0.5t51 -54q30 -65 -80.5 -407t-226.5 -549q-20 -34 -47 -91t-52 -101t-57 -80 q-1 -1 -14.5 -17.5t-23.5 -28t-29.5 -30.5t-36 -31.5t-40 -24t-44 -15t-45 2t-46.5 21.5q-31 22 -36.5 48t11.5 51t37 45.5t46 42.5t33 30q49 55 88.5 133t56.5 152q3 28 -11.5 58t-39.5 65.5t-35 56.5q-20 43 -85 160t-93 200q-4 11 -20.5 50t-23.5 60t-13.5 54t-2.5 59z M256 1112q-11 33 2 62.5t39.5 50.5t67.5 41.5t78 34t80.5 29.5t64.5 26q5 2 32 14t39.5 17l35 14t41.5 14t36 8q58 9 87 -20.5t20 -76t-50 -83.5q-46 -33 -102.5 -58t-152 -58t-123.5 -44q-8 -3 -29 -12t-32.5 -13t-30.5 -9t-32 -3t-27.5 7.5t-25 20.5t-18.5 38z" />
<glyph unicode="&#xff;" horiz-adv-x="921" d="M57 829q9 73 64.5 109.5t116.5 3.5q7 -4 13 -10t11 -16t8.5 -19t8 -23.5t7 -24t7 -27t6.5 -25.5q111 -343 213 -478q15 25 53.5 162.5t83.5 276.5t78 178q18 22 47 33.5t62 -0.5t51 -54q30 -65 -80.5 -407t-226.5 -549q-20 -34 -47 -91t-52 -101t-57 -80 q-1 -1 -14.5 -17.5t-23.5 -28t-29.5 -30.5t-36 -31.5t-40 -24t-44 -15t-45 2t-46.5 21.5q-31 22 -36.5 48t11.5 51t37 45.5t46 42.5t33 30q49 55 88.5 133t56.5 152q3 28 -11.5 58t-39.5 65.5t-35 56.5q-20 43 -85 160t-93 200q-4 11 -20.5 50t-23.5 60t-13.5 54t-2.5 59z M244 1198q6 47 39 79t75 40q78 15 98 -49q17 -56 -16 -122q-34 -67 -90 -73h-20q-45 5 -68.5 38.5t-17.5 86.5zM579 1122q-15 58 17 120q34 64 89 62q23 -2 46 -16q28 -18 42 -55t10.5 -74.5t-34.5 -66.5t-85 -31q-68 -3 -85 61z" />
<glyph unicode="&#x152;" horiz-adv-x="1800" d="M104 385q-31 239 25.5 435.5t177.5 305.5q68 62 96 83t103 63q63 35 209 53q109 13 248 8q54 -2 168 0.5t190 1.5q27 -1 57.5 -0.5t63 -0.5t63.5 -2.5t59.5 -7.5t50.5 -14t36 -23t16 -34q6 -46 -6.5 -81.5t-42.5 -47.5q-45 -19 -121.5 -23t-148.5 2.5t-150 9.5t-127 -3 q43 -50 73 -107.5t42 -97t25 -71.5t28 -41q31 -19 91.5 -21t120.5 2.5t117.5 4.5t95.5 -22t42 -71q3 -49 -16.5 -84.5t-63.5 -46.5q-58 -13 -118 -8t-133 2.5t-109 -21.5q-32 -18 -47.5 -45t-27.5 -75t-24 -76q32 -30 96 -38t130 -3.5t129 5t104.5 -20t44.5 -68.5 q3 -51 -15.5 -90t-60.5 -49q-43 -7 -116.5 -5t-116.5 9q-24 3 -73 3t-75 3q-28 3 -75 12t-78 14.5t-78.5 9t-77.5 -2.5q-49 -6 -121.5 -28.5t-142.5 -38t-137 -11.5q-156 7 -228 65q-56 43 -108.5 125t-63.5 162zM342 465q22 -107 78.5 -172t152.5 -64q88 2 164.5 25.5 t138.5 69t100 119.5t44 169q7 112 -44.5 214t-123.5 180q-105 109 -184 100q-72 -10 -137.5 -48.5t-96.5 -86.5q-49 -76 -81 -234.5t-11 -271.5z" />
<glyph unicode="&#x153;" horiz-adv-x="1271" d="M59 332q-15 148 32.5 295.5t127.5 218.5q22 19 62 43.5t65 28.5q24 6 95.5 2.5t88.5 -2.5q13 1 78.5 29.5t139.5 35.5q67 6 146 -19t142 -74.5t89.5 -122t-11.5 -161.5q-35 -77 -124 -123.5t-191 -54.5q-52 -4 -74.5 -48.5t-17.5 -90.5q3 -44 47.5 -73t83.5 -19 q31 8 65.5 33.5t58.5 50t58 63.5q52 62 103 65t71 -53q15 -37 -19.5 -98t-74.5 -106q-73 -82 -154 -126.5t-192 -33.5q-53 5 -144 47q-19 10 -45 27t-45.5 27t-40.5 13q-26 4 -91 -4.5t-146 4.5q-72 12 -123 78t-60 148zM256 454q-4 -61 9.5 -106.5t39.5 -50.5 q21 -5 39 -6.5t43 1.5t44.5 13.5t39.5 34t32 58.5t18.5 91.5t2.5 128.5q-3 29 -51 65t-82 36q-40 0 -71.5 -41.5t-45.5 -102t-18 -121.5zM692 770q-14 -46 15 -160q64 -10 146.5 16t82.5 70q1 37 -43.5 60t-99.5 24t-101 -10z" />
<glyph unicode="&#x178;" horiz-adv-x="1193" d="M31 1309q0 41 35.5 86t82.5 63.5t93 -6.5q9 -6 21.5 -28.5t21.5 -43t20.5 -50t13.5 -34.5q31 -62 78 -161q17 -37 44 -111t51 -120.5t59 -80.5q25 13 44 35.5t40.5 59.5t30.5 49q186 263 208 293q54 68 62 83q3 5 18.5 30.5t27 42.5t17.5 22q18 15 50.5 19.5t65.5 -11 t44 -53.5q8 -26 -4 -59.5t-27 -54.5t-41.5 -51.5t-29.5 -33.5q-38 -48 -101 -125t-105 -133t-93 -135q-35 -53 -64 -107q-54 -82 -61 -114q-12 -47 -17 -187q-2 -59 -18 -215q-12 -122 -16 -139q-12 -30 -52 -55t-88 -21q-35 5 -53.5 35.5t-20 80t2.5 95t11.5 101t8.5 77.5 q7 79 3 148.5t-25 126.5q-9 23 -36 65.5t-36 65.5q-19 53 -72 143.5t-69 126.5q-19 41 -68 137q-4 7 -18.5 35t-20 39.5t-12 32t-6.5 37.5zM354 1620q6 47 39 79t76 40q78 15 98 -49q17 -56 -17 -122q-34 -67 -91 -73q-9 -1 -19 0q-45 5 -68.5 38.5t-17.5 86.5zM689 1544 q-15 58 18 120q34 65 89 62q23 -2 46 -16q39 -25 51 -78t-18 -99.5t-101 -49.5q-68 -3 -85 61z" />
<glyph unicode="&#x2c6;" horiz-adv-x="837" d="M94 1079q-21 27 0 92t45 107q46 76 127 151.5t127 71.5q97 -7 244 -139q49 -44 90 -97.5t49 -95.5q9 -52 -28.5 -94t-90.5 -37q-28 3 -52.5 19t-36 29t-40.5 49q-3 4 -21.5 27.5t-27 33t-24 25.5t-27 23t-20.5 7q-31 0 -83.5 -57t-74.5 -96q-31 -51 -78.5 -55t-77.5 36z " />
<glyph unicode="&#x2dc;" horiz-adv-x="847" d="M109 1108q-3 16 0.5 32.5t8.5 26t14 24.5t11 19q22 40 72 90q23 25 58 42.5t81.5 17t81.5 -32.5q14 -13 30 -46.5t33 -57.5t38 -25q24 -1 46 24t36.5 53t38 44.5t51.5 3.5q41 -20 33.5 -63.5t-31.5 -83t-52 -64.5q-34 -29 -69 -46.5t-83.5 -15.5t-90.5 37 q-17 12 -37.5 56t-40.5 47q-15 2 -30 -5t-28 -21.5t-22.5 -26.5t-20.5 -29t-14 -21q-33 -35 -70.5 -26t-43.5 47z" />
<glyph unicode="&#x2000;" horiz-adv-x="1017" />
<glyph unicode="&#x2001;" horiz-adv-x="2034" />
<glyph unicode="&#x2002;" horiz-adv-x="1017" />
<glyph unicode="&#x2003;" horiz-adv-x="2034" />
<glyph unicode="&#x2004;" horiz-adv-x="678" />
<glyph unicode="&#x2005;" horiz-adv-x="508" />
<glyph unicode="&#x2006;" horiz-adv-x="339" />
<glyph unicode="&#x2007;" horiz-adv-x="339" />
<glyph unicode="&#x2008;" horiz-adv-x="254" />
<glyph unicode="&#x2009;" horiz-adv-x="406" />
<glyph unicode="&#x200a;" horiz-adv-x="113" />
<glyph unicode="&#x2010;" horiz-adv-x="1067" d="M55 557q0 88 115 100q49 7 360 7q24 0 122.5 3t157.5 0t97 -14q54 -17 77.5 -75t-1.5 -117q-8 -19 -35.5 -32t-78 -19t-83 -8t-99.5 -3.5t-79 -1.5q-47 -4 -241 -1.5t-236 18.5q-37 13 -57.5 54t-18.5 89z" />
<glyph unicode="&#x2011;" horiz-adv-x="1067" d="M55 557q0 88 115 100q49 7 360 7q24 0 122.5 3t157.5 0t97 -14q54 -17 77.5 -75t-1.5 -117q-8 -19 -35.5 -32t-78 -19t-83 -8t-99.5 -3.5t-79 -1.5q-47 -4 -241 -1.5t-236 18.5q-37 13 -57.5 54t-18.5 89z" />
<glyph unicode="&#x2012;" horiz-adv-x="1067" d="M55 557q0 88 115 100q49 7 360 7q24 0 122.5 3t157.5 0t97 -14q54 -17 77.5 -75t-1.5 -117q-8 -19 -35.5 -32t-78 -19t-83 -8t-99.5 -3.5t-79 -1.5q-47 -4 -241 -1.5t-236 18.5q-37 13 -57.5 54t-18.5 89z" />
<glyph unicode="&#x2013;" horiz-adv-x="1366" d="M92 571q3 20 14 36t31.5 26t41 18t52 11.5t55 6t60 2t55.5 -1t54 -2t45 -1.5q250 -7 485 -7q157 4 225 -18q34 -12 53.5 -49.5t18 -73.5t-11.5 -61q-5 -8 -15.5 -15t-27.5 -11.5t-33.5 -8t-41 -5.5t-42 -3t-46 -1.5t-42.5 -0.5h-41.5h-34.5q-8 0 -301 -5.5t-360 -0.5 q-86 8 -144 32q-36 18 -46 48.5t-3 84.5z" />
<glyph unicode="&#x2014;" horiz-adv-x="1613" d="M111 588q14 51 55 61q156 39 422 25q99 -6 596 -6q10 0 57.5 1t78 1t72 -4t66.5 -13q43 -14 61.5 -69.5t4.5 -110.5q-3 -13 -14 -23.5t-31.5 -17.5t-41.5 -12.5t-53.5 -8.5t-56.5 -5t-63 -2.5t-60 -1t-60 0t-52 0.5q-93 0 -198.5 2t-242 5t-231.5 4q-17 0 -66.5 -2 t-86.5 -1.5t-60 5.5q-59 15 -84.5 68t-11.5 104z" />
<glyph unicode="&#x2018;" horiz-adv-x="931" d="M98 974q-3 94 18.5 181t72 155t118.5 85q16 4 45 -5.5t49 -21.5q33 -35 35 -75t-17.5 -76.5t-39.5 -82.5t-31 -93.5t8 -110.5q8 -28 51 -97t46 -94q6 -49 -29 -91t-74 -50q-29 -6 -65.5 17.5t-67 61t-53 73.5t-33.5 61q-30 69 -33 163z" />
<glyph unicode="&#x2019;" horiz-adv-x="602" d="M168 774q-8 31 7 70t43 85.5t36 65.5q13 34 14.5 101t-8.5 110q-8 36 -44.5 108t-35.5 116q1 48 43.5 77t89.5 37q45 6 83.5 -36.5t62 -111.5t35.5 -150t8 -152q-7 -123 -62 -232t-121 -139q-52 -20 -96.5 -2.5t-54.5 53.5z" />
<glyph unicode="&#x201a;" horiz-adv-x="546" d="M113 63q-8 31 7 70.5t43 86t36 65.5q13 34 14.5 101t-8.5 110q-8 36 -44.5 107.5t-35.5 115.5q1 48 43.5 77.5t89.5 37.5q59 8 105.5 -66.5t67 -180.5t15.5 -204q-7 -123 -61.5 -232t-120.5 -139q-52 -20 -96.5 -2.5t-54.5 53.5z" />
<glyph unicode="&#x201c;" horiz-adv-x="931" d="M98 974q-3 94 18.5 181t72 155t118.5 85q16 4 45 -5.5t49 -21.5q33 -35 35 -75t-17.5 -76.5t-39.5 -82.5t-31 -93.5t8 -110.5q8 -28 51 -97t46 -94q6 -49 -29 -91t-74 -50q-29 -6 -65.5 17.5t-67 61t-53 73.5t-33.5 61q-30 69 -33 163zM512 934q-8 171 45.5 301 t151.5 162q14 6 62 -2.5t56 -26.5q19 -52 17.5 -84t-17 -71t-33.5 -70.5t-31.5 -81.5t-10.5 -103q3 -49 26.5 -91.5t47.5 -75t26 -54.5q3 -37 -28 -76.5t-66 -48.5q-63 -18 -121 36.5t-90 134.5t-35 151z" />
<glyph unicode="&#x201d;" horiz-adv-x="962" d="M115.5 603q-16.5 35 0.5 79t54 84q8 10 24.5 28.5t26.5 29.5t20.5 26.5t16.5 28.5q20 45 24 106.5t-10 97.5q-12 35 -38.5 69t-44.5 62.5t-19 61.5q-3 52 30.5 87t84.5 48q75 21 149 -94q19 -29 41.5 -81.5t28.5 -86.5q24 -124 -13.5 -253.5t-107.5 -209.5 q-33 -38 -56 -61t-62.5 -44.5t-76.5 -17.5q-56 5 -72.5 40zM528 651q-8 31 7 70t43 85.5t36 65.5q13 34 14.5 101t-7.5 110q-8 36 -44.5 108t-35.5 116q1 48 43.5 77t89.5 37q59 8 105.5 -66.5t67 -180.5t15.5 -203q-7 -123 -61.5 -232t-120.5 -139q-52 -20 -97 -2.5 t-55 53.5z" />
<glyph unicode="&#x201e;" horiz-adv-x="962" d="M115.5 20q-16.5 35 0.5 78.5t54 83.5q8 10 24.5 28.5t26.5 29.5t20.5 26.5t16.5 28.5q20 45 24 107t-10 98q-12 35 -38.5 69t-44.5 62t-19 61q-3 52 30.5 87t84.5 48q75 21 149 -94q19 -29 41.5 -81.5t28.5 -86.5q24 -124 -13.5 -253.5t-107.5 -209.5q-33 -38 -56 -61 t-62.5 -44t-76.5 -17q-56 5 -72.5 40zM528 68q-8 31 7 70t43 85.5t36 65.5q13 34 14.5 101t-7.5 110q-8 36 -44.5 107.5t-35.5 115.5q1 48 43.5 77.5t89.5 37.5q59 8 105.5 -66.5t67 -180.5t15.5 -204q-7 -123 -61.5 -232t-120.5 -139q-52 -20 -97 -2t-55 54z" />
<glyph unicode="&#x2022;" horiz-adv-x="745" d="M86 451q13 122 105 209t208 96q130 9 205 -53.5t66 -186.5q-5 -67 -44 -127.5t-99 -99t-128 -59t-137 -10.5t-119 50q-30 25 -47 73.5t-10 107.5z" />
<glyph unicode="&#x2026;" horiz-adv-x="495" d="M82 51q-1 28 7 65.5t27.5 77t47 70.5t70 46.5t90.5 4.5q56 -29 74 -90.5t1 -122.5t-63 -108t-105 -49q-49 -2 -97.5 28t-51.5 78zM586 51q-1 28 7 65.5t27.5 77t47 70.5t69.5 46.5t90 4.5q56 -29 74.5 -90.5t1.5 -122.5t-63 -108t-105 -49q-49 -2 -97.5 28t-51.5 78z M1087 51q-1 28 7 65.5t27.5 77t47 70.5t70 46.5t90.5 4.5q56 -29 74.5 -90.5t1.5 -122.5t-63 -108t-105 -49q-49 -2 -98 28.5t-52 77.5z" />
<glyph unicode="&#x202f;" horiz-adv-x="406" />
<glyph unicode="&#x2039;" horiz-adv-x="712" d="M133 537q1 22 34.5 56t61.5 50q134 75 289 137q30 10 69 -12t44 -49q6 -30 -18 -59t-61.5 -51t-76.5 -40t-66.5 -32t-27.5 -21q0 -3 38 -22.5t84 -43t86.5 -55.5t43.5 -57q6 -43 -27 -75.5t-88 -26.5q-31 2 -92 34q-3 2 -36 21.5t-53 32.5t-56 37t-58.5 44t-46.5 44 t-34.5 46.5t-8.5 41.5z" />
<glyph unicode="&#x203a;" horiz-adv-x="776" d="M82 737q1 44 49 81.5t88 37.5q50 -7 105.5 -37t118.5 -74t89 -59q70 -45 92 -71q54 -60 23 -138q-6 -16 -16 -30.5t-27.5 -29.5t-29.5 -25t-38 -25.5t-37 -22t-43 -23.5t-40 -22q-11 -6 -44.5 -26.5t-53.5 -31.5t-48 -21t-47 -9q-31 1 -56 26.5t-30 51.5q-10 40 15.5 76 t63.5 58t82.5 50.5t61.5 50.5q-12 21 -59 50.5t-95 55t-86.5 55.5t-37.5 52z" />
<glyph unicode="&#x205f;" horiz-adv-x="508" />
<glyph unicode="&#x20ac;" horiz-adv-x="1396" d="M72 782q-5 39 10 77.5t45 58.5q20 13 119 17t119 15q45 80 99.5 150.5t123.5 135t154 108.5t176 59q94 21 228 -5t148 -83q9 -34 -20.5 -76.5t-61.5 -50.5q-34 -16 -121.5 -4t-113.5 10q-53 8 -134.5 -34.5t-140 -100t-57.5 -88.5q27 -16 89 -9t149 4.5t118 -28.5 q38 -104 9 -135q-37 -26 -114 -38t-174.5 -18.5t-141.5 -15.5q-8 -14 -4.5 -46t8.5 -48q4 -12 47 -12.5t94 3.5t100 -4t62 -34q13 -59 9.5 -93.5t-38.5 -58.5q-31 -21 -121 -24t-102 -8q18 -47 64 -79.5t102 -45.5t119 -9t116 27q22 8 59.5 31t53.5 28q51 15 83.5 5.5 t46 -39.5t13 -64.5t-17 -69.5t-43.5 -55q-36 -27 -125 -56.5t-152 -37.5q-228 -29 -388.5 63.5t-225.5 288.5q-34 -8 -105 -5t-108 20q-28 16 -36.5 47t-0.5 61.5t25 54.5q27 16 104 22t98 15q11 5 13.5 18t-1 35t-3.5 29q-18 11 -62 15.5t-83.5 6.5t-72.5 19t-36 51z" />
<glyph unicode="&#x2122;" horiz-adv-x="1736" d="M100 1206q-36 133 101 174q65 19 234 26q48 1 73 3q84 4 177 -11t110 -55q19 -51 -15.5 -108t-93.5 -66q-14 -2 -63 -1.5t-66 -8.5q-14 -37 -20.5 -104.5t-10.5 -127t-15 -115t-43.5 -83.5t-86.5 -18q-42 8 -57 45t-9.5 89t14.5 106.5t7.5 107.5t-23.5 82 q-30 -2 -64.5 -1t-64.5 4.5t-53.5 19t-30.5 42.5zM739 824.5q-1 22.5 4 50t11 53t15.5 54t16.5 48.5t15 41t10 27q44 129 75 177q70 109 206 97q25 -3 47 -23.5t35 -44t25.5 -43t19.5 -20.5q22 -1 66 43.5t61 52.5q26 13 49.5 19t41.5 7t35 -7.5t28.5 -16t23.5 -26.5 t19 -31.5t17 -39.5t14.5 -41.5t14 -45.5t13.5 -45q36 -103 47 -143q11 -37 15 -77t-1 -80t-29 -66t-65 -27q-43 -1 -70 23.5t-40 65t-22.5 83t-26 85.5t-42.5 64q-23 -20 -39.5 -57t-28 -70.5t-28.5 -64.5t-51 -46.5t-86 -8.5q-32 16 -48.5 66t-30 105t-38.5 76 q-25 -19 -43 -59.5t-30 -81.5t-27.5 -79t-44.5 -60.5t-72 -18.5q-22 2 -36 13.5t-19.5 30.5t-6.5 41.5z" />
<glyph unicode="&#xe000;" horiz-adv-x="952" d="M0 0v952h952v-952h-952z" />
</font>
</defs>
</svg>
